<?xml version="1.0" standalone="no"?>
<!DOCTYPE svg PUBLIC "-//W3C//DTD SVG 20010904//EN"
 "http://www.w3.org/TR/2001/REC-SVG-20010904/DTD/svg10.dtd">
<svg version="1.0" xmlns="http://www.w3.org/2000/svg"
 width="2048.000000pt" height="808.000000pt" viewBox="0 0 2048.000000 808.000000"
 preserveAspectRatio="xMidYMid meet">

<g transform="translate(0.000000,808.000000) scale(0.100000,-0.100000)"
fill="#f97316" stroke="none">
<path d="M10735 7512 c-238 -127 -639 -502 -1494 -1397 -563 -590 -1519 -1555
-1903 -1922 l-247 -236 -148 2 c-175 2 -458 23 -708 52 -217 25 -300 22 -370
-14 -99 -51 -158 -138 -180 -266 -16 -88 -10 -105 41 -121 55 -18 280 -7 470
24 228 37 379 55 528 63 l129 6 -129 -119 c-225 -210 -895 -811 -1190 -1070
-573 -502 -965 -818 -1364 -1101 -170 -120 -409 -283 -416 -283 -2 0 -4 7 -4
16 0 29 -39 82 -76 103 -26 15 -33 25 -27 34 6 6 6 23 2 37 -7 24 -7 24 -8 -5
-1 -26 -7 -33 -46 -48 -44 -19 -59 -37 -30 -37 8 0 38 -22 66 -49 41 -40 50
-54 47 -77 -2 -23 -9 -30 -33 -35 -16 -4 -23 -7 -15 -8 22 -2 8 -11 -195 -131
-506 -299 -936 -482 -1319 -562 -143 -30 -163 -32 -376 -33 -182 0 -241 3
-308 18 -382 84 -589 277 -679 633 -27 104 -28 120 -28 349 0 257 6 313 65
576 54 238 147 536 258 819 320 825 651 1383 1137 1920 423 467 1004 920 1493
1164 337 168 622 246 902 246 224 0 355 -46 475 -167 76 -75 141 -201 182
-348 26 -94 28 -112 27 -295 0 -179 -2 -203 -27 -293 -60 -224 -122 -348 -415
-828 -191 -313 -197 -327 -124 -315 72 11 225 136 338 277 230 288 472 828
534 1197 33 191 30 404 -6 517 -89 275 -338 423 -767 454 -217 16 -431 -4
-682 -64 -460 -111 -948 -346 -1470 -708 -829 -575 -1494 -1296 -1974 -2139
-473 -832 -634 -1700 -430 -2322 156 -477 536 -773 1124 -875 280 -48 401 -53
620 -25 726 91 1674 575 2905 1482 202 149 753 585 936 741 55 47 127 109 159
136 340 287 915 809 1245 1131 l65 63 565 15 c310 8 566 13 568 12 1 -2 -27
-66 -64 -142 -434 -908 -654 -1667 -656 -2264 -1 -327 58 -492 200 -562 44
-22 58 -23 222 -22 161 0 182 2 264 27 49 15 120 41 159 57 180 77 327 219
327 315 0 48 -61 27 -160 -55 -172 -141 -296 -185 -411 -145 -108 39 -163 147
-175 350 -22 358 170 945 621 1895 87 184 249 506 260 518 1 1 94 9 206 17
712 52 1169 128 1169 196 0 50 -133 58 -748 46 -270 -6 -495 -8 -498 -5 -3 4
5 23 18 45 13 21 44 76 68 123 24 47 84 162 132 255 49 94 187 368 307 610
473 956 636 1207 957 1470 85 71 106 94 136 152 60 115 139 386 173 594 19
120 20 268 1 314 -29 67 -96 73 -201 17z m-881 -1334 c-15 -24 -48 -74 -74
-113 -96 -143 -807 -1304 -976 -1595 -121 -207 -237 -414 -266 -474 l-23 -49
-185 7 c-102 3 -338 6 -525 6 l-340 1 100 96 c200 192 945 891 1724 1618 195
182 404 378 465 437 61 59 114 107 119 108 4 0 -5 -19 -19 -42z m-6164 -4951
c25 -19 50 -60 50 -81 0 -20 -27 -56 -42 -56 -4 0 -8 8 -8 18 0 25 -42 80 -86
111 l-36 26 28 11 c29 12 47 7 94 -29z"/>
<path d="M16234 7494 c-7 -31 -20 -43 -74 -76 -156 -95 -381 -285 -531 -450
-208 -229 -432 -520 -573 -741 l-79 -125 -61 -12 c-145 -28 -316 -100 -316
-134 0 -13 103 -26 218 -26 28 0 52 -3 52 -7 0 -3 -20 -40 -44 -82 -151 -263
-315 -609 -381 -804 -54 -160 -58 -215 -19 -273 35 -51 51 -62 158 -106 117
-48 126 -48 126 0 0 54 26 211 56 332 62 254 139 459 276 738 l101 204 116 -6
c64 -3 217 -11 341 -16 124 -6 242 -13 264 -16 l38 -6 -6 -72 c-4 -39 -13
-123 -21 -186 -25 -202 -35 -378 -35 -620 0 -265 -5 -248 80 -297 71 -42 335
-114 360 -98 6 4 10 129 10 346 0 187 5 384 10 437 6 53 15 142 20 197 63 618
222 1273 401 1655 l31 65 -34 28 c-75 64 -377 187 -459 187 -9 0 -19 -14 -25
-36z m-86 -461 c-5 -32 -33 -159 -63 -283 -29 -124 -70 -299 -90 -390 -20 -91
-38 -170 -40 -176 -2 -7 -63 -13 -167 -18 -89 -4 -239 -11 -333 -15 -93 -5
-172 -7 -174 -5 -9 8 209 320 312 449 129 161 329 355 449 435 49 33 95 60
102 60 10 0 11 -13 4 -57z"/>
<path d="M18514 7470 c-51 -5 -148 -20 -217 -34 -315 -64 -574 -191 -735 -360
-90 -95 -117 -150 -117 -238 0 -60 3 -70 29 -97 49 -51 139 -65 218 -34 78 30
233 142 217 157 -2 2 -23 1 -47 -4 -23 -4 -45 -4 -47 1 -9 14 55 78 129 127
76 51 173 95 313 143 265 91 643 103 866 28 203 -68 358 -197 432 -359 25 -56
30 -80 33 -170 4 -94 1 -114 -22 -184 -131 -389 -671 -861 -1221 -1066 -248
-92 -575 -146 -670 -110 -23 9 -25 12 -14 32 24 46 197 320 367 583 281 433
366 563 563 860 102 154 198 301 213 327 l27 47 -23 14 c-39 25 -85 29 -193
17 -91 -11 -107 -16 -128 -39 -43 -47 -432 -609 -717 -1036 -329 -493 -441
-698 -462 -841 -14 -100 -6 -124 66 -192 47 -44 59 -51 123 -62 93 -17 425 -8
548 15 250 46 508 132 731 245 481 243 837 563 1023 920 90 173 133 342 134
520 1 185 -53 324 -174 455 -209 223 -514 331 -959 340 -107 2 -236 0 -286 -5z"/>
<path d="M12660 7423 c-25 -8 -138 -73 -251 -144 -222 -139 -294 -172 -368
-167 -44 3 -46 4 -49 36 -5 47 -40 43 -99 -10 -55 -51 -73 -90 -73 -158 0
-125 75 -200 199 -200 99 0 175 34 334 150 19 14 19 13 9 -5 -6 -11 -116 -177
-244 -370 l-233 -350 -90 -5 c-102 -6 -140 -21 -180 -74 -37 -49 -49 -99 -33
-134 11 -23 22 -28 71 -36 35 -6 56 -14 54 -20 -3 -6 -141 -215 -307 -465
-166 -249 -313 -477 -327 -507 -23 -50 -23 -55 -8 -83 8 -17 27 -38 41 -47 24
-16 28 -16 62 1 23 11 64 19 108 21 124 4 111 -12 425 487 237 375 292 462
296 466 1 3 27 -6 55 -20 101 -46 413 -267 701 -496 271 -216 541 -395 655
-435 70 -25 166 -27 210 -4 17 9 50 44 74 79 45 66 108 200 108 230 0 30 -27
30 -65 2 -41 -32 -68 -31 -164 8 -136 55 -346 194 -759 502 -152 114 -415 295
-508 352 -17 10 -16 13 21 28 149 63 634 311 970 497 356 196 865 545 978 671
39 44 3 109 -82 146 -64 27 -203 49 -209 32 -8 -24 -303 -229 -557 -386 -377
-233 -572 -351 -720 -433 -206 -114 -310 -169 -313 -167 -2 2 28 52 66 112 38
59 122 191 187 293 65 102 158 245 207 319 48 74 88 141 88 148 0 50 -67 116
-142 138 -63 18 -81 18 -138 -2z"/>
<path d="M7632 7120 c-274 -27 -567 -109 -857 -242 -489 -223 -745 -481 -749
-753 -1 -70 3 -88 31 -147 38 -81 96 -141 190 -197 98 -58 221 -100 500 -171
461 -116 603 -180 603 -270 0 -119 -348 -329 -687 -414 -153 -38 -246 -49
-403 -49 -162 1 -271 19 -362 60 -79 35 -94 54 -80 99 14 46 -2 53 -64 29
-101 -38 -161 -126 -151 -221 14 -135 147 -252 328 -290 131 -27 472 -17 699
21 488 83 896 318 1033 595 30 60 32 72 32 165 0 86 -3 106 -24 145 -65 123
-137 188 -306 273 -125 64 -222 98 -505 177 -293 82 -380 116 -432 167 -71 69
-46 131 100 253 248 207 622 389 922 450 108 21 230 36 230 27 0 -3 -16 -28
-35 -57 -39 -58 -41 -68 -21 -95 12 -16 18 -17 59 -7 25 7 76 12 112 12 102 0
253 19 325 40 112 33 179 111 180 207 0 83 -80 138 -255 174 -110 23 -288 31
-413 19z"/>
<path d="M19500 5118 c-26 -31 -521 -856 -533 -891 -6 -17 23 -57 42 -57 5 0
19 12 31 28 19 23 222 360 467 776 l77 129 -23 18 c-30 24 -37 24 -61 -3z"/>
<path d="M2510 4943 c-1 -4 -43 -55 -96 -113 -122 -136 -159 -205 -158 -304 0
-68 25 -143 53 -161 6 -3 -2 16 -17 42 -33 59 -36 153 -8 226 29 76 224 306
247 292 7 -5 10 -3 7 5 -5 16 -28 26 -28 13z"/>
<path d="M2531 4877 c0 -10 -17 -56 -36 -103 -35 -83 -46 -171 -27 -201 4 -7
6 15 4 50 -3 54 1 74 33 150 20 49 34 96 32 105 -4 15 -5 15 -6 -1z"/>
<path d="M3777 4869 c-10 -13 -16 -40 -16 -64 l2 -40 6 47 c8 57 18 69 37 44
8 -11 14 -15 14 -10 0 6 -6 18 -13 29 -13 17 -15 17 -30 -6z"/>
<path d="M3820 4823 c0 -6 21 -39 48 -74 26 -35 59 -84 74 -109 15 -25 28 -40
28 -33 0 6 -20 40 -45 75 -25 35 -59 83 -75 107 -17 25 -30 40 -30 34z"/>
<path d="M3781 4735 c0 -5 6 -21 14 -35 8 -14 14 -20 14 -15 0 6 -6 21 -14 35
-8 14 -14 21 -14 15z"/>
<path d="M3254 4684 c-18 -14 -18 -15 3 -5 16 8 23 8 26 -2 4 -9 6 -9 6 0 2
20 -15 23 -35 7z"/>
<path d="M2368 4667 c-60 -64 -52 -199 16 -268 44 -46 116 -89 145 -88 19 0
12 5 -22 15 -69 21 -140 93 -161 163 -17 57 -15 82 11 144 17 39 33 49 33 19
0 -33 51 -122 83 -144 l32 -21 -36 39 c-45 48 -58 73 -68 127 l-7 42 -26 -28z"/>
<path d="M3076 4663 c9 -38 14 -42 14 -10 0 14 -5 29 -10 32 -7 4 -8 -3 -4
-22z"/>
<path d="M3893 4649 c37 -59 29 -130 -21 -182 -23 -25 -90 -53 -100 -42 -3 2
7 18 22 35 14 17 26 37 26 43 0 7 -8 -1 -19 -18 -34 -55 -50 -63 -137 -66 -80
-3 -82 -3 -119 30 -32 27 -44 32 -71 28 -26 -4 -34 -2 -39 13 -5 17 -66 70
-80 70 -10 0 1 -25 11 -25 24 -1 53 -28 59 -54 6 -27 8 -28 35 -18 21 8 35 8
54 -1 37 -16 86 -98 86 -141 0 -20 4 -41 8 -47 12 -19 54 -28 115 -25 143 6
258 110 255 231 -1 45 -1 45 -8 -12 -12 -90 -63 -154 -154 -192 -52 -21 -169
-22 -190 0 -27 26 -19 30 57 26 66 -4 77 -1 137 30 74 38 113 91 129 173 9 45
8 55 -18 104 -15 30 -33 57 -40 59 -10 3 -9 -2 2 -19z m47 -110 c0 -131 -105
-229 -245 -229 -33 0 -64 4 -70 8 -15 11 -36 75 -27 83 4 4 55 9 113 11 95 3
110 6 146 30 46 30 77 87 71 129 -3 15 -1 26 4 23 4 -3 8 -28 8 -55z"/>
<path d="M3170 4656 c0 -2 15 -6 34 -8 19 -2 32 0 30 4 -5 8 -64 12 -64 4z"/>
<path d="M3262 4647 c-6 -7 -7 -19 -3 -26 6 -9 10 -5 13 13 6 30 5 31 -10 13z"/>
<path d="M3033 4633 c9 -2 23 -2 30 0 6 3 -1 5 -18 5 -16 0 -22 -2 -12 -5z"/>
<path d="M3114 4624 c-18 -14 -18 -15 4 -4 12 6 22 13 22 15 0 8 -5 6 -26 -11z"/>
<path d="M3823 4580 c0 -36 2 -50 4 -32 2 17 2 47 0 65 -2 17 -4 3 -4 -33z"/>
<path d="M2986 4608 c-15 -20 -19 -21 -51 -9 -44 16 -55 9 -55 -35 l0 -34 -57
0 c-46 0 -71 -7 -117 -31 -50 -27 -66 -30 -105 -25 -25 3 -59 16 -76 28 -16
12 -24 15 -18 6 7 -8 10 -17 7 -20 -3 -3 9 -11 27 -17 37 -13 153 -15 145 -3
-3 5 17 19 44 32 37 17 60 22 94 18 53 -6 69 7 68 53 -1 27 2 30 21 24 57 -18
64 -17 81 9 20 32 13 35 -8 4z"/>
<path d="M19885 4524 c-99 -53 -243 -129 -320 -170 -401 -211 -490 -261 -493
-278 -4 -21 25 -56 46 -56 8 0 92 41 186 91 94 51 236 127 316 169 80 43 224
120 320 172 140 75 176 98 178 116 4 27 -14 52 -37 52 -9 0 -97 -43 -196 -96z"/>
<path d="M3282 4604 c3 -3 29 -5 58 -6 42 0 50 -3 45 -15 -4 -13 -3 -14 10 -3
25 21 7 30 -57 30 -34 0 -59 -3 -56 -6z"/>
<path d="M3971 4590 c0 -3 8 -32 19 -65 12 -33 18 -46 16 -29 -5 29 -33 106
-35 94z"/>
<path d="M2385 4530 c3 -19 17 -52 32 -72 26 -39 89 -85 100 -74 4 3 1 6 -6 6
-26 0 -101 83 -116 129 -13 38 -14 40 -10 11z"/>
<path d="M2918 4513 c18 -2 45 -2 60 0 15 2 0 4 -33 4 -33 0 -45 -2 -27 -4z"/>
<path d="M3069 4473 c15 -30 22 -32 51 -16 l25 15 -25 -6 c-15 -3 -31 1 -44
12 -18 16 -18 16 -7 -5z"/>
<path d="M3304 4458 c-4 -6 -3 -8 3 -5 6 4 35 0 64 -7 70 -19 76 -12 8 8 -63
19 -66 19 -75 4z"/>
<path d="M2721 4441 c13 -11 26 -17 29 -14 6 6 -30 33 -43 33 -5 0 1 -9 14
-19z"/>
<path d="M3203 4433 c14 -16 32 -43 40 -62 10 -24 17 -30 22 -20 5 7 4 14 -3
17 -7 2 -12 9 -12 16 0 13 -55 76 -66 76 -4 0 4 -12 19 -27z"/>
<path d="M4002 4425 c0 -16 2 -22 5 -12 2 9 2 23 0 30 -3 6 -5 -1 -5 -18z"/>
<path d="M3285 4410 c-10 -11 -16 -23 -12 -26 3 -3 11 4 17 16 l12 22 29 -28
c34 -32 39 -25 7 11 -26 30 -30 31 -53 5z"/>
<path d="M2730 4390 c-13 -8 -12 -10 3 -10 9 0 17 5 17 10 0 12 -1 12 -20 0z"/>
<path d="M2548 4368 c23 -9 134 -9 149 0 6 4 -29 7 -78 7 -48 0 -81 -3 -71 -7z"/>
<path d="M2680 4339 c-30 -10 -71 -23 -90 -28 -33 -10 -33 -10 10 -4 25 3 66
13 93 23 40 15 47 16 47 4 0 -25 -26 -68 -62 -100 -33 -30 -38 -31 -144 -36
-62 -2 -118 -10 -129 -17 -19 -11 -18 -12 5 -6 14 4 76 9 137 12 l113 6 -16
-32 c-9 -18 -13 -35 -10 -38 3 -4 11 8 17 25 7 20 21 34 40 41 16 5 29 12 29
15 0 3 -12 1 -26 -5 -15 -5 -29 -7 -31 -5 -8 7 7 26 20 26 16 0 67 92 67 119
0 24 2 24 -70 0z"/>
<path d="M3976 4343 c-6 -14 -5 -15 5 -6 7 7 10 15 7 18 -3 3 -9 -2 -12 -12z"/>
<path d="M2355 4316 c53 -47 121 -83 170 -90 l40 -6 -45 13 c-57 17 -82 30
-150 79 -54 39 -55 39 -15 4z"/>
<path d="M3929 4284 c-37 -39 -105 -77 -157 -89 -25 -5 -38 -2 -54 12 -12 10
-19 14 -16 8 2 -5 12 -27 21 -48 23 -49 34 -152 18 -171 -6 -7 -9 -20 -5 -29
3 -8 -4 -33 -15 -55 -18 -35 -18 -41 -5 -46 21 -8 138 10 161 24 17 11 16 11
-2 4 -27 -10 -155 -18 -155 -10 0 4 7 20 14 35 8 15 18 51 22 79 6 46 9 52 31
52 34 0 93 -27 128 -58 l30 -27 -25 29 c-29 33 -93 65 -131 66 -19 0 -28 6
-33 23 -12 46 -9 50 35 44 62 -8 130 -54 157 -107 12 -24 22 -37 22 -29 0 47
-120 149 -175 149 -12 0 -30 6 -41 14 -19 14 -19 15 1 22 93 32 186 89 206
126 14 26 7 22 -32 -18z"/>
<path d="M2871 4293 c-14 -10 -47 -29 -75 -43 -40 -21 -52 -33 -59 -60 -9 -35
-5 -144 8 -195 13 -53 94 -121 111 -94 3 5 -3 9 -14 9 -61 0 -107 100 -100
219 4 78 21 106 70 116 39 9 46 0 20 -28 -30 -32 -42 -71 -41 -130 2 -52 2
-52 9 14 9 96 33 125 107 133 71 7 121 -4 176 -39 l42 -26 -35 30 c-44 38 -86
51 -172 51 -71 0 -83 9 -46 34 31 22 77 20 118 -6 37 -23 96 -35 85 -18 -3 6
-18 10 -32 10 -15 0 -34 7 -44 16 -28 25 -99 29 -128 7z"/>
<path d="M3224 4253 c71 -2 135 -8 142 -14 8 -6 14 -6 18 -1 11 18 -24 22
-157 20 l-132 -2 129 -3z"/>
<path d="M3435 4251 c-28 -5 -11 -7 55 -8 52 0 109 -6 125 -13 22 -8 27 -8 19
0 -25 26 -113 35 -199 21z"/>
<path d="M3094 4225 c11 -8 22 -12 25 -9 6 6 -19 24 -34 24 -5 -1 -1 -7 9 -15z"/>
<path d="M2944 4218 c11 -7 35 -26 53 -42 l35 -30 -39 -15 c-57 -24 -63 -29
-63 -61 0 -27 22 -60 40 -60 5 0 17 -2 27 -6 10 -3 2 3 -17 13 -29 15 -35 23
-35 52 0 31 3 35 47 49 53 17 78 7 78 -31 0 -21 0 -21 16 -1 14 18 15 18 8 -6
-20 -75 -49 -100 -114 -100 -61 0 -92 34 -88 98 3 45 5 48 48 70 37 19 39 22
15 17 -49 -11 -75 -42 -75 -93 0 -60 40 -102 100 -102 64 0 96 22 114 78 41
121 225 175 295 86 12 -16 22 -21 26 -14 4 6 5 12 4 14 -66 48 -120 64 -181
52 -18 -3 -57 -24 -86 -46 l-52 -40 -63 54 c-35 29 -74 58 -88 65 -20 10 -21
9 -5 -1z"/>
<path d="M3149 4209 l-24 -20 25 13 c14 7 62 13 112 13 48 0 80 3 70 7 -9 4
-49 7 -88 7 -59 1 -76 -3 -95 -20z"/>
<path d="M3468 4213 c-15 -10 -30 -24 -33 -32 -4 -9 4 -6 18 7 13 13 34 24 45
25 11 0 18 5 16 9 -7 11 -15 10 -46 -9z"/>
<path d="M16283 4170 c-132 -89 -281 -225 -667 -608 -407 -405 -663 -672 -871
-907 -83 -93 -172 -192 -198 -220 l-49 -50 25 45 c14 25 49 90 79 145 213 391
401 732 627 1133 128 227 214 400 208 416 -3 7 -29 25 -58 40 -63 31 -179 37
-217 11 -16 -12 -27 -13 -41 -5 -71 38 -159 -18 -386 -245 -255 -254 -572
-631 -946 -1125 -349 -460 -816 -1144 -904 -1325 -23 -46 -25 -58 -16 -92 6
-22 21 -49 34 -62 34 -31 119 -61 193 -68 62 -6 64 -5 79 23 279 508 550 927
909 1404 186 247 516 652 635 780 48 51 50 52 35 20 -9 -19 -43 -80 -74 -135
-161 -279 -648 -1233 -725 -1418 -19 -47 -35 -100 -35 -117 0 -78 69 -141 161
-148 52 -4 65 -1 102 23 48 31 562 544 932 930 429 449 828 859 850 875 11 8
-1 -15 -27 -50 -415 -573 -890 -1314 -974 -1520 -91 -225 102 -409 338 -320
149 56 529 367 647 530 29 41 32 49 26 95 -12 91 -37 220 -44 228 -4 4 -86
-70 -182 -166 -121 -121 -200 -191 -260 -230 -86 -57 -145 -85 -156 -73 -6 6
105 206 205 366 206 329 597 888 1075 1533 81 109 152 207 157 217 8 15 5 26
-18 51 -26 29 -36 32 -108 39 -43 4 -112 15 -152 24 -40 9 -84 16 -97 16 -13
0 -63 -27 -112 -60z"/>
<path d="M3380 4210 c20 -13 33 -13 25 0 -3 6 -14 10 -23 10 -15 0 -15 -2 -2
-10z"/>
<path d="M3670 4195 c27 -29 37 -27 20 4 -6 12 -18 21 -27 21 -13 0 -12 -5 7
-25z"/>
<path d="M3490 4144 c-36 -30 -67 -62 -69 -72 -2 -12 3 -10 17 8 18 22 22 23
46 12 22 -10 27 -18 24 -40 -2 -21 -11 -30 -38 -38 -33 -11 -35 -11 -41 15
l-7 26 -1 -27 c-2 -45 55 -88 75 -56 5 7 0 9 -14 6 -12 -4 -26 0 -33 8 -9 11
-8 14 8 14 60 0 87 77 36 104 -24 12 -26 15 -10 21 25 10 65 -20 70 -52 l4
-28 2 27 c1 26 -16 52 -41 61 -18 6 20 47 43 47 28 0 51 -43 49 -92 -5 -119
-1 -145 22 -151 30 -8 67 17 84 58 16 40 18 59 4 50 -5 -3 -10 -16 -10 -29 0
-28 -39 -66 -68 -66 -21 0 -22 4 -22 92 0 79 -3 96 -22 125 -13 18 -27 33 -33
32 -5 0 -39 -25 -75 -55z"/>
<path d="M18220 4165 c-312 -37 -610 -129 -921 -286 -429 -215 -670 -489 -645
-734 9 -95 63 -194 141 -258 117 -97 226 -139 610 -237 278 -71 396 -109 478
-152 126 -67 128 -133 9 -235 -254 -217 -720 -359 -1089 -332 -149 11 -317 60
-353 104 -11 13 -10 22 3 55 l15 40 -29 0 c-66 0 -146 -55 -181 -124 -45 -87
-22 -189 64 -282 51 -56 87 -77 168 -103 111 -34 211 -44 380 -37 372 17 603
63 870 175 264 111 469 280 552 457 30 64 33 77 33 169 0 90 -3 106 -29 159
-41 83 -134 170 -248 234 -136 75 -217 106 -468 178 -404 116 -486 148 -534
204 -17 21 -26 43 -26 67 0 31 9 45 68 102 278 273 786 512 1142 538 l85 6
-21 -24 c-39 -44 -53 -80 -42 -112 9 -25 14 -28 42 -23 17 3 103 10 191 15
184 12 250 23 320 58 63 31 82 48 107 98 31 59 29 137 -2 171 -34 36 -84 60
-176 83 -162 42 -318 49 -514 26z"/>
<path d="M2330 4150 c-19 -10 -51 -36 -70 -57 l-35 -38 35 32 c19 17 55 43 80
57 51 29 43 35 -10 6z"/>
<path d="M3663 4140 c-18 -11 -33 -22 -33 -26 0 -3 16 4 36 15 19 12 40 18 46
15 7 -4 8 -2 4 4 -10 16 -16 15 -53 -8z"/>
<path d="M2702 4110 c0 -14 2 -19 5 -12 2 6 2 18 0 25 -3 6 -5 1 -5 -13z"/>
<path d="M3722 4100 c0 -19 2 -27 5 -17 2 9 2 25 0 35 -3 9 -5 1 -5 -18z"/>
<path d="M2640 4098 c0 -9 8 -30 17 -46 21 -36 13 -48 -55 -88 -37 -22 -65
-29 -137 -35 l-90 -7 92 2 c86 2 92 1 96 -18 3 -16 5 -14 6 7 0 15 5 27 10 27
5 0 30 16 56 36 46 35 47 35 73 18 25 -16 24 -14 -7 21 -18 21 -39 52 -47 69
-7 17 -13 23 -14 14z"/>
<path d="M3230 4103 c-36 -14 -76 -51 -126 -119 l-54 -73 -58 -4 -57 -3 62 -2
63 -2 27 43 c77 120 126 157 208 157 38 0 52 -5 76 -29 16 -16 29 -24 29 -18
0 7 -15 22 -33 35 -32 21 -99 29 -137 15z"/>
<path d="M2335 4086 c-16 -7 -49 -29 -72 -49 -42 -35 -42 -35 -20 -49 40 -26
52 -30 24 -8 -27 21 -27 23 -11 42 28 31 80 58 126 67 35 7 37 9 13 10 -16 0
-43 -6 -60 -13z"/>
<path d="M2463 4093 c9 -2 23 -2 30 0 6 3 -1 5 -18 5 -16 0 -22 -2 -12 -5z"/>
<path d="M3680 4093 c0 -5 5 -15 10 -23 8 -12 10 -11 10 8 0 12 -4 22 -10 22
-5 0 -10 -3 -10 -7z"/>
<path d="M12100 4089 c-387 -33 -935 -218 -1175 -396 -233 -173 -302 -335
-194 -457 53 -60 100 -72 197 -52 109 23 252 112 252 157 0 23 -16 24 -63 4
-42 -17 -87 -20 -87 -5 0 19 90 108 146 145 173 115 519 240 831 301 326 63
703 14 818 -106 175 -183 -481 -701 -1031 -815 -42 -9 -79 -14 -81 -11 -2 2
103 156 233 342 248 355 284 412 284 451 0 65 -74 133 -146 133 -54 0 -123
-45 -184 -121 -90 -113 -577 -815 -914 -1319 -242 -362 -315 -487 -341 -585
-18 -71 -13 -104 21 -136 23 -22 34 -24 122 -24 145 0 142 -2 256 197 178 311
454 744 466 731 4 -4 69 -91 145 -193 318 -425 509 -658 633 -769 79 -72 167
-119 239 -128 77 -9 141 26 237 128 96 102 99 123 16 99 -29 -8 -43 -6 -86 15
-116 57 -256 201 -555 575 -91 113 -188 234 -217 269 -28 36 -50 67 -47 69 3
3 53 17 112 32 233 59 539 193 729 319 189 127 310 249 382 389 105 204 79
374 -83 538 -113 115 -278 184 -510 213 -127 16 -291 20 -405 10z"/>
<path d="M2518 4083 c6 -2 18 -2 25 0 6 3 1 5 -13 5 -14 0 -19 -2 -12 -5z"/>
<path d="M2578 4073 c12 -2 30 -2 40 0 9 3 -1 5 -23 4 -22 0 -30 -2 -17 -4z"/>
<path d="M3651 4066 c-7 -8 -8 -17 -3 -20 6 -3 13 1 16 10 9 23 2 28 -13 10z"/>
<path d="M3233 4050 c-18 -10 -60 -58 -95 -106 -35 -47 -78 -105 -97 -128 -25
-31 -22 -29 17 11 27 29 71 84 97 124 53 78 93 109 144 109 28 0 44 -11 109
-77 43 -45 77 -73 79 -65 3 6 11 12 18 12 7 0 23 9 36 20 l24 20 -36 -16 c-50
-23 -80 -13 -120 40 -59 77 -114 94 -176 56z"/>
<path d="M3025 4050 c-13 -6 -15 -9 -5 -9 8 0 22 4 30 9 18 12 2 12 -25 0z"/>
<path d="M3685 4029 c-4 -5 -19 -15 -33 -21 -18 -7 -22 -12 -13 -15 7 -3 25 6
39 21 15 14 24 26 20 26 -4 0 -10 -5 -13 -11z"/>
<path d="M3554 4016 c-4 -10 -16 -22 -28 -26 -19 -8 -18 -9 6 -7 18 1 29 8 32
21 7 26 -1 35 -10 12z"/>
<path d="M2817 3985 c12 -22 52 -61 56 -54 1 2 -13 20 -32 39 -19 19 -29 26
-24 15z"/>
<path d="M3945 3949 c3 -4 -7 -17 -22 -29 l-28 -22 35 21 c38 22 49 38 26 38
-8 0 -13 -4 -11 -8z"/>
<path d="M2330 3940 c8 -5 22 -9 30 -9 10 0 8 3 -5 9 -27 12 -43 12 -25 0z"/>
<path d="M2725 3927 c-28 -32 -23 -117 6 -117 10 0 19 -7 19 -15 0 -9 -6 -12
-15 -9 -8 4 -15 2 -15 -3 0 -15 89 -109 90 -94 0 7 -12 22 -26 34 -25 19 -27
34 -13 87 2 8 -3 15 -11 16 -8 0 -21 2 -27 2 -17 2 -16 30 2 81 8 22 13 41 12
41 -1 0 -11 -11 -22 -23z"/>
<path d="M2898 3923 c7 -3 16 -2 19 1 4 3 -2 6 -13 5 -11 0 -14 -3 -6 -6z"/>
<path d="M3325 3893 c77 -2 150 -5 162 -8 31 -7 53 -44 62 -102 5 -34 8 -42
13 -27 7 28 -15 90 -43 120 -22 24 -25 24 -178 22 l-156 -2 140 -3z"/>
<path d="M3134 3878 c-4 -7 -14 -24 -22 -38 l-14 -25 22 25 c12 14 29 31 38
38 15 11 15 12 0 12 -9 0 -20 -6 -24 -12z"/>
<path d="M2493 3840 c-98 -62 -95 -94 19 -210 106 -109 281 -222 423 -275 97
-36 115 -46 130 -75 8 -14 14 -20 15 -13 1 28 -49 64 -128 93 -161 57 -339
174 -450 295 -65 72 -82 109 -59 133 13 12 16 11 22 -9 21 -66 203 -225 340
-298 65 -35 64 -34 -69 54 -106 69 -230 184 -257 236 -16 33 -17 39 -3 49 8 7
17 10 21 6 3 -3 12 3 20 14 8 11 21 20 29 20 8 0 14 5 14 10 0 14 3 15 -67
-30z"/>
<path d="M3605 3873 c11 -2 30 -6 43 -9 27 -6 51 -56 53 -111 1 -28 3 -31 6
-13 3 14 -1 48 -7 76 -11 46 -16 53 -43 58 -16 3 -39 5 -51 5 -20 -1 -20 -2
-1 -6z"/>
<path d="M2554 3811 c8 -52 35 -104 78 -153 37 -42 188 -134 188 -115 0 6 -25
23 -55 36 -32 13 -57 31 -61 43 -3 11 -12 17 -19 14 -16 -6 -57 37 -54 55 4
21 -11 59 -23 59 -7 0 -6 -5 2 -15 6 -8 10 -20 8 -27 -7 -20 -48 67 -48 101 0
16 -5 33 -12 37 -8 5 -9 -5 -4 -35z"/>
<path d="M3156 3821 c-10 -11 -16 -29 -13 -43 4 -21 4 -21 6 4 2 51 61 55 95
6 9 -12 16 -17 16 -11 0 14 -57 63 -74 63 -7 0 -21 -9 -30 -19z"/>
<path d="M3500 3810 c-8 -5 -10 -10 -5 -10 6 0 17 5 25 10 8 5 11 10 5 10 -5
0 -17 -5 -25 -10z"/>
<path d="M3092 3780 c-2 -35 12 -60 32 -60 5 0 2 6 -7 13 -9 6 -18 28 -20 47
l-4 35 -1 -35z"/>
<path d="M3471 3777 c-6 -6 -11 -15 -11 -21 0 -5 6 -2 13 9 10 12 16 14 21 7
4 -7 14 -12 22 -12 8 0 13 4 10 9 -9 14 -44 19 -55 8z"/>
<path d="M2900 3765 c-10 -12 -10 -24 0 -60 7 -25 17 -48 23 -52 7 -4 8 1 3
13 -34 84 -29 102 32 107 l47 3 -46 2 c-31 1 -51 -3 -59 -13z"/>
<path d="M2985 3677 c73 -81 106 -101 151 -94 26 4 26 4 -6 6 -45 2 -76 23
-134 91 -26 30 -54 59 -64 64 -9 5 15 -25 53 -67z"/>
<path d="M3170 3743 c0 -17 35 -43 58 -43 20 0 41 35 28 47 -3 4 -6 -1 -6 -11
0 -27 -29 -30 -56 -6 -13 13 -24 19 -24 13z"/>
<path d="M3205 3740 c3 -5 11 -10 16 -10 6 0 7 5 4 10 -3 6 -11 10 -16 10 -6
0 -7 -4 -4 -10z"/>
<path d="M3486 3734 c-5 -13 -9 -14 -21 -4 -13 11 -14 10 -9 -4 8 -20 33 -21
41 -1 3 9 3 18 0 21 -2 3 -7 -3 -11 -12z"/>
<path d="M2795 3730 c3 -5 10 -10 16 -10 5 0 9 5 9 10 0 6 -7 10 -16 10 -8 0
-12 -4 -9 -10z"/>
<path d="M3563 3695 c0 -22 2 -30 4 -17 2 12 2 30 0 40 -3 9 -5 -1 -4 -23z"/>
<path d="M2402 3685 c0 -16 2 -22 5 -12 2 9 2 23 0 30 -3 6 -5 -1 -5 -18z"/>
<path d="M3682 3678 c-17 -47 -79 -129 -131 -172 -50 -42 -65 -45 -56 -13 3
12 -3 7 -14 -13 -27 -49 -53 -70 -113 -91 -29 -10 -44 -18 -33 -19 45 0 226
118 281 184 62 75 76 34 20 -61 -63 -107 -182 -191 -289 -204 l-62 -8 67 3
c37 1 69 -1 71 -4 2 -3 2 0 1 7 -2 6 4 14 13 17 8 4 44 25 78 47 59 38 107 92
147 163 16 28 17 29 18 8 0 -43 -35 -107 -132 -237 l-22 -30 23 20 c26 23 112
148 132 194 15 34 21 37 41 18 7 -8 18 -12 25 -10 6 2 18 -5 25 -16 8 -12 18
-18 21 -15 3 4 32 -18 65 -47 l59 -54 -63 62 c-35 34 -86 74 -113 88 -47 23
-50 28 -61 79 -9 46 -9 60 5 86 9 17 15 36 13 41 -2 6 -9 -5 -16 -23z"/>
<path d="M2820 3680 c0 -11 7 -20 15 -20 17 0 18 2 9 24 -9 23 -24 20 -24 -4z"/>
<path d="M2874 3641 c10 -11 30 -24 46 -29 25 -9 27 -8 23 9 -4 14 -9 16 -17
10 -8 -7 -17 -4 -29 9 -9 11 -22 20 -28 20 -7 0 -5 -8 5 -19z"/>
<path d="M3556 3615 c-11 -42 -42 -49 -158 -38 -57 5 -132 7 -168 3 -61 -7
-58 -7 40 -9 58 0 135 -4 173 -8 62 -5 67 -8 62 -27 -4 -17 -3 -16 7 3 7 14
23 35 35 47 13 13 23 30 23 39 0 23 -7 18 -14 -10z"/>
<path d="M2376 3623 c-8 -9 147 -156 228 -216 92 -69 225 -148 304 -181 69
-29 173 -58 180 -51 3 3 0 5 -6 5 -7 0 -13 17 -14 38 -1 36 -1 36 -5 5 -3 -19
-10 -33 -18 -33 -32 0 -200 73 -287 125 -133 79 -212 141 -300 233 -42 44 -79
78 -82 75z"/>
<path d="M2330 3588 c-16 -13 -19 -19 -8 -15 13 5 40 -14 95 -66 91 -85 210
-171 343 -250 97 -58 255 -127 287 -127 10 1 -8 10 -39 20 -137 47 -235 102
-422 233 -118 83 -239 195 -232 214 7 17 6 16 -24 -9z"/>
<path d="M2956 3578 c4 -7 21 -32 37 -56 16 -24 27 -45 25 -48 -3 -2 -44 11
-91 30 -48 19 -87 31 -87 27 0 -6 157 -66 175 -66 6 0 15 -5 20 -12 18 -22
132 -72 176 -78 l44 -5 -50 13 c-94 25 -154 65 -203 139 -25 38 -47 68 -49 68
-2 0 -1 -6 3 -12z"/>
<path d="M2215 3526 c-79 -41 -116 -72 -192 -163 -42 -50 -89 -123 -80 -123 3
0 16 19 30 43 34 57 95 113 137 126 l35 11 -32 -5 c-18 -2 -33 -1 -33 4 0 15
68 61 90 61 75 0 183 -129 246 -291 29 -78 52 -99 105 -99 31 0 42 -7 78 -50
41 -49 43 -50 94 -49 l52 2 -53 6 c-47 6 -57 12 -93 54 -31 36 -47 47 -69 47
-56 0 -78 19 -105 90 -50 132 -138 250 -215 290 l-35 18 28 13 c39 18 82 -6
175 -97 39 -40 72 -68 72 -64 0 12 -149 150 -175 162 -29 13 -32 23 -9 32 31
12 99 -39 188 -144 33 -38 36 -40 20 -12 -10 19 -46 59 -80 90 -105 99 -89 95
-179 48z"/>
<path d="M3702 3440 c0 -19 2 -27 5 -17 2 9 2 25 0 35 -3 9 -5 1 -5 -18z"/>
<path d="M3742 3440 c0 -14 2 -19 5 -12 2 6 2 18 0 25 -3 6 -5 1 -5 -13z"/>
<path d="M2890 3435 c14 -8 30 -14 35 -14 6 0 -1 6 -15 14 -14 8 -29 14 -35
14 -5 0 1 -6 15 -14z"/>
<path d="M3792 3410 c0 -14 2 -19 5 -12 2 6 2 18 0 25 -3 6 -5 1 -5 -13z"/>
<path d="M2186 3401 c38 -17 87 -68 128 -133 16 -25 16 -28 1 -55 l-17 -28 20
24 20 24 11 -21 c25 -47 -104 -195 -217 -248 -40 -19 -82 -29 -142 -35 l-85
-7 85 2 c73 2 94 7 153 36 73 36 177 131 198 181 6 16 15 29 19 29 4 0 16 -23
26 -51 10 -28 20 -46 22 -41 5 15 -46 129 -85 191 -57 91 -124 151 -165 151
-7 0 5 -9 28 -19z"/>
<path d="M3000 3395 c19 -9 53 -36 76 -61 40 -45 41 -46 110 -49 l69 -4 -68 9
c-64 8 -71 12 -104 50 -35 40 -80 70 -105 70 -7 -1 3 -7 22 -15z"/>
<path d="M3672 3383 c-6 -15 -13 -38 -17 -50 -6 -21 -64 -80 -115 -116 l-25
-18 25 12 c59 28 109 79 130 135 11 31 19 58 17 61 -3 2 -9 -9 -15 -24z"/>
<path d="M3751 3394 c0 -11 3 -14 6 -6 3 7 2 16 -1 19 -3 4 -6 -2 -5 -13z"/>
<path d="M3711 3390 c0 -8 4 -22 9 -30 12 -18 12 -2 0 25 -6 13 -9 15 -9 5z"/>
<path d="M3802 3358 c-2 -30 -27 -30 -35 0 -4 15 -5 15 -6 0 0 -10 -8 -18 -17
-18 -9 0 -23 -8 -31 -17 -13 -16 -13 -16 -8 7 5 19 4 22 -4 10 -6 -8 -11 -25
-11 -38 0 -36 -75 -109 -149 -143 -36 -17 -77 -36 -91 -42 -32 -16 -90 -93
-90 -121 0 -13 17 -38 39 -59 22 -21 42 -47 44 -60 l4 -22 2 22 c1 15 -13 36
-39 60 -49 46 -50 68 -7 125 25 32 47 48 88 63 73 27 118 56 167 109 22 24 43
42 46 39 3 -3 8 6 12 21 14 57 101 35 115 -30 l7 -29 1 31 c0 17 -5 37 -13 44
-8 6 -17 26 -19 43 -3 29 -4 29 -5 5z"/>
<path d="M3273 3363 c9 -2 23 -2 30 0 6 3 -1 5 -18 5 -16 0 -22 -2 -12 -5z"/>
<path d="M2532 3353 c33 -5 78 -56 78 -88 0 -17 4 -23 15 -19 12 5 12 12 -5
44 -24 46 -55 71 -90 69 -25 -2 -25 -2 2 -6z"/>
<path d="M2466 3329 c-35 -27 -35 -76 -1 -118 33 -39 54 -45 96 -27 l34 14 35
-66 c40 -76 49 -80 160 -79 57 0 62 1 20 4 -138 8 -137 7 -175 84 l-35 69 -37
-15 c-43 -18 -65 -13 -93 22 -27 35 -25 72 7 105 32 33 27 37 -11 7z"/>
<path d="M3945 3293 c15 -24 30 -43 32 -43 7 0 -31 61 -46 73 -8 7 -2 -7 14
-30z"/>
<path d="M3500 3266 c0 -8 4 -17 9 -20 5 -4 7 3 4 14 -6 23 -13 26 -13 6z"/>
<path d="M2580 3250 c-13 -8 -12 -10 3 -10 9 0 17 5 17 10 0 12 -1 12 -20 0z"/>
<path d="M3110 3214 c-4 -35 -1 -51 7 -51 7 0 10 4 8 8 -7 11 44 41 58 33 9
-5 9 -4 1 5 -9 10 -17 9 -37 -4 l-26 -16 -3 38 c-3 36 -4 35 -8 -13z"/>
<path d="M3140 3250 c8 -5 20 -10 25 -10 6 0 3 5 -5 10 -8 5 -19 10 -25 10 -5
0 -3 -5 5 -10z"/>
<path d="M3433 3225 c0 -22 2 -30 4 -17 2 12 2 30 0 40 -3 9 -5 -1 -4 -23z"/>
<path d="M2490 3231 c27 -22 40 -26 40 -12 0 5 -8 11 -17 15 -10 3 -25 9 -33
12 -8 3 -4 -4 10 -15z"/>
<path d="M3260 3243 c42 -2 78 -9 83 -16 6 -8 7 -8 4 3 -3 12 -21 15 -83 16
l-79 0 75 -3z"/>
<path d="M3712 3205 c-1 -27 -6 -55 -10 -62 -4 -6 -32 -25 -62 -40 -39 -21
-69 -47 -102 -91 -43 -56 -48 -69 -47 -110 l2 -47 6 51 c9 71 73 154 147 190
29 14 58 32 64 39 6 8 9 37 7 67 l-3 53 -2 -50z"/>
<path d="M3742 3235 c9 -10 21 -16 28 -13 7 2 -1 10 -16 17 -27 12 -28 11 -12
-4z"/>
<path d="M2701 3183 c24 -32 47 -61 52 -64 5 -4 37 -9 71 -12 33 -3 70 -9 81
-12 18 -6 18 -5 3 5 -10 6 -47 13 -83 17 l-66 6 -45 58 c-58 76 -68 77 -13 2z"/>
<path d="M3800 3230 c-9 -6 -10 -10 -3 -10 6 0 15 5 18 10 8 12 4 12 -15 0z"/>
<path d="M1925 3219 c-4 -6 -5 -12 -2 -15 2 -3 7 2 10 11 7 17 1 20 -8 4z"/>
<path d="M3828 3212 c-7 -27 -52 -30 -80 -5 -10 9 -18 11 -18 5 0 -13 39 -42
56 -42 20 0 57 36 52 50 -3 10 -6 7 -10 -8z"/>
<path d="M3333 3195 c-10 -10 -27 -13 -65 -8 -65 7 -61 -2 4 -10 37 -5 51 -3
70 13 13 11 19 19 13 19 -5 0 -16 -6 -22 -14z"/>
<path d="M3480 3190 c-8 -5 -10 -10 -5 -10 6 0 17 5 25 10 8 5 11 10 5 10 -5
0 -17 -5 -25 -10z"/>
<path d="M4006 3180 c3 -14 11 -32 16 -40 6 -10 7 -7 2 10 -3 14 -11 32 -16
40 -6 10 -7 7 -2 -10z"/>
<path d="M1906 3175 c-9 -26 -7 -32 5 -12 6 10 9 21 6 23 -2 3 -7 -2 -11 -11z"/>
<path d="M2246 3124 c-28 -32 -73 -67 -105 -84 -31 -16 -52 -29 -48 -30 24 -1
109 55 155 103 44 48 60 69 50 66 -2 0 -25 -25 -52 -55z"/>
<path d="M3390 3164 c-30 -11 -32 -13 -10 -13 14 -1 32 3 40 9 24 15 8 17 -30
4z"/>
<path d="M3901 3143 c1 -17 3 -21 6 -10 7 26 18 20 32 -18 14 -39 61 -79 69
-57 2 7 10 19 18 26 8 8 14 21 14 28 0 7 -10 -2 -22 -21 l-22 -34 -20 25 c-12
14 -29 39 -38 57 -21 38 -38 40 -37 4z"/>
<path d="M3165 3150 c27 -12 43 -12 25 0 -8 5 -22 9 -30 9 -10 0 -8 -3 5 -9z"/>
<path d="M3247 3143 c18 -2 50 -2 70 0 21 2 7 4 -32 4 -38 0 -55 -2 -38 -4z"/>
<path d="M3365 3107 c-41 -67 -49 -83 -55 -119 -4 -21 -4 -36 0 -33 8 5 82
-70 98 -100 10 -17 11 -17 12 -3 0 9 -22 40 -50 67 -28 28 -50 59 -50 71 0 23
22 71 53 112 11 15 19 30 16 32 -2 3 -13 -10 -24 -27z"/>
<path d="M3100 3118 c38 -10 113 -77 136 -121 14 -26 13 -30 -12 -62 -14 -19
-24 -35 -21 -35 3 0 18 15 32 34 30 40 28 49 -34 125 -35 43 -83 72 -118 70
-10 0 -2 -5 17 -11z"/>
<path d="M3209 3115 c6 -11 29 -40 52 -65 37 -40 39 -41 23 -12 -10 18 -34 47
-53 65 -20 19 -29 24 -22 12z"/>
<path d="M3772 3105 c0 -16 2 -22 5 -12 2 9 2 23 0 30 -3 6 -5 -1 -5 -18z"/>
<path d="M3901 3094 c0 -11 3 -14 6 -6 3 7 2 16 -1 19 -3 4 -6 -2 -5 -13z"/>
<path d="M3816 3084 c-9 -8 -16 -25 -15 -37 0 -18 3 -16 15 11 8 17 18 32 23
32 20 0 21 -20 3 -51 -14 -25 -33 -39 -77 -56 -32 -12 -67 -30 -78 -40 -28
-25 -77 -104 -77 -122 1 -9 7 -1 15 17 29 66 73 110 133 132 66 25 78 34 98
71 24 48 -5 79 -40 43z"/>
<path d="M2436 3062 c10 -18 20 -28 22 -22 6 17 78 12 93 -7 8 -9 12 -17 9
-17 -2 -1 2 -11 11 -23 9 -13 19 -20 24 -15 4 4 5 -3 1 -14 -7 -22 -5 -22 108
-18 l115 3 61 -40 c74 -50 92 -73 80 -105 -5 -13 -6 -24 -2 -24 5 0 9 -18 10
-40 2 -28 -4 -50 -18 -70 -12 -17 -18 -30 -14 -30 4 0 -1 -9 -11 -20 -10 -11
-23 -20 -28 -20 -6 0 -18 -7 -28 -16 -19 -17 -69 -13 -69 6 0 6 9 6 25 0 15
-6 26 -6 30 0 4 6 -5 10 -18 10 -13 0 -44 14 -68 31 -24 16 -97 66 -161 110
-88 59 -118 85 -119 102 -1 12 -5 -7 -9 -43 -4 -36 -10 -76 -14 -90 -6 -19 -5
-21 3 -10 6 8 14 36 17 63 l7 47 34 -37 c19 -21 31 -32 27 -24 -4 9 -2 12 7 9
8 -3 13 -10 12 -16 -3 -15 128 -106 150 -104 9 0 15 -3 12 -8 -3 -6 1 -7 10
-4 10 4 15 2 13 -6 -4 -16 58 -60 84 -60 29 0 106 57 123 90 10 19 15 57 15
110 l0 80 -47 46 c-79 76 -110 87 -218 79 l-92 -7 -39 51 c-36 47 -42 50 -83
51 -28 0 -52 7 -64 18 -20 17 -20 17 -1 -16z m209 -357 c29 -20 59 -43 67 -53
12 -15 11 -15 -12 1 -14 9 -46 31 -72 48 -45 29 -56 39 -42 39 3 0 30 -16 59
-35z m145 -107 c0 -6 -6 -5 -15 2 -8 7 -15 14 -15 16 0 2 7 1 15 -2 8 -4 15
-11 15 -16z"/>
<path d="M2930 3088 c3 -3 32 -27 65 -53 106 -84 104 -81 105 -228 l0 -128 49
-52 c26 -29 53 -61 59 -72 6 -11 12 -14 12 -7 0 7 -25 39 -55 72 l-55 60 0
128 c0 147 0 146 -92 219 -55 44 -102 76 -88 61z"/>
<path d="M3938 3063 c7 -12 24 -31 38 -42 24 -19 27 -19 50 -4 16 10 24 24 23
42 -1 22 -2 22 -6 5 -2 -12 -13 -30 -23 -39 -19 -17 -21 -17 -57 21 -20 21
-31 29 -25 17z"/>
<path d="M3760 3056 c0 -8 -10 -17 -22 -19 -20 -4 -19 -4 5 -6 21 -1 27 4 27
19 0 11 -2 20 -5 20 -3 0 -5 -6 -5 -14z"/>
<path d="M3665 3048 c-50 -27 -137 -130 -122 -144 2 -3 10 9 17 25 12 29 74
92 116 118 24 15 16 16 -11 1z"/>
<path d="M3901 3049 c-1 -9 -8 -22 -16 -29 -9 -8 -15 -30 -15 -56 0 -24 -4
-44 -8 -44 -4 0 -16 -15 -26 -32 -34 -58 -127 -169 -160 -189 -22 -13 -26 -19
-13 -19 10 0 28 10 40 23 33 32 131 158 148 187 l14 25 6 -40 c5 -30 7 -21 8
41 0 46 6 87 14 97 11 16 17 13 62 -33 36 -36 57 -50 77 -50 27 0 28 2 26 43
l-1 42 -4 -37 c-3 -30 -9 -38 -24 -38 -22 0 -107 75 -120 105 -6 15 -8 16 -8
4z"/>
<path d="M1861 3038 c0 -9 -4 -25 -7 -35 -4 -12 -3 -14 3 -6 6 8 14 9 23 3 8
-6 26 -9 40 -9 27 1 22 4 -22 13 -17 4 -28 14 -31 29 -2 13 -5 15 -6 5z"/>
<path d="M2915 3021 c28 -16 71 -51 98 -79 26 -28 47 -45 47 -38 0 24 -155
146 -185 146 -5 0 13 -13 40 -29z"/>
<path d="M2274 3002 c-17 -15 -44 -37 -60 -49 l-29 -23 36 20 c20 11 44 29 54
40 21 24 35 26 35 6 0 -16 -21 -40 -48 -55 -13 -7 -14 -13 -5 -21 8 -9 13 -7
18 9 3 12 12 21 20 21 15 0 25 22 25 56 0 31 -8 30 -46 -4z"/>
<path d="M2496 3020 c-16 -5 -34 -6 -39 -3 -6 4 -7 1 -2 -6 8 -13 52 -7 70 10
10 10 10 10 -29 -1z"/>
<path d="M2422 3000 c0 -14 2 -19 5 -12 2 6 2 18 0 25 -3 6 -5 1 -5 -13z"/>
<path d="M2783 3003 c9 -2 23 -2 30 0 6 3 -1 5 -18 5 -16 0 -22 -2 -12 -5z"/>
<path d="M2003 2993 c9 -2 25 -2 35 0 9 3 1 5 -18 5 -19 0 -27 -2 -17 -5z"/>
<path d="M2869 2980 c52 -24 117 -74 133 -103 7 -12 15 -44 19 -72 l8 -50 -3
58 c-2 50 -7 62 -37 93 -37 39 -125 94 -149 94 -8 0 5 -9 29 -20z"/>
<path d="M3662 2985 c-12 -9 -35 -36 -52 -60 -29 -42 -30 -48 -30 -153 0 -78
5 -121 16 -148 19 -46 54 -97 61 -90 3 2 -6 20 -20 38 -13 18 -29 48 -36 67
-14 44 -14 226 0 254 18 34 59 81 83 94 11 7 16 12 11 13 -6 0 -20 -7 -33 -15z"/>
<path d="M3828 2965 c-10 -13 -34 -29 -54 -35 -45 -15 -40 -23 8 -10 37 11 73
42 67 58 -2 6 -12 0 -21 -13z"/>
<path d="M1836 2953 c-8 -20 -5 -22 15 -14 14 5 15 8 4 18 -10 10 -15 9 -19
-4z"/>
<path d="M2434 2875 c0 -55 1 -76 3 -47 2 29 2 74 0 100 -2 26 -3 2 -3 -53z"/>
<path d="M2477 2963 c-4 -3 -6 -25 -5 -47 l1 -41 6 43 6 42 40 -67 c40 -68 83
-105 250 -217 49 -32 100 -53 89 -35 -3 5 -13 9 -22 9 -18 0 -206 131 -255
178 -16 15 -39 48 -52 73 -25 49 -48 73 -58 62z"/>
<path d="M2805 2933 c6 -6 30 -28 55 -49 l45 -38 -35 38 c-19 21 -44 42 -55
48 -11 6 -16 6 -10 1z"/>
<path d="M3257 2900 c-20 -22 -37 -48 -37 -57 1 -16 2 -16 12 2 6 11 24 35 41
52 17 18 29 35 26 37 -3 3 -21 -13 -42 -34z"/>
<path d="M2150 2915 c-14 -8 -58 -26 -98 -41 -40 -15 -71 -29 -68 -31 6 -6
159 54 182 72 24 18 16 19 -16 0z"/>
<path d="M2618 2923 c12 -2 32 -2 45 0 12 2 2 4 -23 4 -25 0 -35 -2 -22 -4z"/>
<path d="M2706 2923 c-3 -3 -29 -12 -58 -19 -52 -14 -52 -14 -9 -9 48 6 67 -3
189 -97 35 -26 69 -48 77 -48 7 0 16 -6 18 -12 4 -8 6 -7 6 3 1 10 -10 20 -26
24 -15 3 -57 30 -93 59 -36 30 -78 61 -95 69 l-30 16 41 1 c49 0 101 -31 156
-93 21 -23 38 -37 38 -32 0 17 -62 80 -105 107 -40 26 -98 42 -109 31z"/>
<path d="M1781 2837 c-23 -45 -38 -77 -33 -72 15 14 85 145 81 150 -2 2 -24
-34 -48 -78z"/>
<path d="M2286 2901 c-14 -16 -15 -23 -6 -41 13 -24 38 -23 54 3 8 12 8 22 0
34 -15 25 -28 26 -48 4z m44 -16 c0 -16 -27 -32 -37 -22 -3 4 -3 13 0 22 8 20
37 20 37 0z"/>
<path d="M3709 2893 c-43 -51 -89 -141 -89 -173 0 -38 28 -98 52 -114 21 -13
61 20 132 107 31 38 56 63 56 56 0 -7 10 -33 21 -57 16 -33 32 -49 63 -63 45
-21 76 -24 76 -9 0 6 -15 10 -34 10 -65 0 -113 65 -117 155 -1 21 -3 24 -6 10
-13 -49 -173 -214 -187 -193 -1 2 -12 16 -24 32 -27 35 -29 92 -5 126 25 35
82 130 78 130 -1 0 -9 -7 -16 -17z"/>
<path d="M3279 2871 c-46 -46 -39 -97 17 -132 l34 -21 30 22 c28 20 31 27 28
68 -2 30 -8 47 -18 50 -12 4 -13 2 -2 -9 30 -32 2 -109 -40 -109 -24 0 -68 47
-68 72 1 29 28 64 60 77 19 7 20 10 7 10 -10 1 -32 -12 -48 -28z"/>
<path d="M3186 2875 c-3 -9 -6 -26 -5 -38 1 -14 4 -9 9 13 9 37 7 52 -4 25z"/>
<path d="M3062 2860 c0 -14 2 -19 5 -12 2 6 2 18 0 25 -3 6 -5 1 -5 -13z"/>
<path d="M4061 2864 c0 -11 3 -14 6 -6 3 7 2 16 -1 19 -3 4 -6 -2 -5 -13z"/>
<path d="M3305 2845 c-14 -13 -25 -34 -24 -47 1 -21 2 -20 9 5 5 15 19 36 32
47 13 11 19 19 15 20 -4 0 -19 -11 -32 -25z"/>
<path d="M1922 2822 c-18 -10 -30 -21 -26 -24 3 -4 -17 -34 -45 -68 -54 -64
-57 -70 -41 -70 6 0 10 6 10 13 0 7 21 36 47 63 26 27 46 55 45 62 -2 6 1 12
7 12 5 0 12 -6 14 -12 3 -8 6 -6 6 4 1 9 9 22 19 27 30 18 -1 11 -36 -7z"/>
<path d="M4080 2820 c6 -11 13 -20 16 -20 2 0 0 9 -6 20 -6 11 -13 20 -16 20
-2 0 0 -9 6 -20z"/>
<path d="M2258 2809 c-22 -12 -23 -38 -3 -45 17 -7 20 -40 5 -49 -5 -3 -10
-16 -10 -28 1 -13 12 5 27 41 22 54 24 66 12 77 -10 10 -19 11 -31 4z m30 -27
c3 -9 -2 -13 -14 -10 -9 1 -19 9 -22 16 -3 9 2 13 14 10 9 -1 19 -9 22 -16z"/>
<path d="M3221 2803 c-1 -12 4 -32 9 -45 14 -29 73 -68 103 -68 21 0 107 52
107 65 0 3 -19 -8 -42 -25 -46 -34 -66 -37 -107 -16 -36 19 -52 39 -61 79 -6
22 -8 25 -9 10z"/>
<path d="M3181 2763 c-1 -50 1 -53 47 -92 26 -23 52 -41 57 -41 6 1 -2 10 -17
21 -69 51 -72 56 -79 110 l-6 54 -2 -52z"/>
<path d="M3481 2787 c-1 -42 -26 -89 -71 -130 -39 -38 -81 -127 -79 -170 1
-20 2 -20 6 -2 17 77 40 123 89 176 51 55 74 108 61 141 -3 7 -6 0 -6 -15z"/>
<path d="M3053 2740 c0 -36 2 -50 4 -32 2 17 2 47 0 65 -2 17 -4 3 -4 -33z"/>
<path d="M3441 2784 c0 -11 3 -14 6 -6 3 7 2 16 -1 19 -3 4 -6 -2 -5 -13z"/>
<path d="M4100 2786 c0 -2 8 -10 18 -17 15 -13 16 -12 3 4 -13 16 -21 21 -21
13z"/>
<path d="M1715 2720 c-9 -16 -13 -30 -11 -30 3 0 12 14 21 30 9 17 13 30 11
30 -3 0 -12 -13 -21 -30z"/>
<path d="M2335 2662 c-33 -48 -76 -105 -96 -127 -34 -37 -37 -46 -41 -112 -2
-40 0 -67 4 -60 4 7 8 38 8 69 0 49 4 62 30 91 20 23 37 34 52 32 13 -1 15 0
6 2 -27 7 -10 31 36 52 25 11 49 31 61 52 18 32 17 32 -23 -10 -23 -24 -45
-41 -49 -38 -3 4 13 34 37 67 23 34 40 63 38 65 -2 2 -30 -35 -63 -83z"/>
<path d="M2421 2743 c-1 -6 -4 -20 -7 -30 -5 -17 -5 -17 6 0 6 10 9 23 6 30
-3 9 -5 9 -5 0z"/>
<path d="M4130 2746 c0 -2 8 -10 18 -17 15 -13 16 -12 3 4 -13 16 -21 21 -21
13z"/>
<path d="M2494 2711 c4 -6 23 -22 41 -34 152 -102 266 -193 271 -216 3 -14 7
-37 10 -50 8 -39 12 -19 5 29 -6 43 -11 49 -93 110 -126 95 -242 175 -234 161z"/>
<path d="M2930 2711 c0 -5 7 -11 15 -15 8 -3 15 -1 15 3 0 5 -7 11 -15 15 -8
3 -15 1 -15 -3z"/>
<path d="M3531 2704 c0 -11 3 -14 6 -6 3 7 2 16 -1 19 -3 4 -6 -2 -5 -13z"/>
<path d="M4170 2690 c6 -11 13 -20 16 -20 2 0 0 9 -6 20 -6 11 -13 20 -16 20
-2 0 0 -9 6 -20z"/>
<path d="M3797 2655 c-21 -27 -54 -67 -72 -87 -29 -31 -35 -46 -41 -105 -6
-52 -9 -62 -15 -43 -5 20 -7 15 -8 -21 -1 -35 -7 -51 -26 -69 -30 -28 -34 -51
-4 -24 31 28 59 88 59 126 0 58 17 96 76 168 32 38 59 70 61 70 2 0 3 -15 3
-32 0 -23 -3 -29 -9 -19 -5 7 -11 9 -14 5 -3 -5 1 -15 9 -22 11 -10 15 -8 20
11 3 14 4 39 2 58 l-3 34 -38 -50z"/>
<path d="M1676 2640 c-9 -22 -16 -48 -16 -58 1 -9 9 8 20 38 22 65 20 79 -4
20z"/>
<path d="M3458 2611 c-72 -71 -94 -120 -85 -192 4 -34 4 -33 5 6 4 83 21 117
91 181 36 34 64 64 61 66 -3 2 -35 -25 -72 -61z"/>
<path d="M1845 2660 c-11 -5 -14 -9 -7 -9 21 -2 13 -24 -26 -76 -49 -64 -53
-77 -35 -100 15 -19 15 -19 9 7 -5 20 3 40 32 85 21 32 41 66 45 75 4 11 12
15 22 12 8 -3 15 -1 15 5 0 13 -26 13 -55 1z"/>
<path d="M2182 2658 c-16 -16 -15 -28 3 -28 9 0 12 6 8 17 -5 13 -2 15 11 10
10 -4 20 -7 23 -7 3 0 0 -7 -7 -15 -7 -9 -8 -15 -2 -15 12 0 24 29 16 41 -8
13 -38 11 -52 -3z"/>
<path d="M3010 2643 c0 -21 -17 -44 -75 -98 l-75 -70 0 -58 c0 -54 3 -60 41
-100 23 -23 36 -33 28 -22 -7 11 -24 31 -36 44 -18 19 -23 35 -23 79 l0 55 75
71 c58 55 75 77 75 99 0 15 -2 27 -5 27 -3 0 -5 -12 -5 -27z"/>
<path d="M2416 2624 c-16 -20 -43 -42 -60 -50 -18 -7 -24 -13 -14 -14 19 0 83
53 99 81 15 28 7 23 -25 -17z"/>
<path d="M3050 2642 c0 -5 21 -23 46 -42 25 -18 54 -47 65 -64 10 -17 19 -25
19 -17 0 7 -19 32 -43 55 -55 53 -87 78 -87 68z"/>
<path d="M2900 2625 c-7 -8 -8 -15 -2 -15 5 0 15 7 22 15 7 8 8 15 2 15 -5 0
-15 -7 -22 -15z"/>
<path d="M3510 2594 c-28 -26 -50 -54 -49 -63 0 -13 1 -14 6 -1 2 8 28 36 56
62 29 26 48 48 44 48 -4 0 -30 -21 -57 -46z"/>
<path d="M2000 2624 c0 -3 12 -15 26 -27 15 -11 40 -41 55 -66 16 -25 29 -41
29 -35 0 12 -28 54 -67 98 -31 35 -43 43 -43 30z"/>
<path d="M2078 2623 c18 -2 45 -2 60 0 15 2 0 4 -33 4 -33 0 -45 -2 -27 -4z"/>
<path d="M3298 2593 c5 -21 7 -23 10 -9 2 10 0 22 -6 28 -6 6 -7 0 -4 -19z"/>
<path d="M3861 2606 c2 -2 22 -6 44 -9 28 -5 34 -4 20 3 -19 8 -73 14 -64 6z"/>
<path d="M3956 2594 c-10 -26 -6 -30 9 -10 15 19 15 19 15 -2 0 -12 -4 -22
-10 -22 -5 0 -10 -10 -10 -22 1 -18 5 -14 20 17 13 29 15 42 7 47 -18 11 -24
10 -31 -8z"/>
<path d="M4216 2585 c8 -37 14 -45 14 -19 0 10 -5 26 -10 34 -8 11 -9 7 -4
-15z"/>
<path d="M3781 2574 c0 -11 3 -14 6 -6 3 7 2 16 -1 19 -3 4 -6 -2 -5 -13z"/>
<path d="M3767 2487 c-41 -80 -47 -99 -46 -147 l2 -55 7 67 c3 38 9 70 12 74
3 3 13 -17 23 -45 9 -28 35 -72 59 -98 92 -104 116 -142 118 -191 1 -47 1 -47
5 -7 3 30 12 47 36 68 33 29 18 27 -17 -2 -15 -13 -20 -13 -23 -3 -3 7 -38 52
-79 100 -52 61 -79 103 -91 140 l-17 53 33 66 c17 36 30 67 28 69 -1 2 -24
-38 -50 -89z"/>
<path d="M3897 2540 c-19 -22 -37 -54 -40 -69 -8 -36 5 -83 24 -89 12 -5 12
-3 1 11 -31 36 -13 106 40 159 11 11 18 22 15 24 -3 3 -20 -13 -40 -36z"/>
<path d="M2541 2520 c-25 -30 -55 -53 -74 -59 -28 -8 -29 -9 -7 -10 17 -1 39
15 76 54 29 30 58 55 64 55 18 0 125 -68 152 -97 20 -21 24 -38 29 -131 l7
-107 -2 107 c-1 90 -4 111 -21 133 -23 31 -140 105 -165 105 -9 0 -36 -22 -59
-50z"/>
<path d="M3526 2536 c-20 -18 -36 -42 -35 -52 0 -14 2 -15 6 -4 8 23 55 70 70
70 7 0 13 5 13 10 0 18 -18 10 -54 -24z"/>
<path d="M1652 2530 c0 -19 2 -27 5 -17 2 9 2 25 0 35 -3 9 -5 1 -5 -18z"/>
<path d="M3291 2534 c0 -11 3 -14 6 -6 3 7 2 16 -1 19 -3 4 -6 -2 -5 -13z"/>
<path d="M3614 2506 c12 -23 22 -39 24 -35 4 9 -24 66 -36 73 -5 3 1 -14 12
-38z"/>
<path d="M3083 2513 c15 -16 27 -38 28 -49 0 -12 3 -14 6 -6 7 19 -17 61 -42
74 -15 8 -14 4 8 -19z"/>
<path d="M4231 2524 c0 -11 3 -14 6 -6 3 7 2 16 -1 19 -3 4 -6 -2 -5 -13z"/>
<path d="M2976 2522 c-2 -4 4 -8 14 -8 10 0 16 4 14 8 -3 4 -9 8 -14 8 -5 0
-11 -4 -14 -8z"/>
<path d="M3539 2491 c-16 -16 -29 -38 -29 -49 0 -11 -3 -29 -7 -39 -6 -14 -9
-9 -14 22 l-7 40 1 -46 c0 -25 -3 -52 -7 -60 -4 -8 2 -3 13 11 21 25 24 33 35
83 4 16 20 36 39 47 17 11 26 20 19 20 -8 0 -27 -13 -43 -29z"/>
<path d="M2281 2505 c0 -19 26 -45 45 -44 17 0 16 1 -3 9 -12 5 -26 17 -32 27
-6 10 -10 14 -10 8z"/>
<path d="M2570 2463 c-43 -46 -44 -47 -5 -12 22 20 49 41 60 47 15 8 16 11 5
12 -9 0 -36 -21 -60 -47z"/>
<path d="M2926 2479 c-35 -41 -33 -65 10 -102 20 -18 40 -41 44 -52 7 -17 9
-17 9 -2 1 16 -13 33 -57 69 -29 23 -28 50 4 87 14 17 24 31 21 31 -3 0 -17
-14 -31 -31z"/>
<path d="M3032 2499 c10 -5 24 -19 33 -32 8 -12 15 -16 15 -10 0 15 -40 53
-54 53 -6 0 -3 -5 6 -11z"/>
<path d="M3276 2464 c-3 -26 -5 -83 -4 -128 1 -72 2 -67 9 44 7 132 6 161 -5
84z"/>
<path d="M3451 2494 c0 -11 3 -14 6 -6 3 7 2 16 -1 19 -3 4 -6 -2 -5 -13z"/>
<path d="M1816 2485 c4 -8 0 -23 -7 -33 -13 -15 -12 -16 4 -3 19 15 22 36 7
46 -6 3 -7 -1 -4 -10z"/>
<path d="M3662 2475 c0 -16 2 -22 5 -12 2 9 2 23 0 30 -3 6 -5 -1 -5 -18z"/>
<path d="M3211 2474 c0 -11 3 -14 6 -6 3 7 2 16 -1 19 -3 4 -6 -2 -5 -13z"/>
<path d="M3980 2486 c0 -2 7 -7 16 -10 8 -3 12 -2 9 4 -6 10 -25 14 -25 6z"/>
<path d="M4242 2460 c0 -19 2 -27 5 -17 2 9 2 25 0 35 -3 9 -5 1 -5 -18z"/>
<path d="M2661 2464 c0 -11 3 -14 6 -6 3 7 2 16 -1 19 -3 4 -6 -2 -5 -13z"/>
<path d="M3960 2475 c0 -15 18 -40 24 -34 3 3 -1 14 -9 25 -8 10 -14 15 -15 9z"/>
<path d="M1641 2454 c0 -11 3 -14 6 -6 3 7 2 16 -1 19 -3 4 -6 -2 -5 -13z"/>
<path d="M2096 2455 c-22 -22 -20 -42 4 -50 38 -12 52 14 26 48 -13 16 -15 16
-30 2z m30 -16 c3 -6 2 -15 -2 -19 -12 -12 -38 5 -30 19 9 14 23 14 32 0z"/>
<path d="M2702 2445 c9 -11 21 -31 27 -45 7 -17 10 -20 10 -8 1 10 -11 30 -26
46 -16 15 -20 19 -11 7z"/>
<path d="M3443 2435 c0 -22 2 -30 4 -17 2 12 2 30 0 40 -3 9 -5 -1 -4 -23z"/>
<path d="M2363 2453 c9 -2 25 -2 35 0 9 3 1 5 -18 5 -19 0 -27 -2 -17 -5z"/>
<path d="M3316 2333 c-3 -71 -10 -144 -14 -163 -10 -44 -39 -53 -45 -13 l-4
28 -2 -27 c-1 -19 -7 -28 -23 -31 -13 -2 24 -5 82 -6 58 -1 111 -5 119 -10 7
-5 17 -35 22 -67 l8 -59 -4 63 c-2 35 -6 66 -9 69 -3 3 -25 8 -50 10 -36 4
-46 10 -49 27 -4 20 -4 20 -6 -1 0 -14 -7 -23 -17 -23 -14 0 -15 7 -10 38 9
50 20 292 14 292 -3 0 -8 -57 -12 -127z"/>
<path d="M3203 2385 c0 -38 2 -53 4 -32 2 20 2 52 0 70 -2 17 -4 1 -4 -38z"/>
<path d="M3640 2442 c0 -4 -18 -29 -40 -56 -22 -26 -40 -53 -40 -60 0 -6 6 -2
12 9 6 11 26 37 45 58 30 33 41 57 28 57 -3 0 -5 -3 -5 -8z"/>
<path d="M4000 2439 c0 -5 5 -7 10 -4 6 3 10 8 10 11 0 2 -4 4 -10 4 -5 0 -10
-5 -10 -11z"/>
<path d="M1776 2425 c-8 -21 3 -44 25 -56 16 -8 17 -14 8 -30 -5 -11 -9 -25
-7 -31 2 -6 12 10 22 36 17 45 17 49 1 64 -16 16 -17 16 -5 -6 15 -31 5 -40
-20 -17 -13 11 -18 25 -14 37 6 22 -1 24 -10 3z"/>
<path d="M2327 2412 c10 -18 19 -28 21 -22 2 5 35 10 75 10 40 0 77 4 84 8 6
4 -30 6 -80 5 -75 -2 -93 1 -104 15 -8 9 -6 2 4 -16z"/>
<path d="M2635 2404 c-24 -45 -46 -57 -120 -65 l-60 -6 58 -1 c45 -2 66 3 88
19 27 19 65 76 57 85 -2 2 -12 -13 -23 -32z"/>
<path d="M3111 2408 c-1 -26 -6 -38 -18 -41 -17 -4 -17 -5 0 -6 21 -1 30 18
24 56 -3 24 -4 23 -6 -9z"/>
<path d="M3892 2417 c9 -7 19 -31 21 -53 3 -31 4 -29 3 11 -1 42 -4 50 -21 53
-18 3 -19 2 -3 -11z"/>
<path d="M1653 2375 c0 -22 2 -30 4 -17 2 12 2 30 0 40 -3 9 -5 -1 -4 -23z"/>
<path d="M3431 2358 c-1 -36 11 -50 24 -28 3 6 2 10 -4 10 -5 0 -12 12 -14 28
-3 22 -4 20 -6 -10z"/>
<path d="M2095 2354 c-9 -14 -14 -28 -12 -31 3 -3 13 9 22 26 19 38 14 41 -10
5z"/>
<path d="M4010 2364 c0 -7 10 -9 25 -6 14 2 25 8 25 13 0 5 -11 8 -25 7 -14
-1 -25 -8 -25 -14z"/>
<path d="M4250 2269 l0 -111 -30 26 c-36 30 -106 42 -163 29 -39 -9 -36 -10
34 -9 67 1 80 -2 118 -27 55 -37 46 -47 -12 -13 -61 36 -101 34 -139 -6 -17
-18 -34 -43 -39 -56 -11 -29 -12 -99 -1 -106 5 -3 6 8 4 24 -7 50 7 95 39 128
38 38 78 42 129 11 53 -33 59 -46 59 -134 1 -119 -30 -175 -112 -210 -70 -29
-136 -13 -175 43 -19 26 -19 29 -4 40 14 10 13 11 -5 2 -18 -8 -26 -7 -43 10
-25 25 -25 26 5 79 14 24 24 45 22 47 -4 4 -57 -90 -57 -101 0 -4 31 -38 70
-76 64 -64 72 -69 112 -69 50 0 114 27 145 61 47 51 52 82 52 312 1 120 -1
217 -4 217 -3 0 -5 -50 -5 -111z"/>
<path d="M2360 2359 c0 -5 9 -9 20 -9 11 0 20 2 20 4 0 2 -9 6 -20 9 -11 3
-20 1 -20 -4z"/>
<path d="M2743 2300 c0 -41 2 -58 4 -37 2 20 2 54 0 75 -2 20 -4 3 -4 -38z"/>
<path d="M2822 2309 c-2 -46 3 -71 14 -85 15 -19 16 -19 8 1 -4 11 -11 49 -14
85 l-7 65 -1 -66z"/>
<path d="M2418 2343 c7 -3 16 -2 19 1 4 3 -2 6 -13 5 -11 0 -14 -3 -6 -6z"/>
<path d="M3145 2330 c10 -11 20 -20 23 -20 3 0 -3 9 -13 20 -10 11 -20 20 -23
20 -3 0 3 -9 13 -20z"/>
<path d="M4046 2335 c-9 -26 -7 -32 5 -12 6 10 9 21 6 23 -2 3 -7 -2 -11 -11z"/>
<path d="M2172 2315 c-17 -37 -14 -45 4 -12 9 16 14 31 11 33 -2 2 -9 -7 -15
-21z"/>
<path d="M3363 2300 c0 -25 2 -35 4 -22 2 12 2 32 0 45 -2 12 -4 2 -4 -23z"/>
<path d="M1662 2310 c0 -14 2 -19 5 -12 2 6 2 18 0 25 -3 6 -5 1 -5 -13z"/>
<path d="M2345 2310 c-17 -18 -17 -20 -1 -14 11 4 22 0 32 -12 15 -18 15 -18
6 1 -5 11 -11 26 -13 33 -3 10 -10 8 -24 -8z"/>
<path d="M3954 2298 c3 -18 8 -50 11 -70 4 -23 11 -38 20 -38 23 0 26 17 5 23
-17 4 -20 14 -20 55 0 28 -5 54 -11 57 -7 5 -9 -4 -5 -27z"/>
<path d="M2586 2279 c-14 -17 -26 -38 -25 -47 0 -14 2 -14 6 -2 9 25 56 70 73
70 9 0 33 -15 53 -34 20 -18 37 -30 37 -26 0 16 -75 70 -96 70 -12 0 -34 -14
-48 -31z"/>
<path d="M3185 2300 c-3 -5 -1 -10 4 -10 6 0 11 5 11 10 0 6 -2 10 -4 10 -3 0
-8 -4 -11 -10z"/>
<path d="M3646 2276 c-22 -40 -37 -106 -25 -106 5 0 9 12 9 28 0 15 9 45 21
66 11 21 19 40 17 42 -2 2 -12 -12 -22 -30z"/>
<path d="M3925 2300 c3 -5 8 -10 11 -10 2 0 4 5 4 10 0 6 -5 10 -11 10 -5 0
-7 -4 -4 -10z"/>
<path d="M2993 2250 c0 -30 2 -43 4 -27 2 15 2 39 0 55 -2 15 -4 2 -4 -28z"/>
<path d="M3548 2255 c-4 -27 -10 -66 -13 -85 -3 -19 2 -10 10 20 9 30 14 69
13 85 -3 24 -5 19 -10 -20z"/>
<path d="M3581 2258 c0 -32 2 -38 8 -23 5 11 6 26 3 34 -4 10 -1 12 9 6 12 -8
12 -6 0 8 -19 24 -21 22 -20 -25z"/>
<path d="M1790 2269 c0 -13 5 -31 10 -39 7 -11 8 -5 4 20 -8 43 -14 51 -14 19z"/>
<path d="M2092 2260 c0 -19 2 -27 5 -17 2 9 2 25 0 35 -3 9 -5 1 -5 -18z"/>
<path d="M1671 2264 c0 -11 3 -14 6 -6 3 7 2 16 -1 19 -3 4 -6 -2 -5 -13z"/>
<path d="M1810 2260 c0 -5 7 -10 15 -10 18 0 19 -12 3 -28 -8 -8 -8 -12 -1
-12 12 0 23 23 23 46 0 8 -9 14 -20 14 -11 0 -20 -4 -20 -10z"/>
<path d="M2146 2255 c-3 -9 -6 -22 -5 -28 0 -7 5 -1 10 12 5 13 8 26 5 28 -2
2 -6 -3 -10 -12z"/>
<path d="M2626 2253 c10 -7 21 -13 24 -13 4 0 15 -16 26 -36 19 -35 19 -36 0
-50 -21 -15 -10 -19 13 -5 28 18 -26 118 -65 118 -15 0 -15 -2 2 -14z"/>
<path d="M2943 2230 c0 -25 2 -35 4 -22 2 12 2 32 0 45 -2 12 -4 2 -4 -23z"/>
<path d="M3691 2225 c-18 -25 -36 -45 -40 -45 -4 0 -13 -11 -19 -24 -7 -15
-21 -26 -39 -29 l-28 -4 28 -2 c27 -1 27 -1 27 -75 0 -58 -3 -76 -15 -79 -11
-4 -10 -4 2 -3 15 1 19 14 23 91 6 112 12 122 51 95 16 -12 29 -16 29 -10 0 6
-11 15 -25 22 l-24 11 36 44 c20 24 34 46 31 48 -3 3 -19 -15 -37 -40z"/>
<path d="M4067 2250 c3 -11 7 -20 9 -20 2 0 4 9 4 20 0 11 -4 20 -9 20 -5 0
-7 -9 -4 -20z"/>
<path d="M3762 2240 c40 -31 59 -91 54 -168 l-5 -67 10 59 c8 44 7 71 -2 103
-12 44 -49 93 -70 93 -6 0 0 -9 13 -20z"/>
<path d="M2368 2243 c7 -3 16 -2 19 1 4 3 -2 6 -13 5 -11 0 -14 -3 -6 -6z"/>
<path d="M2448 2235 c49 -15 82 -41 82 -63 0 -13 -3 -13 -18 1 -42 38 -79 3
-68 -63 6 -39 -7 -59 -47 -73 -19 -7 -67 11 -67 25 0 5 5 6 10 3 6 -3 10 -1
10 5 0 7 -7 10 -15 6 -20 -7 -19 13 3 37 16 19 16 20 -5 8 -28 -14 -29 -41 -5
-72 24 -29 73 -29 112 -1 35 27 37 27 43 5 3 -10 5 3 6 29 0 26 -3 50 -9 53
-6 4 -7 -6 -4 -25 8 -37 -13 -42 -22 -5 -15 61 30 104 56 54 11 -20 12 -20 25
-2 12 16 11 21 -8 42 -24 26 -76 51 -104 50 -10 0 1 -6 25 -14z"/>
<path d="M3262 2220 c0 -19 2 -27 5 -17 2 9 2 25 0 35 -3 9 -5 1 -5 -18z"/>
<path d="M1681 2224 c0 -11 3 -14 6 -6 3 7 2 16 -1 19 -3 4 -6 -2 -5 -13z"/>
<path d="M2335 2229 c-4 -6 -14 -8 -22 -5 -8 3 -12 2 -9 -2 3 -5 -2 -28 -10
-52 -11 -32 -13 -65 -9 -124 9 -106 21 -146 46 -146 16 0 19 -7 19 -46 0 -25
-5 -55 -11 -66 -8 -15 -8 -19 0 -14 8 5 11 -21 11 -87 l0 -94 -37 -39 c-21
-22 -51 -50 -68 -63 -18 -13 -21 -18 -8 -11 13 6 42 28 65 50 22 22 43 40 44
40 2 0 5 -87 7 -192 1 -111 3 -40 5 165 l2 357 29 0 c28 0 81 33 81 50 0 5
-11 -2 -25 -15 -19 -20 -34 -25 -75 -25 -46 0 -51 2 -61 28 -6 15 -9 76 -7
139 3 102 5 114 27 137 14 14 22 26 18 26 -3 0 -9 -5 -12 -11z"/>
<path d="M3352 2210 c0 -19 2 -27 5 -17 2 9 2 25 0 35 -3 9 -5 1 -5 -18z"/>
<path d="M2770 2209 c-13 -9 -12 -10 3 -5 10 3 33 -1 52 -8 27 -12 35 -22 41
-50 3 -20 11 -36 16 -36 6 0 7 8 3 18 -4 9 -11 29 -17 44 -5 15 -20 29 -33 32
-13 3 -29 8 -37 11 -7 3 -20 0 -28 -6z"/>
<path d="M2130 2169 c-5 -44 -3 -48 33 -73 20 -15 37 -32 37 -37 0 -16 -16
-10 -41 17 -13 14 -40 34 -59 45 -20 10 -28 18 -18 19 12 0 15 6 10 22 -3 12
-7 17 -10 10 -2 -8 -25 -12 -62 -12 -36 0 -76 -8 -105 -20 -57 -24 -69 -25
-61 -4 4 9 1 23 -6 31 -10 13 -13 12 -19 -4 -4 -11 0 -25 9 -36 15 -17 13 -21
-28 -57 -25 -22 -49 -38 -54 -36 -6 1 -20 31 -32 67 -12 35 -23 59 -23 53 -1
-17 38 -127 50 -139 7 -7 15 -4 25 9 8 11 14 16 14 12 0 -4 29 8 65 28 36 20
69 35 73 34 4 -1 21 4 37 11 56 24 90 24 133 2 52 -27 155 -142 163 -184 l6
-32 2 33 c1 44 -31 105 -84 157 -36 35 -44 49 -47 86 l-3 44 -5 -46z m-110
-24 c0 -2 -22 -11 -50 -19 -27 -8 -80 -31 -117 -51 l-68 -37 39 34 c41 34 135
77 174 77 12 1 22 -1 22 -4z m216 -138 l15 -32 -25 30 c-26 30 -34 51 -16 40
6 -3 17 -21 26 -38z"/>
<path d="M3561 2183 c-10 -26 -10 -27 4 -9 8 11 15 23 15 28 0 15 -7 8 -19
-19z"/>
<path d="M1691 2184 c0 -11 3 -14 6 -6 3 7 2 16 -1 19 -3 4 -6 -2 -5 -13z"/>
<path d="M2577 2175 c3 -9 -1 -23 -9 -33 -18 -21 -30 -52 -20 -52 6 0 29 44
50 92 2 5 -3 8 -12 8 -10 0 -13 -6 -9 -15z"/>
<path d="M2788 2170 c33 -20 41 -50 22 -80 -5 -9 -5 -19 2 -27 12 -15 48 -18
48 -4 0 5 -9 7 -20 4 -18 -5 -19 -2 -14 41 6 40 4 48 -17 65 -13 11 -31 20
-39 21 -8 0 0 -9 18 -20z"/>
<path d="M2980 2161 c0 -16 -3 -36 -6 -45 -5 -14 2 -16 47 -14 l54 2 -45 3
-45 4 3 39 c2 22 1 40 -2 40 -3 0 -6 -13 -6 -29z"/>
<path d="M4130 2167 c0 -2 15 -16 33 -33 l32 -29 -29 33 c-28 30 -36 37 -36
29z"/>
<path d="M2710 2145 c-30 -17 -21 -20 14 -4 20 10 29 9 43 -2 16 -13 17 -12 4
4 -16 20 -28 21 -61 2z"/>
<path d="M2928 2135 c-3 -16 -1 -25 7 -25 8 0 10 9 7 25 -2 14 -6 25 -7 25 -1
0 -5 -11 -7 -25z"/>
<path d="M2635 2140 c3 -5 8 -10 11 -10 2 0 4 5 4 10 0 6 -5 10 -11 10 -5 0
-7 -4 -4 -10z"/>
<path d="M2368 2118 c8 -10 11 -26 7 -38 -4 -11 -2 -20 4 -20 18 0 13 46 -6
61 -16 13 -17 12 -5 -3z"/>
<path d="M2609 2099 c-23 -19 -23 -20 -2 -10 12 6 25 16 28 21 10 16 -1 12
-26 -11z"/>
<path d="M2780 2098 c-2 -16 -3 -34 -4 -40 -1 -7 8 -14 19 -16 13 -2 16 0 8 5
-6 5 -13 24 -16 43 -3 31 -4 32 -7 8z"/>
<path d="M3160 2103 c0 -11 3 -14 8 -7 4 6 14 14 22 17 10 4 8 6 -7 6 -16 1
-23 -5 -23 -16z"/>
<path d="M3706 2075 c6 -33 30 -65 49 -65 7 0 20 9 30 20 10 11 15 20 10 20
-4 0 -14 -8 -21 -17 -17 -24 -43 -8 -61 38 -12 32 -13 32 -7 4z"/>
<path d="M3764 2089 c-3 -6 -1 -16 5 -22 9 -9 11 -8 6 5 -4 11 0 18 12 21 15
4 16 5 1 6 -9 0 -20 -4 -24 -10z"/>
<path d="M2675 2079 c-20 -8 -20 -8 1 -8 11 -1 25 -6 32 -13 8 -8 12 -8 12 -1
0 19 -24 31 -45 22z"/>
<path d="M1921 2029 c0 -30 4 -63 8 -74 5 -11 6 10 3 50 -6 85 -12 98 -11 24z"/>
<path d="M2883 2025 c0 -33 2 -45 4 -27 2 18 2 45 0 60 -2 15 -4 0 -4 -33z"/>
<path d="M3240 2058 c-36 -39 -15 -130 27 -114 8 3 32 6 54 6 73 0 106 68 53
109 -15 12 -36 21 -48 20 -15 0 -10 -4 14 -12 45 -15 62 -57 36 -86 -19 -21
-112 -34 -133 -18 -7 5 -13 24 -13 42 0 34 21 60 55 68 18 4 18 5 -2 6 -12 0
-31 -9 -43 -21z"/>
<path d="M4209 1996 c-5 -63 -8 -71 -42 -103 -21 -18 -43 -31 -49 -27 -7 4 -8
3 -4 -4 9 -15 32 -4 69 33 29 30 40 70 35 130 -3 31 -5 24 -9 -29z"/>
<path d="M4065 2019 c-9 -17 -14 -33 -11 -37 3 -3 11 9 17 27 15 44 49 39 67
-9 l13 -35 -6 35 c-9 58 -55 69 -80 19z"/>
<path d="M2561 2023 c-1 -15 11 -31 35 -47 34 -23 39 -23 75 -11 l39 14 2 -42
1 -42 4 39 c3 21 1 42 -4 47 -4 4 -27 3 -50 -4 -37 -10 -45 -9 -64 9 -12 10
-25 28 -30 39 -7 19 -8 19 -8 -2z"/>
<path d="M2716 2032 c-2 -4 -1 -14 5 -22 7 -12 9 -10 9 8 0 23 -5 28 -14 14z"/>
<path d="M2673 2015 c-9 -24 1 -27 15 -5 8 13 8 20 2 20 -6 0 -13 -7 -17 -15z"/>
<path d="M2472 1995 c0 -16 2 -22 5 -12 2 9 2 23 0 30 -3 6 -5 -1 -5 -18z"/>
<path d="M3141 1994 c0 -11 3 -14 6 -6 3 7 2 16 -1 19 -3 4 -6 -2 -5 -13z"/>
<path d="M2082 1988 c-7 -7 -12 -21 -11 -32 0 -17 2 -16 11 7 12 34 34 35 64
2 24 -26 77 -35 89 -15 4 6 -5 7 -23 4 -21 -4 -36 1 -59 20 -34 29 -53 32 -71
14z"/>
<path d="M4080 1988 c0 -7 5 -20 10 -28 8 -12 10 -11 10 7 0 12 -4 25 -10 28
-5 3 -10 0 -10 -7z"/>
<path d="M2531 1964 c0 -11 3 -14 6 -6 3 7 2 16 -1 19 -3 4 -6 -2 -5 -13z"/>
<path d="M2561 1964 c0 -11 3 -14 6 -6 3 7 2 16 -1 19 -3 4 -6 -2 -5 -13z"/>
<path d="M3435 1958 c-6 -14 -22 -26 -40 -29 -28 -6 -28 -7 -4 -8 33 -1 62 20
58 43 -3 14 -6 13 -14 -6z"/>
<path d="M3799 1955 c-11 -77 -151 -102 -179 -32 -6 16 -9 18 -9 5 -1 -23 46
-58 79 -58 40 0 97 27 110 50 6 12 10 31 7 43 -3 18 -4 17 -8 -8z"/>
<path d="M1762 1940 c0 -19 2 -27 5 -17 2 9 2 25 0 35 -3 9 -5 1 -5 -18z"/>
<path d="M4018 1944 c-44 -28 -49 -57 -17 -98 16 -20 29 -26 59 -26 21 0 41 3
43 8 3 4 -14 5 -38 4 -35 -3 -45 0 -59 19 -25 37 -20 66 15 85 30 15 32 15 55
-7 23 -22 24 -22 44 -4 11 10 20 23 20 28 0 6 -10 1 -23 -11 l-24 -22 -11 25
c-14 30 -17 30 -64 -1z"/>
<path d="M2869 1943 c-13 -16 -12 -17 4 -4 16 13 21 21 13 21 -2 0 -10 -8 -17
-17z"/>
<path d="M3151 1944 c-2 -37 36 -48 130 -36 l84 11 -81 -5 c-92 -5 -112 0
-124 30 l-9 21 0 -21z"/>
<path d="M3505 1953 c-31 -3 -43 -10 -52 -29 -12 -25 -12 -25 12 -10 24 16 55
21 55 10 0 -30 -76 -114 -103 -114 -16 0 -17 -3 -8 -14 10 -11 9 -21 -2 -43
-20 -38 -47 -61 -104 -90 -42 -20 -41 -24 1 -7 11 4 13 -4 9 -38 -4 -38 -1
-49 28 -88 19 -24 54 -55 77 -69 47 -28 71 -61 72 -99 0 -19 -4 -22 -20 -17
-10 3 -33 -1 -50 -10 -29 -15 -30 -18 -30 -79 l0 -63 -37 -6 c-21 -3 -46 -8
-55 -12 -14 -5 -17 0 -21 32 -3 30 -4 26 -5 -19 -2 -67 3 -85 32 -100 20 -10
20 -10 -1 11 -33 31 -29 57 8 70 18 6 47 11 65 11 40 0 64 9 64 23 0 6 6 18
13 27 6 9 0 3 -14 -12 -14 -15 -29 -28 -32 -28 -4 0 -7 29 -7 63 0 56 3 65 23
74 23 11 71 7 96 -7 10 -5 29 2 59 22 36 25 46 28 54 17 7 -12 8 -11 6 1 -1 8
11 35 28 60 34 49 64 104 64 117 0 4 -15 -17 -33 -48 -41 -73 -63 -98 -113
-131 -55 -38 -71 -36 -83 10 -15 52 -36 79 -82 103 -46 23 -99 98 -99 140 0
20 15 42 55 82 30 30 55 63 55 73 0 11 20 41 44 68 25 26 48 62 52 80 l7 31
23 -50 c26 -58 30 -56 9 5 -18 52 -19 48 3 53 14 4 13 5 -3 4 -11 0 -38 -2
-60 -4z"/>
<path d="M3008 1943 c17 -2 47 -2 65 0 17 2 3 4 -33 4 -36 0 -50 -2 -32 -4z"/>
<path d="M2110 1927 c0 -14 39 -41 47 -33 3 3 -2 8 -11 12 -9 3 -16 12 -16 20
0 8 -4 14 -10 14 -5 0 -10 -6 -10 -13z"/>
<path d="M4051 1924 c0 -12 7 -28 17 -35 15 -12 16 -12 6 1 -7 8 -14 24 -17
35 -4 19 -5 19 -6 -1z"/>
<path d="M1940 1925 c0 -35 91 -115 130 -115 8 0 -3 9 -25 19 -40 18 -73 48
-93 86 -6 11 -11 16 -12 10z"/>
<path d="M2573 1855 c0 -44 2 -61 4 -37 2 23 2 59 0 80 -2 20 -4 1 -4 -43z"/>
<path d="M2642 1887 c-2 -59 -26 -117 -47 -117 -9 0 -13 -5 -10 -11 11 -16 44
19 56 60 6 20 9 54 6 76 -4 40 -4 39 -5 -8z"/>
<path d="M2888 1923 c7 -3 16 -2 19 1 4 3 -2 6 -13 5 -11 0 -14 -3 -6 -6z"/>
<path d="M3045 1905 c33 -14 65 -25 70 -25 15 1 -98 49 -115 49 -8 0 12 -11
45 -24z"/>
<path d="M2071 1904 c0 -11 3 -14 6 -6 3 7 2 16 -1 19 -3 4 -6 -2 -5 -13z"/>
<path d="M2943 1913 c9 -2 23 -2 30 0 6 3 -1 5 -18 5 -16 0 -22 -2 -12 -5z"/>
<path d="M2491 1890 c-13 -11 -19 -20 -14 -20 6 0 18 9 28 20 23 25 17 25 -14
0z"/>
<path d="M2856 1893 c-6 -14 -5 -15 5 -6 7 7 10 15 7 18 -3 3 -9 -2 -12 -12z"/>
<path d="M3409 1895 c-3 -2 -30 -9 -60 -14 -50 -8 -51 -9 -14 -9 35 -1 119 25
89 27 -6 1 -13 -1 -15 -4z"/>
<path d="M1771 1878 c-2 -28 19 -71 47 -101 26 -27 103 -77 119 -77 4 0 -16
14 -45 31 -59 35 -96 77 -110 129 -6 19 -11 27 -11 18z"/>
<path d="M2246 1867 c-3 -13 -16 -29 -28 -35 -13 -6 -17 -11 -10 -11 17 -1 52
35 52 54 0 22 -7 18 -14 -8z"/>
<path d="M2720 1882 c0 -13 58 -52 75 -52 6 1 -3 8 -20 16 -16 9 -36 23 -42
32 -8 10 -13 11 -13 4z"/>
<path d="M2088 1868 c6 -6 18 -8 28 -6 14 3 12 5 -9 10 -19 3 -25 2 -19 -4z"/>
<path d="M2171 1864 c-1 -15 -14 -28 -43 -43 -30 -15 -37 -21 -22 -21 12 0 27
6 34 14 6 8 19 16 29 18 13 2 16 9 10 28 -6 22 -7 23 -8 4z"/>
<path d="M2420 1870 c8 -5 22 -9 30 -9 10 0 8 3 -5 9 -27 12 -43 12 -25 0z"/>
<path d="M2900 1845 c11 -21 20 -47 20 -57 0 -15 3 -16 25 -6 14 6 25 18 25
27 -1 14 -2 13 -11 -1 -13 -24 -29 -23 -29 1 0 11 -11 33 -25 48 l-25 28 20
-40z"/>
<path d="M2824 1854 c-18 -14 -18 -15 4 -4 12 6 22 13 22 15 0 8 -5 6 -26 -11z"/>
<path d="M3187 1863 c18 -2 50 -2 70 0 21 2 7 4 -32 4 -38 0 -55 -2 -38 -4z"/>
<path d="M3515 1820 c-8 -50 -42 -101 -79 -118 -15 -8 -25 -16 -22 -19 10 -11
65 32 84 66 20 35 39 111 29 111 -3 0 -8 -18 -12 -40z"/>
<path d="M3726 1825 c8 -50 14 -58 14 -19 0 16 -5 36 -11 44 -7 11 -8 4 -3
-25z"/>
<path d="M3580 1828 c0 -9 7 -19 16 -22 15 -6 15 -4 3 11 -7 10 -15 20 -16 22
-2 2 -3 -3 -3 -11z"/>
<path d="M3647 1813 c-16 -8 -26 -17 -23 -20 3 -3 17 2 31 11 15 10 33 15 41
12 8 -3 14 -1 14 4 0 14 -30 11 -63 -7z"/>
<path d="M2160 1787 c-8 -17 -30 -40 -49 -51 -31 -18 -34 -18 -43 -3 -5 10
-22 24 -38 32 -43 22 -48 18 -10 -7 48 -33 49 -48 3 -48 -24 0 -52 9 -75 25
-51 34 -59 31 -13 -5 47 -37 102 -40 165 -7 45 22 85 67 79 85 -2 6 -11 -4
-19 -21z"/>
<path d="M2795 1800 c-3 -5 -1 -10 4 -10 6 0 11 5 11 10 0 6 -2 10 -4 10 -3 0
-8 -4 -11 -10z"/>
<path d="M2680 1786 c0 -2 7 -7 16 -10 8 -3 12 -2 9 4 -6 10 -25 14 -25 6z"/>
<path d="M2880 1784 c0 -7 9 -31 20 -55 25 -57 25 -100 -1 -150 -15 -30 -25
-40 -39 -36 -11 3 -22 -3 -29 -17 -16 -31 -17 -41 -6 -43 5 -2 10 7 10 19 0
12 6 23 14 26 9 3 11 -1 6 -17 -4 -12 -2 -21 4 -21 6 0 11 8 11 19 0 10 7 25
17 32 23 19 43 72 43 111 -1 30 -49 158 -50 132z"/>
<path d="M3355 1770 c-20 -22 -45 -27 -45 -8 0 6 -14 -1 -31 -18 -28 -26 -31
-27 -40 -12 -9 17 -11 17 -31 -2 -29 -27 -58 -26 -58 2 0 17 -3 19 -12 10 -7
-7 -22 -12 -35 -12 -18 0 -23 6 -24 28 0 24 -1 25 -9 7 -10 -25 24 -58 51 -50
11 4 19 2 19 -4 0 -16 43 -13 66 3 14 10 23 11 32 4 9 -8 20 -6 41 10 21 15
31 18 40 9 8 -8 18 -5 38 16 15 14 25 29 22 32 -3 3 -14 -4 -24 -15z"/>
<path d="M3713 1725 c0 -38 2 -53 4 -32 2 20 2 52 0 70 -2 17 -4 1 -4 -38z"/>
<path d="M2977 1769 c7 -7 15 -10 18 -7 3 3 -2 9 -12 12 -14 6 -15 5 -6 -5z"/>
<path d="M3020 1761 c-12 -23 -13 -31 -2 -31 4 0 12 11 19 25 13 29 -1 34 -17
6z"/>
<path d="M1615 1750 c-3 -5 -1 -10 5 -10 6 0 23 -13 37 -30 13 -16 28 -30 33
-30 4 0 -5 14 -21 31 -16 17 -29 35 -29 40 0 12 -17 11 -25 -1z"/>
<path d="M2311 1733 c-10 -26 -10 -27 4 -9 8 11 15 23 15 28 0 15 -7 8 -19
-19z"/>
<path d="M1620 1721 c0 -7 23 -50 52 -97 50 -82 51 -85 33 -104 -10 -11 -14
-20 -8 -20 17 0 48 41 37 48 -6 4 -33 45 -59 92 -54 96 -55 98 -55 81z"/>
<path d="M3742 1700 c0 -19 2 -27 5 -17 2 9 2 25 0 35 -3 9 -5 1 -5 -18z"/>
<path d="M1761 1679 c-13 -10 -19 -19 -13 -19 8 0 62 -101 62 -116 0 -2 -14
-4 -32 -4 -17 0 -28 -3 -24 -7 4 -4 22 -6 41 -5 23 3 39 -3 52 -18 16 -16 25
-19 44 -11 13 5 18 10 12 10 -7 1 -13 8 -13 16 0 8 -5 15 -11 15 -6 0 -9 -6
-6 -14 10 -24 -3 -25 -29 -1 -26 24 -77 131 -69 145 3 4 28 -1 56 -11 28 -11
53 -18 56 -15 2 2 -18 11 -46 21 -27 9 -51 20 -53 25 -2 5 -14 0 -27 -11z"/>
<path d="M2252 1643 c-40 -53 -40 -55 -7 -18 33 36 60 75 53 75 -2 0 -23 -26
-46 -57z"/>
<path d="M2539 1661 c8 -5 11 -16 8 -26 -4 -9 -3 -14 3 -10 17 11 11 45 -7 45
-15 0 -15 -2 -4 -9z"/>
<path d="M1703 1648 c9 -7 25 -33 37 -58 11 -25 17 -34 14 -21 -14 53 -35 91
-51 91 -16 0 -16 -1 0 -12z"/>
<path d="M3437 1643 c-11 -10 -8 -56 4 -73 8 -11 12 -12 16 -2 5 13 33 17 33
4 0 -4 -6 -14 -12 -21 -11 -11 -10 -13 2 -9 8 3 15 13 15 24 0 15 -6 19 -29
17 -26 -2 -28 0 -24 32 4 38 4 38 -5 28z"/>
<path d="M1865 1621 c57 -35 78 -67 71 -103 -6 -30 -5 -31 10 -17 14 15 14 20
1 52 -14 32 -78 87 -102 87 -5 0 4 -8 20 -19z"/>
<path d="M1933 1605 c41 -47 45 -92 13 -144 -14 -22 -34 -41 -44 -42 -9 0 -12
-3 -5 -5 21 -9 51 15 69 55 16 36 20 39 71 45 50 6 145 44 157 64 2 4 -21 -5
-52 -20 -31 -16 -81 -31 -109 -35 -50 -5 -53 -4 -53 16 0 12 -17 39 -37 59
-21 21 -25 24 -10 7z"/>
<path d="M2491 1626 c-12 -14 -12 -16 3 -10 21 8 22 -19 1 -36 -12 -10 -15 -9
-16 6 0 11 -3 14 -5 7 -3 -7 -1 -20 4 -29 8 -14 12 -12 30 13 18 25 19 33 9
47 -12 16 -14 16 -26 2z"/>
<path d="M3175 1620 c-11 -5 -54 -10 -95 -11 l-75 -3 65 -3 c35 -2 70 -9 78
-15 10 -9 12 -8 10 2 -2 7 13 18 32 25 19 8 28 14 20 14 -8 0 -24 -4 -35 -9z"/>
<path d="M3706 1603 c-4 -18 -16 -44 -27 -58 -12 -14 -19 -31 -17 -37 3 -7 17
13 32 44 15 32 26 63 23 70 -2 7 -7 -1 -11 -19z"/>
<path d="M1641 1604 c-2 -23 30 -112 44 -124 15 -13 55 -5 55 11 0 6 -7 6 -19
0 -24 -14 -38 3 -62 72 -10 29 -18 47 -18 41z"/>
<path d="M2970 1580 c-6 -11 -9 -20 -8 -20 2 0 11 9 21 20 9 11 13 20 7 20 -5
0 -14 -9 -20 -20z"/>
<path d="M1841 1570 c14 -31 19 -36 19 -24 0 6 -7 19 -16 30 -14 18 -14 18 -3
-6z"/>
<path d="M3732 1570 c0 -14 2 -19 5 -12 2 6 2 18 0 25 -3 6 -5 1 -5 -13z"/>
<path d="M3190 1533 c13 -18 25 -33 27 -33 8 0 -17 38 -33 51 -11 9 -9 2 6
-18z"/>
<path d="M2510 1499 c-10 -24 -10 -32 0 -42 10 -9 11 -9 6 0 -4 7 0 26 9 43 8
16 11 30 6 30 -5 0 -14 -14 -21 -31z"/>
<path d="M2890 1463 c-56 -68 -88 -114 -58 -83 23 23 118 140 118 146 0 9 -6
2 -60 -63z"/>
<path d="M3530 1511 c-13 -25 -13 -31 0 -31 6 0 10 6 10 14 0 8 5 18 11 22 8
5 10 -1 7 -20 -7 -38 23 -54 59 -31 13 9 22 19 19 22 -3 4 -15 -2 -25 -11 -22
-20 -43 -13 -39 12 3 20 -9 42 -22 42 -5 0 -14 -9 -20 -19z"/>
<path d="M3221 1474 c0 -11 3 -14 6 -6 3 7 2 16 -1 19 -3 4 -6 -2 -5 -13z"/>
<path d="M2719 1459 c-9 -17 -8 -24 7 -38 11 -9 13 -9 6 -1 -16 18 -15 25 4
44 8 9 11 16 5 16 -6 0 -15 -10 -22 -21z"/>
<path d="M2180 1460 c-8 -5 -10 -10 -5 -10 6 0 17 5 25 10 8 5 11 10 5 10 -5
0 -17 -5 -25 -10z"/>
<path d="M2549 1458 c0 -2 -3 -16 -5 -33 -5 -29 -4 -29 10 -10 18 23 21 45 6
45 -5 0 -10 -1 -11 -2z"/>
<path d="M2750 1441 c0 -25 6 -27 13 -6 4 8 2 17 -3 20 -6 4 -10 -3 -10 -14z"/>
<path d="M1737 1439 c7 -7 15 -10 18 -7 3 3 -2 9 -12 12 -14 6 -15 5 -6 -5z"/>
<path d="M2105 1440 c-27 -7 -28 -8 -5 -8 14 0 34 3 45 8 25 11 2 11 -40 0z"/>
<path d="M1780 1420 c8 -5 26 -10 39 -10 32 0 24 6 -19 14 -25 4 -31 3 -20 -4z"/>
<path d="M1993 1423 c15 -2 37 -2 50 0 12 2 0 4 -28 4 -27 0 -38 -2 -22 -4z"/>
<path d="M2620 1405 c-16 -19 -1 -19 24 0 16 12 17 15 4 15 -8 0 -21 -7 -28
-15z"/>
<path d="M2800 1334 c-6 -14 -10 -27 -10 -29 0 -2 -13 -32 -29 -67 -15 -35
-31 -71 -34 -80 -8 -21 -27 -24 -27 -4 0 25 -61 41 -150 40 -47 -1 -88 3 -91
8 -9 14 -129 -106 -129 -128 0 -12 13 0 35 33 40 60 60 73 109 73 l36 0 -27
-54 c-23 -48 -25 -58 -14 -82 6 -15 14 -24 17 -21 3 3 -1 15 -8 26 -11 19 -9
28 16 76 34 66 58 71 105 23 53 -54 53 -144 1 -159 -21 -6 -18 -7 15 -8 86 -2
144 32 132 77 -4 13 -5 12 -6 -4 -1 -29 -29 -51 -73 -59 l-37 -7 11 29 c17 45
2 98 -40 140 -33 33 -34 36 -12 30 14 -4 34 -7 46 -7 11 0 29 -7 40 -15 19
-15 19 -15 -1 -9 -12 3 -10 -1 7 -11 15 -8 34 -28 42 -43 9 -15 15 -22 15 -17
1 6 -3 16 -8 24 -6 9 0 34 16 70 36 81 74 181 68 181 -3 0 -10 -12 -15 -26z"/>
<path d="M3230 1341 c0 -5 5 -13 10 -16 6 -3 10 -2 10 4 0 5 -4 13 -10 16 -5
3 -10 2 -10 -4z"/>
<path d="M2573 1296 c-4 -7 -32 -25 -60 -40 -29 -14 -53 -29 -53 -32 0 -3 34
13 76 35 41 23 84 41 93 41 26 0 65 -34 84 -72 10 -19 17 -26 17 -16 0 9 -17
35 -38 58 -32 32 -46 40 -75 40 -20 0 -40 -6 -44 -14z"/>
<path d="M3430 1300 c-11 -7 -6 -8 17 -4 23 5 42 0 68 -16 20 -12 39 -20 42
-16 4 3 1 6 -6 6 -7 0 -9 5 -5 13 4 6 4 9 -1 5 -4 -4 -20 -1 -36 7 -32 17 -58
19 -79 5z"/>
<path d="M3468 1219 c-22 -24 -20 -24 33 1 42 19 42 20 14 19 -16 0 -38 -9
-47 -20z"/>
<path d="M3531 1204 c-1 -12 12 -41 29 -65 16 -24 30 -52 30 -63 0 -17 -6 -18
-77 -12 -43 4 -103 9 -133 11 l-55 4 50 -9 c28 -6 91 -11 140 -12 85 -3 90 -2
87 17 -2 11 -15 38 -29 59 -14 22 -29 51 -33 65 -7 22 -8 23 -9 5z"/>
<path d="M2342 1150 c0 -19 2 -27 5 -17 2 9 2 25 0 35 -3 9 -5 1 -5 -18z"/>
<path d="M2510 1113 c8 -3 22 -11 30 -17 13 -10 13 -9 1 7 -7 9 -21 17 -30 16
-13 0 -14 -1 -1 -6z"/>
<path d="M2551 1064 c0 -11 3 -14 6 -6 3 7 2 16 -1 19 -3 4 -6 -2 -5 -13z"/>
<path d="M2530 1029 c0 -5 5 -7 10 -4 6 3 10 8 10 11 0 2 -4 4 -10 4 -5 0 -10
-5 -10 -11z"/>
<path d="M2355 1002 c17 -18 34 -22 120 -26 l100 -5 -101 12 c-56 7 -110 18
-120 26 -16 13 -16 12 1 -7z"/>
</g>
</svg>
