<?xml version="1.0" standalone="no"?>
<!DOCTYPE svg PUBLIC "-//W3C//DTD SVG 20010904//EN"
 "http://www.w3.org/TR/2001/REC-SVG-20010904/DTD/svg10.dtd">
<svg version="1.0" xmlns="http://www.w3.org/2000/svg"
   viewBox="0 0 734.000000 1078.000000"
 preserveAspectRatio="xMidYMid meet">

<g transform="translate(0.000000,1078.000000) scale(0.100000,-0.100000)"
fill="currentColor" stroke="none">
<path d="M4741 10628 c-21 -133 22 -334 109 -508 21 -41 50 -113 65 -160 25
-79 26 -93 20 -197 l-7 -113 -113 -108 -112 -109 -149 -7 c-82 -4 -172 -9
-201 -12 l-52 -6 -22 45 c-19 40 -31 50 -92 78 -67 31 -72 31 -156 24 -129
-12 -207 -4 -228 23 -17 21 -16 111 2 142 20 35 19 40 -10 40 -14 0 -46 -16
-72 -36 -40 -31 -52 -35 -82 -29 -43 8 -155 93 -198 151 -26 34 -47 48 -110
72 -43 17 -79 27 -81 23 -1 -4 11 -38 27 -74 17 -37 26 -67 22 -67 -20 0 -409
114 -436 127 -16 9 -52 32 -79 51 l-49 36 7 -40 c4 -21 23 -70 42 -108 19 -38
33 -70 31 -72 -2 -3 -42 -7 -88 -10 -46 -3 -147 -17 -224 -31 l-139 -26 69
-24 c62 -21 115 -55 115 -74 0 -4 -19 -14 -42 -24 -44 -17 -178 -139 -178
-161 0 -23 -57 -34 -121 -22 l-62 11 -41 -41 c-145 -142 -119 -132 -341 -132
-104 0 -206 5 -226 10 -19 5 -48 23 -64 40 -16 16 -36 30 -45 30 -17 0 -74 88
-96 147 -17 48 -19 330 -3 404 6 29 38 108 71 176 l60 124 -4 102 c-3 89 -7
110 -33 162 -22 43 -36 61 -53 63 -17 3 -22 -2 -22 -18 0 -34 -89 -243 -116
-271 -13 -14 -24 -29 -24 -33 0 -10 -62 -97 -104 -147 -17 -19 -43 -55 -58
-80 -15 -24 -56 -84 -91 -134 -122 -174 -173 -417 -132 -629 23 -123 91 -249
171 -317 149 -127 302 -209 432 -230 70 -12 72 -13 72 -40 0 -45 -28 -68 -117
-95 -45 -14 -104 -40 -131 -58 -27 -19 -75 -47 -108 -64 -65 -33 -163 -128
-213 -207 -27 -42 -31 -58 -31 -116 0 -59 3 -70 22 -84 13 -9 37 -26 55 -38
17 -12 50 -36 72 -53 36 -28 111 -61 231 -103 53 -19 226 -25 290 -11 30 6 69
12 85 13 28 2 30 -1 33 -36 2 -24 -3 -48 -13 -63 -9 -14 -26 -62 -37 -107 -36
-143 -10 -310 68 -426 l26 -40 -25 -33 c-34 -47 -47 -91 -47 -167 l0 -67 -62
-36 c-35 -20 -106 -54 -158 -77 -52 -23 -99 -45 -105 -49 -14 -10 -125 -140
-160 -187 -16 -22 -68 -80 -116 -130 -134 -141 -258 -366 -308 -560 -70 -272
-74 -292 -76 -465 -2 -143 -5 -174 -25 -230 -37 -106 -60 -153 -84 -180 -13
-14 -35 -44 -49 -67 -15 -23 -61 -86 -105 -140 -43 -54 -85 -110 -95 -125 -18
-28 -64 -169 -92 -278 -55 -214 -110 -905 -86 -1082 6 -45 11 -181 11 -304 0
-151 5 -245 14 -295 8 -41 17 -91 21 -112 9 -54 92 -149 182 -208 42 -27 81
-49 89 -49 7 0 49 -12 93 -26 l81 -26 100 21 c89 18 108 26 159 65 101 78 135
138 99 174 -9 9 -7 12 13 12 13 0 41 11 61 25 29 19 41 37 53 77 8 28 15 63
15 77 -1 34 -36 118 -88 209 -34 61 -44 88 -50 150 -13 118 -7 148 51 222 27
36 60 73 73 83 12 10 38 39 57 65 19 26 70 85 114 132 114 122 247 350 204
350 -5 0 -13 -10 -16 -22 -4 -13 -36 -72 -71 -133 -45 -78 -88 -135 -147 -196
-46 -48 -94 -103 -107 -123 -12 -21 -33 -44 -45 -52 -13 -8 -48 -48 -79 -89
-66 -85 -92 -102 -82 -54 5 26 3 30 -11 25 -10 -4 -26 3 -43 19 -24 23 -26 30
-19 68 4 23 19 75 33 115 14 41 26 96 26 122 0 54 14 74 24 35 8 -30 16 -31
50 -4 19 15 26 30 26 55 0 19 7 46 17 60 10 17 17 49 18 93 1 37 5 73 9 80 12
19 36 -7 36 -40 0 -16 4 -29 9 -29 5 0 17 -3 26 -6 14 -6 16 1 14 53 -1 32 2
67 8 78 10 17 12 16 25 -10 l15 -27 17 41 c9 23 14 46 11 51 -2 4 -9 38 -14
75 -9 62 -14 72 -57 116 -26 26 -61 53 -78 60 -42 17 -65 38 -87 80 -12 24
-30 41 -51 49 -18 7 -27 14 -21 17 7 2 23 -3 35 -11 28 -20 73 -20 128 -1 23
8 55 15 69 15 30 0 111 74 111 102 0 9 9 26 19 39 l19 24 11 -28 c6 -16 11
-41 11 -56 0 -16 7 -47 15 -70 8 -23 17 -65 21 -94 4 -29 31 -116 60 -195 33
-87 54 -158 54 -183 0 -28 4 -39 13 -36 7 2 11 16 9 33 -3 22 0 26 8 18 6 -6
16 -45 22 -85 5 -41 18 -105 29 -144 11 -39 19 -102 19 -142 l0 -73 -51 0
c-42 0 -57 -5 -90 -32 -42 -33 -69 -83 -69 -123 0 -33 -10 -55 -25 -55 -16 0
-22 -36 -31 -187 -7 -127 2 -175 32 -187 11 -4 14 -37 14 -168 l0 -163 38 -41
c26 -29 56 -48 100 -64 l64 -23 -5 -46 c-2 -25 -13 -66 -23 -91 -15 -39 -18
-84 -22 -342 l-4 -297 26 -63 c14 -36 28 -84 32 -109 11 -69 42 -122 134 -225
64 -71 90 -144 90 -249 0 -61 -4 -88 -15 -98 -24 -25 -102 -142 -110 -166 -3
-12 -38 -58 -77 -104 -38 -45 -82 -104 -96 -130 -65 -117 -65 -117 -55 -150 8
-28 16 -34 88 -58 44 -14 94 -32 110 -40 24 -11 86 -14 290 -13 357 1 651 29
746 71 46 20 60 32 72 61 28 64 37 114 37 200 0 108 58 352 103 431 l31 55 -2
170 -3 170 63 60 c69 67 124 137 157 204 19 37 26 43 44 38 12 -3 93 -6 179
-6 l157 0 49 -72 c27 -40 66 -102 86 -138 54 -92 140 -204 187 -242 22 -18 62
-70 89 -115 27 -45 62 -99 78 -122 18 -24 34 -65 42 -103 14 -74 88 -238 106
-238 7 0 15 -8 18 -17 17 -60 28 -151 24 -208 -3 -51 -1 -64 9 -61 7 3 13 2
13 -2 0 -16 -22 -89 -36 -119 -23 -51 -18 -75 29 -120 52 -50 66 -58 153 -78
99 -24 207 -34 297 -28 l77 6 0 44 c0 24 -5 76 -12 115 -10 62 -9 77 7 126
l19 55 17 -39 c14 -30 18 -69 18 -171 l1 -133 33 0 c17 0 43 -9 55 -18 23 -18
27 -18 115 -1 51 10 117 19 147 19 65 1 80 11 112 70 21 42 23 58 26 238 3
150 0 204 -12 245 -17 59 -20 183 -18 711 l1 340 123 -126 c136 -138 164 -156
364 -234 143 -55 234 -68 419 -58 119 5 146 4 166 -9 28 -17 103 -33 205 -42
92 -9 244 29 319 79 28 18 66 41 84 51 66 34 178 162 158 181 -2 3 -20 -4 -38
-15 -19 -11 -50 -27 -70 -35 -35 -15 -35 -14 21 44 49 51 63 75 108 189 34 85
52 144 52 172 0 23 4 56 9 73 17 55 28 135 19 138 -4 2 -4 19 2 38 12 42 13
70 2 70 -4 0 -35 -35 -67 -77 -33 -42 -71 -88 -85 -101 -48 -46 -142 -104
-223 -137 -80 -32 -82 -32 -85 -12 -3 13 5 28 17 38 20 17 56 87 49 95 -2 2
-24 -10 -48 -26 -25 -17 -52 -30 -60 -30 -9 0 -33 -9 -54 -19 -20 -11 -50 -24
-66 -30 -64 -22 -174 -96 -238 -159 -59 -60 -85 -99 -126 -191 -6 -13 -20 -27
-32 -31 -21 -8 -226 19 -289 38 -52 16 -266 177 -331 249 -34 38 -83 102 -109
143 -26 41 -69 105 -96 141 -32 43 -49 77 -49 95 0 16 -11 53 -25 81 -32 70
-61 233 -43 245 7 4 18 8 23 8 6 0 36 18 69 40 32 22 62 40 67 40 5 0 6 6 3
14 -3 8 2 29 12 47 15 30 16 61 11 304 l-5 270 -31 83 c-17 45 -38 97 -48 115
-9 17 -16 43 -14 56 2 13 -3 44 -10 68 -9 35 -21 50 -52 70 l-39 25 7 66 c5
45 18 88 40 132 18 36 44 93 58 127 14 34 39 83 57 108 32 47 73 159 62 169
-3 3 0 6 7 6 7 0 51 -34 97 -76 l84 -76 0 -122 c0 -149 13 -222 51 -299 17
-32 43 -99 59 -148 17 -50 41 -109 55 -133 23 -39 25 -53 25 -159 l0 -116 -47
-38 c-27 -21 -87 -76 -134 -123 -71 -70 -93 -100 -129 -174 -41 -84 -44 -96
-48 -191 -5 -119 6 -153 70 -211 34 -31 46 -35 79 -32 l39 4 0 -41 c0 -44 27
-93 89 -158 51 -54 100 -77 165 -77 47 0 53 -2 50 -17 -3 -10 1 -27 9 -37 19
-26 88 -30 288 -18 144 8 162 11 222 40 135 63 218 142 252 239 9 26 27 77 40
113 28 76 42 149 54 282 7 73 15 105 31 127 24 35 84 205 95 269 4 24 20 80
36 123 16 44 29 95 29 114 0 44 27 160 46 196 8 16 21 57 29 91 15 67 48 375
41 386 -2 4 -9 88 -16 187 -11 166 -15 189 -50 294 -30 86 -55 139 -108 220
-39 58 -95 151 -125 206 -30 55 -70 127 -91 159 -20 33 -45 84 -56 114 -12 30
-32 73 -45 96 -18 31 -26 61 -29 114 -3 58 -10 81 -35 122 -18 29 -34 66 -37
83 -17 106 -29 155 -45 182 -9 17 -36 86 -59 154 -32 94 -54 138 -90 185 -25
34 -62 89 -80 122 -19 32 -51 81 -72 107 -21 27 -38 53 -38 58 0 5 -16 17 -35
26 -27 13 -50 41 -95 113 -69 111 -146 191 -212 219 -27 11 -48 25 -48 31 0 5
-5 10 -12 10 -6 0 -19 6 -27 13 -9 8 -36 19 -61 26 -24 7 -79 33 -122 57 -43
24 -102 53 -132 64 -128 48 -254 160 -271 241 -4 19 -20 68 -35 109 -16 41
-31 91 -35 110 -20 110 -43 154 -123 232 -42 42 -89 81 -103 87 -14 5 -51 25
-82 45 -48 31 -58 43 -76 91 -12 31 -21 60 -21 64 0 11 82 3 147 -15 69 -19
300 -19 372 1 59 15 87 29 261 124 136 75 160 96 170 149 6 34 3 48 -23 92
-29 51 -132 148 -208 195 -76 48 -155 83 -302 134 -145 50 -152 51 -263 51
-64 0 -162 -7 -220 -16 -58 -9 -106 -15 -108 -13 -2 2 -6 15 -8 28 -3 23 2 25
182 67 102 23 223 56 270 72 107 37 245 119 349 206 71 61 87 81 141 180 l61
111 6 160 c5 149 4 168 -22 285 l-28 125 -95 140 c-61 89 -149 197 -241 299
-167 181 -239 262 -297 331 l-41 49 -12 -76z m105 -67 c38 -44 137 -153 219
-243 97 -106 185 -213 247 -303 l96 -140 27 -130 c26 -120 27 -141 22 -275
l-7 -146 -58 -107 c-51 -93 -69 -116 -138 -175 -105 -90 -247 -172 -364 -210
-52 -17 -167 -47 -255 -67 -208 -47 -195 -42 -195 -73 0 -25 -5 -21 -71 43
-87 87 -154 201 -175 300 -18 83 -20 147 -5 172 9 15 10 11 11 -20 1 -135 169
-219 439 -220 104 -1 124 2 191 27 128 49 216 104 294 186 88 93 133 159 150
225 57 211 41 362 -48 462 -44 49 -120 98 -137 87 -5 -3 -9 -51 -9 -106 0 -92
-3 -106 -27 -147 -88 -151 -172 -231 -294 -281 -69 -29 -78 -30 -213 -29
l-141 2 157 11 157 11 113 110 113 110 6 60 c18 171 -2 277 -82 437 -74 148
-126 362 -113 463 4 25 10 45 14 45 4 0 39 -36 76 -79z m-3428 -140 c17 -40
22 -75 22 -139 0 -83 -1 -88 -59 -207 -32 -67 -64 -145 -70 -174 -6 -29 -11
-126 -11 -216 0 -138 3 -173 19 -215 28 -72 80 -150 101 -150 10 0 24 -7 31
-17 13 -15 7 -16 -78 -10 -152 10 -235 61 -288 179 -25 56 -27 68 -23 173 3
113 3 114 50 204 26 50 46 91 43 91 -2 0 -20 -7 -38 -16 -26 -12 -42 -32 -63
-77 -16 -33 -33 -65 -39 -71 -14 -15 -95 -180 -95 -193 0 -5 -6 -23 -14 -39
-20 -40 -37 -205 -26 -245 15 -53 115 -210 167 -263 26 -26 67 -62 91 -78 71
-49 208 -108 251 -108 21 0 62 -5 91 -10 37 -7 88 -7 164 1 108 11 135 20 183
63 13 10 25 17 28 15 2 -3 2 -28 -1 -56 -6 -45 -10 -52 -41 -67 -18 -9 -52
-16 -74 -16 -61 0 -152 -46 -199 -101 -14 -17 -19 -17 -105 0 -49 11 -117 31
-149 45 -72 32 -206 120 -266 175 -25 23 -48 41 -53 41 -4 0 -18 24 -32 53
-14 28 -35 67 -47 86 -27 42 -57 186 -58 276 0 147 58 341 139 460 30 44 57
82 61 85 4 3 22 30 40 60 18 30 45 69 60 85 36 40 100 131 100 141 0 4 11 19
24 33 25 27 116 236 116 268 0 28 23 -3 48 -66z m1685 -590 c125 -35 230 -62
232 -59 3 3 -6 33 -21 67 -15 34 -25 64 -22 67 13 13 115 -45 139 -79 43 -61
160 -146 211 -153 37 -5 49 -2 85 25 24 17 44 31 46 31 1 0 1 -31 -1 -68 -3
-50 0 -78 12 -100 16 -30 15 -32 -1 -32 -10 0 -83 -5 -162 -10 -142 -10 -144
-10 -220 -52 -42 -23 -100 -62 -130 -87 l-54 -46 8 52 c8 59 14 58 -105 21
-139 -44 -222 -119 -280 -257 l-23 -53 -18 23 c-55 74 -84 136 -99 217 -9 47
-21 87 -26 89 -5 2 -27 -51 -49 -118 -22 -66 -45 -121 -50 -121 -19 0 -34 67
-34 155 l-1 87 -57 -29 c-32 -16 -67 -39 -78 -51 -11 -12 -28 -26 -37 -31 -16
-9 -18 -4 -18 50 0 60 0 61 60 125 44 46 80 73 127 95 l65 31 -43 40 c-24 22
-54 43 -66 46 -13 3 -23 9 -23 13 0 9 182 41 231 41 20 0 63 3 97 6 l60 7 -44
85 c-24 48 -44 89 -44 93 0 4 24 -7 53 -24 37 -22 124 -53 280 -96z m2111 17
c61 -71 87 -194 66 -311 -29 -168 -55 -219 -171 -342 -73 -76 -164 -133 -289
-181 -66 -25 -87 -28 -180 -27 -187 2 -324 45 -391 121 -29 33 -30 37 -28 125
3 87 5 93 33 124 30 31 33 32 76 23 25 -5 118 -9 206 -10 156 0 163 1 233 30
106 43 159 86 240 195 73 99 90 138 99 227 7 79 8 82 22 58 10 -18 15 -69 18
-172 l4 -148 -37 -92 c-21 -53 -50 -107 -68 -127 -88 -93 -247 -175 -407 -208
-81 -17 -301 -23 -337 -9 -36 13 -28 -10 8 -24 38 -16 266 -7 354 14 101 25
225 77 289 122 102 71 140 118 181 223 l37 93 -4 157 c-2 103 -8 164 -17 179
-12 22 -11 23 7 13 11 -6 36 -30 56 -53z m-4114 22 c-6 -11 -13 -20 -16 -20
-2 0 0 9 6 20 6 11 13 20 16 20 2 0 0 -9 -6 -20z m-51 -114 c-6 -22 -9 -86 -7
-145 3 -92 7 -115 32 -169 51 -111 132 -157 307 -172 63 -5 141 -17 174 -25
41 -10 113 -15 223 -15 187 0 176 10 116 -103 -19 -37 -50 -83 -68 -102 l-33
-35 -175 0 c-195 0 -233 8 -357 76 -84 46 -100 60 -122 110 -10 23 -25 46 -32
53 -8 6 -35 53 -61 104 l-47 93 0 108 c0 90 4 121 27 188 27 81 42 103 23 34z
m-71 -220 l0 -125 48 -88 c26 -48 58 -101 71 -116 13 -16 23 -35 23 -42 0 -33
65 -86 168 -137 l107 -53 185 -3 c205 -4 246 3 272 45 l17 28 1 -41 c0 -35 -5
-45 -37 -70 -92 -72 -80 -69 -283 -68 l-185 0 -105 51 c-140 68 -218 139 -300
275 -43 70 -62 112 -62 137 -2 60 13 174 27 206 7 17 21 51 30 78 10 26 19 47
20 47 1 0 3 -56 3 -124z m3216 -33 c36 -17 59 -36 68 -56 13 -28 13 -32 -15
-61 -37 -39 -62 -95 -82 -177 -13 -59 -13 -73 3 -154 14 -71 29 -111 72 -189
30 -54 65 -105 78 -114 37 -24 25 -32 -47 -32 -75 0 -125 13 -156 41 -11 10
-41 27 -68 38 -26 11 -58 32 -70 45 -12 14 -66 48 -119 76 -84 44 -108 52
-171 57 -79 6 -130 -11 -172 -57 -34 -38 -70 -50 -148 -50 -85 0 -180 -16
-185 -30 -2 -6 -240 -10 -659 -10 l-655 0 6 23 c3 12 8 68 12 122 6 90 11 108
47 180 36 71 112 165 133 165 4 0 26 20 48 45 l41 46 58 -11 c40 -8 68 -8 87
-1 l29 10 3 -75 3 -75 55 49 c46 41 107 82 123 82 3 0 6 -40 9 -89 3 -77 8
-95 32 -131 15 -23 31 -38 35 -34 4 5 22 57 41 116 18 59 37 105 41 102 4 -2
10 -27 14 -55 6 -39 23 -76 71 -152 l63 -99 26 57 c14 32 25 61 25 64 0 24 94
138 136 164 38 23 171 77 192 77 2 0 2 -27 0 -60 -2 -33 -3 -60 -2 -60 1 0 36
28 77 63 42 34 106 79 144 99 l69 37 229 15 c125 9 230 18 233 21 3 3 47 5 98
5 81 0 101 -4 148 -27z m-344 -605 c55 -29 100 -56 100 -60 0 -4 -156 -8 -347
-8 -229 0 -343 4 -333 10 8 5 53 10 100 10 69 0 92 4 120 21 19 12 39 28 43
35 4 8 25 23 45 34 30 17 50 20 105 16 58 -4 82 -13 167 -58z m182 -116 c34
-16 69 -36 76 -45 7 -9 27 -19 43 -22 l29 -7 1 -301 c1 -166 0 -309 -1 -317
-7 -50 -140 -153 -234 -182 -64 -19 -85 -20 -345 -16 -358 7 -339 1 -509 172
-40 40 -85 91 -101 113 -34 47 -105 108 -144 122 -16 6 -65 11 -110 11 -112 0
-154 -22 -267 -134 -50 -50 -90 -92 -90 -95 0 -3 -54 -61 -119 -129 l-119
-122 -253 2 -254 3 -52 77 c-65 98 -85 175 -91 357 -3 97 1 163 13 240 19 116
38 153 94 192 70 47 97 58 146 59 32 1 66 9 95 25 l45 24 1042 1 1041 0 64
-28z m389 -140 c-5 -2 -19 1 -30 7 -11 6 -36 11 -55 11 -50 0 -58 -21 -64
-170 -6 -151 3 -173 74 -192 24 -7 44 -15 44 -19 0 -16 -46 -62 -106 -103 -36
-25 -67 -46 -69 -46 -3 0 -5 128 -5 285 l0 284 78 3 c73 3 79 2 110 -27 18
-16 28 -31 23 -33z m636 -33 c213 -73 295 -117 416 -222 65 -57 107 -120 107
-161 0 -56 -41 -90 -55 -45 -4 11 -34 49 -66 84 -50 53 -72 68 -132 91 -40 14
-81 32 -92 39 -28 17 -89 26 -219 32 -93 4 -120 1 -180 -17 -39 -12 -82 -27
-95 -33 -14 -7 -73 -12 -139 -12 l-115 0 -9 30 c-6 21 -26 218 -23 226 0 0 50
8 110 18 61 10 162 19 227 20 115 1 118 1 265 -50z m-650 11 l30 -11 7 -128
c4 -70 4 -135 0 -145 -15 -38 -122 -27 -145 16 -12 23 -7 246 6 267 8 14 63
14 102 1z m-2922 -107 c-4 -10 -10 -62 -13 -115 l-5 -98 -96 0 c-96 0 -97 0
-171 -44 -41 -24 -96 -56 -122 -71 -39 -23 -51 -38 -77 -94 -43 -93 -46 -98
-65 -82 -11 9 -16 31 -16 70 0 45 6 66 28 102 51 80 142 169 206 201 34 17 80
44 104 61 23 17 80 43 125 58 100 33 111 35 102 12z m3670 -118 c22 -4 63 -18
92 -31 28 -13 55 -24 58 -24 25 0 99 -47 137 -88 44 -47 84 -109 75 -118 -6
-6 -202 -113 -267 -145 -131 -66 -373 -65 -600 2 -51 15 -80 32 -137 81 -72
63 -98 101 -109 156 -5 26 0 36 30 67 20 19 36 41 36 47 0 9 3 9 12 0 15 -15
204 -17 213 -2 3 6 19 10 34 10 15 0 31 3 35 7 4 4 37 18 74 30 57 19 83 22
172 19 58 -2 123 -7 145 -11z m-2312 -119 c40 -17 114 -81 136 -117 15 -24
125 -141 201 -214 14 -13 50 -34 80 -46 51 -20 76 -22 341 -27 270 -4 291 -3
356 16 42 13 91 38 128 65 l59 45 40 -25 c49 -30 94 -71 108 -97 9 -17 7 -18
-18 -14 -16 3 -37 9 -46 13 -15 6 -18 2 -18 -19 0 -30 23 -81 43 -93 7 -4 20
-20 30 -35 17 -27 16 -35 -20 -97 -2 -2 -9 2 -18 9 -20 17 -32 5 -15 -15 7 -9
10 -18 7 -22 -12 -12 -36 19 -39 50 -3 27 -9 34 -42 45 -33 10 -42 10 -53 -1
-12 -11 -8 -21 25 -63 30 -38 41 -62 46 -103 6 -47 5 -53 -7 -42 -8 6 -20 25
-27 41 -19 45 -30 26 -30 -48 0 -37 -3 -77 -6 -90 l-6 -22 -24 25 c-16 17 -24
38 -24 61 0 18 -4 34 -9 34 -11 0 -21 -49 -22 -114 l-2 -51 -11 69 c-6 38 -16
71 -21 73 -6 2 -18 -37 -29 -89 -23 -124 -23 -123 -40 -108 -22 17 -50 -2 -78
-52 -21 -38 -85 -94 -95 -84 -3 2 4 21 15 43 26 51 41 132 40 223 0 71 -1 76
-32 105 -47 44 -125 69 -195 62 -56 -5 -58 -4 -117 44 -32 27 -77 75 -99 107
-26 37 -67 76 -115 109 l-75 53 -472 -3 c-542 -2 -492 -17 -372 108 37 39 109
114 161 167 112 116 151 137 256 138 40 0 87 -6 105 -14z m-1373 -55 c0 -65
22 -182 43 -233 8 -18 35 -63 60 -101 l45 -67 -26 -7 c-46 -13 -244 -9 -292 6
-74 22 -193 70 -221 89 -14 9 -43 32 -63 50 l-38 33 39 77 c41 82 38 79 198
171 68 39 73 41 163 41 l92 0 0 -59z m2935 -55 c22 -47 154 -173 192 -182 17
-5 27 -22 44 -72 12 -37 34 -89 49 -117 15 -27 31 -66 35 -85 4 -19 21 -62 38
-95 57 -112 47 -196 -35 -297 -21 -26 -38 -51 -38 -56 0 -6 -19 -25 -42 -44
-24 -18 -75 -63 -115 -100 -78 -71 -293 -218 -463 -315 -161 -92 -286 -152
-507 -243 l-202 -83 -68 -71 c-37 -39 -77 -83 -88 -98 l-20 -27 -410 -2 c-225
-1 -415 -1 -422 0 -6 0 -14 9 -17 19 -7 20 -43 48 -157 121 -172 110 -356 307
-391 419 -11 35 -18 89 -18 138 0 125 26 130 84 17 43 -85 301 -313 354 -313
27 0 99 -54 116 -89 23 -43 90 -88 144 -96 26 -3 69 -13 96 -21 38 -11 86 -13
205 -8 198 7 275 19 331 52 25 14 86 46 135 70 131 64 347 182 370 203 15 13
54 23 125 32 63 8 122 22 146 35 28 14 44 18 51 11 7 -7 33 4 80 35 38 24 103
61 144 80 73 35 123 74 167 130 17 23 22 25 22 11 0 -10 -7 -26 -16 -36 -8 -9
-11 -20 -6 -23 5 -3 39 20 75 50 65 54 68 58 96 147 27 83 30 88 30 52 1 -22
-6 -51 -15 -63 -18 -26 -13 -38 10 -29 23 9 66 102 66 142 0 22 5 35 13 35 9
0 20 28 31 78 l17 77 -25 99 c-25 98 -46 142 -46 99 0 -12 5 -34 11 -50 36
-94 44 -238 10 -174 -22 40 -31 11 -31 -94 0 -57 -4 -106 -8 -109 -5 -3 -14
19 -21 49 -16 70 -41 76 -41 11 0 -25 -11 -81 -25 -125 -21 -67 -32 -85 -65
-111 l-40 -32 0 29 c0 16 5 34 11 40 6 6 8 16 4 23 -4 7 -23 -11 -49 -47 -60
-82 -130 -142 -186 -158 -21 -7 -23 -6 -13 7 7 8 10 18 6 21 -3 4 -31 -17 -62
-46 -64 -61 -108 -90 -98 -63 9 23 -10 30 -22 8 -18 -35 -138 -80 -239 -90
-69 -7 -99 -15 -115 -29 -34 -31 -218 -126 -211 -110 3 8 19 24 35 36 17 13
38 41 48 64 10 23 38 67 63 97 57 71 129 218 167 345 29 96 29 103 17 162 -8
36 -25 78 -40 98 -15 19 -25 35 -22 35 12 0 106 -52 113 -63 11 -18 12 -135 1
-197 -6 -30 -19 -73 -31 -95 -11 -22 -23 -55 -28 -73 l-7 -33 46 27 c63 36 90
62 114 107 21 42 39 44 48 7 6 -24 6 -23 27 10 11 19 24 55 27 80 4 25 11 52
17 60 11 15 8 -20 -7 -100 l-7 -35 22 20 c31 27 51 68 51 105 0 16 5 30 10 30
6 0 10 -3 10 -7 0 -5 9 -19 20 -33 l19 -25 15 37 c9 21 16 60 16 87 l0 49 31
-29 c51 -48 55 -43 38 44 -13 71 -7 82 32 62 27 -15 29 -14 29 4 0 14 5 19 15
15 11 -5 15 1 15 21 0 15 8 40 17 56 16 28 16 31 -1 62 -11 17 -29 41 -42 52
-12 11 -25 30 -28 41 -6 21 -5 21 39 11 25 -6 48 -8 51 -5 9 10 -32 81 -63
110 -15 15 -48 38 -72 51 l-43 25 31 23 c17 12 31 31 31 41 0 10 5 18 11 18 6
0 43 25 82 55 39 30 73 55 76 55 3 0 15 -20 26 -44z m-1273 -353 c40 -31 66
-59 72 -78 5 -16 16 -44 24 -61 27 -56 -2 -220 -48 -269 -31 -33 -19 -44 17
-14 51 42 84 247 48 295 -8 10 -15 30 -15 44 0 16 -18 41 -57 77 -73 69 -47
70 52 3 52 -35 86 -68 114 -108 21 -32 70 -84 109 -115 62 -51 74 -57 116 -57
26 0 55 -4 65 -10 29 -15 54 -61 66 -120 10 -50 8 -64 -18 -150 -37 -123 -108
-270 -165 -340 -25 -30 -53 -74 -63 -97 -10 -23 -29 -49 -43 -59 -14 -9 -35
-33 -47 -54 -17 -30 -38 -45 -112 -81 -51 -24 -113 -57 -139 -72 -71 -42 -97
-47 -297 -57 -169 -9 -190 -8 -259 10 -42 11 -85 20 -97 20 -29 0 -88 46 -124
97 -17 24 -48 54 -69 68 -45 30 -67 72 -87 164 -8 36 -17 76 -21 87 -6 23 -5
24 117 44 31 5 68 14 82 19 16 6 189 11 424 13 l398 2 55 27 c30 15 69 31 85
35 75 18 143 86 190 189 12 28 36 63 54 79 34 32 39 46 17 46 -18 0 -72 -67
-92 -116 -39 -93 -107 -161 -179 -178 -16 -4 -52 -19 -80 -33 l-50 -26 -400
-4 c-244 -2 -413 -8 -433 -14 -18 -6 -59 -15 -90 -20 -31 -6 -72 -13 -90 -16
-42 -7 -69 11 -115 79 -33 47 -39 68 -57 173 -11 66 -20 140 -20 165 0 39 20
178 35 247 10 42 125 154 190 184 l60 28 407 1 407 0 63 -47z m-1081 -68 c-33
-36 -63 -75 -66 -88 -17 -75 -35 -210 -35 -257 0 -72 35 -283 52 -312 30 -52
74 -107 96 -117 26 -12 38 -40 56 -128 7 -34 22 -80 33 -102 11 -23 18 -41 14
-41 -3 0 -33 22 -66 48 -33 27 -77 59 -97 73 -50 34 -143 139 -173 197 -31 60
-59 92 -79 92 -9 0 -16 4 -16 8 0 5 -15 29 -34 53 -47 59 -85 167 -93 260 -7
85 12 176 53 262 16 34 21 58 17 83 l-6 34 203 0 202 0 -61 -65z m2767 -15 c7
0 40 -25 73 -57 58 -56 59 -57 59 -113 0 -72 -16 -164 -37 -215 -18 -43 -119
-166 -162 -199 -14 -11 -55 -47 -91 -81 -79 -74 -323 -262 -442 -339 -48 -31
-184 -106 -302 -167 -167 -85 -236 -115 -308 -133 -176 -44 -205 -56 -253
-107 -39 -42 -44 -52 -51 -115 -4 -38 -7 -102 -6 -142 l0 -73 -46 -22 c-26
-12 -50 -23 -54 -25 -3 -2 -7 67 -7 153 l0 155 43 58 c98 127 122 143 348 236
225 93 336 146 498 239 165 94 383 242 457 310 38 34 92 82 121 105 28 24 52
49 52 55 0 6 13 25 29 42 87 90 104 196 50 313 -24 52 -58 150 -59 170 0 1 17
-9 37 -23 21 -14 44 -25 51 -25z m-649 -59 c11 -7 12 -15 5 -29 -8 -18 -10
-18 -32 9 -21 26 -22 29 -5 29 10 0 24 -4 32 -9z m830 -124 c10 -24 22 -63 26
-87 4 -25 18 -74 32 -110 48 -125 51 -142 38 -188 -44 -147 -295 -419 -540
-585 -77 -52 -189 -122 -250 -157 -60 -34 -149 -91 -196 -125 -57 -42 -129
-81 -220 -119 -74 -32 -177 -77 -229 -101 -73 -33 -120 -47 -204 -60 -60 -9
-115 -19 -122 -22 -11 -4 -14 13 -13 88 1 144 10 184 53 228 39 40 79 56 244
97 72 18 141 48 308 133 118 61 254 136 302 167 124 81 362 265 461 356 46 43
87 78 91 78 14 0 136 156 152 195 21 49 38 142 38 207 0 26 2 48 5 48 3 0 14
-19 24 -43z m138 -414 c7 -10 20 -34 29 -53 14 -33 14 -37 -12 -85 -49 -91
-205 -265 -277 -309 -19 -11 -57 -38 -83 -59 -93 -73 -290 -207 -394 -268 -58
-34 -163 -95 -235 -136 -71 -41 -143 -85 -160 -97 -58 -44 -179 -109 -274
-148 -146 -61 -166 -68 -302 -98 -69 -15 -136 -33 -149 -40 -13 -7 -47 -18
-75 -25 -74 -17 -148 -71 -251 -182 -99 -107 -114 -137 -114 -225 0 -50 5 -66
36 -112 20 -31 48 -60 65 -66 15 -7 33 -18 39 -25 7 -9 11 -90 12 -232 0 -201
-1 -222 -20 -259 -28 -54 -108 -127 -176 -159 -34 -16 -62 -37 -68 -51 -15
-32 15 -570 75 -1326 l3 -38 -46 0 -45 0 -3 43 c-1 23 -18 188 -37 367 -21
205 -38 435 -46 625 -6 165 -13 302 -15 304 -31 35 -6 -524 44 -986 l38 -353
-46 0 c-44 0 -46 1 -48 33 -2 17 -18 167 -37 332 -19 165 -44 435 -55 600 -30
456 -25 421 -69 447 -21 12 -48 36 -60 53 -11 17 -41 55 -66 84 l-45 53 0 201
c1 220 4 235 58 272 16 11 54 38 86 59 80 55 116 117 116 199 0 57 -5 71 -50
150 -28 48 -56 96 -63 107 -22 37 -113 90 -187 111 -110 30 -320 141 -389 204
-50 47 -64 69 -114 182 -67 152 -79 197 -75 283 l3 65 13 -60 c7 -33 24 -85
38 -115 27 -57 150 -230 164 -230 4 0 44 -24 88 -52 142 -93 205 -124 297
-151 121 -35 205 -80 198 -108 -3 -11 1 -27 10 -37 8 -9 23 -33 32 -52 10 -19
30 -49 44 -67 75 -93 71 -79 71 -225 l0 -134 29 -2 c36 -3 45 8 67 88 35 130
53 158 200 307 l139 141 55 4 c37 3 69 13 99 32 62 39 107 53 250 77 98 16
147 30 221 64 52 24 156 69 230 101 91 39 162 77 220 119 47 34 135 90 195
125 229 131 380 242 533 394 109 107 157 164 203 236 32 52 59 100 59 107 0
18 10 16 27 -4z m-3386 -141 c-2 -87 2 -118 19 -167 41 -118 212 -303 385
-416 136 -88 153 -102 164 -129 5 -14 12 -83 14 -155 3 -71 8 -137 12 -146 5
-14 -9 -12 -87 11 -84 25 -144 54 -248 121 -19 12 -59 37 -89 55 -57 35 -147
146 -194 240 -24 48 -53 172 -45 195 2 6 31 -31 63 -82 79 -125 268 -317 339
-344 60 -23 80 -13 84 40 6 68 -26 110 -130 174 -21 12 -48 37 -60 54 -12 18
-56 70 -96 117 -102 118 -129 159 -168 256 -36 89 -42 147 -22 205 13 41 48
92 56 84 3 -3 5 -54 3 -113z m3509 28 c19 -15 53 -36 74 -47 44 -23 44 -23
-45 -52 l-65 -21 -194 -226 c-106 -124 -198 -228 -205 -230 -7 -3 -29 2 -50
10 -34 15 -39 14 -73 -4 -20 -10 -85 -66 -144 -123 -119 -116 -126 -132 -89
-205 25 -50 38 -59 166 -127 162 -86 180 -82 306 68 49 57 49 59 49 129 0 54
-5 79 -22 109 l-22 39 21 22 c12 13 33 43 46 67 37 64 221 257 307 320 42 31
109 72 148 91 66 31 75 33 95 20 12 -7 47 -21 77 -31 30 -9 56 -21 57 -26 2
-6 -33 -23 -77 -39 -73 -26 -86 -35 -121 -80 -22 -29 -57 -63 -77 -77 -48 -31
-142 -146 -177 -217 -15 -30 -45 -79 -65 -108 -56 -78 -133 -275 -185 -472
-25 -96 -55 -200 -67 -230 -56 -142 -105 -243 -182 -374 -91 -153 -138 -204
-334 -369 -116 -97 -140 -112 -321 -202 -152 -75 -310 -135 -358 -135 -43 0
-63 44 -63 138 l0 77 156 125 c85 69 200 157 254 195 54 39 111 82 127 96 60
57 101 69 238 69 l125 0 0 49 c0 44 -3 50 -29 61 -19 7 -52 10 -93 6 -35 -4
-142 -9 -238 -11 -96 -3 -185 -8 -197 -10 -12 -3 -57 -49 -102 -104 -73 -89
-112 -124 -189 -171 -33 -20 -56 -87 -43 -122 7 -19 20 -27 47 -32 51 -10 69
9 69 77 l0 52 121 118 121 117 259 -2 c206 -1 232 -3 129 -7 -143 -7 -168 -15
-238 -78 -22 -19 -73 -57 -114 -84 -42 -27 -92 -64 -112 -82 -20 -17 -98 -81
-174 -142 l-138 -110 3 -97 c3 -95 3 -97 -17 -84 -19 13 -20 26 -23 244 l-2
231 197 170 197 171 286 1 285 0 80 103 80 103 83 6 c46 3 85 7 88 9 2 3 2 13
-2 22 -5 13 -22 16 -100 16 l-93 0 -50 -65 c-27 -36 -66 -84 -87 -108 l-39
-42 -281 0 -282 0 -53 -45 c-30 -25 -125 -107 -212 -183 l-157 -138 2 -251 3
-252 130 -93 c72 -51 152 -109 179 -129 27 -19 56 -34 65 -31 9 2 220 145 469
317 249 172 455 310 458 307 7 -7 28 -136 23 -141 -35 -32 -853 -644 -875
-655 l-31 -16 -6 -354 c-4 -195 -5 -357 -2 -359 16 -17 21 44 25 350 5 327 6
341 25 354 11 7 208 155 437 329 229 173 419 315 422 315 3 0 12 -15 21 -32 8
-18 45 -82 82 -143 65 -105 72 -113 161 -173 78 -53 107 -67 185 -87 50 -12
91 -27 90 -31 -16 -69 -30 -104 -64 -156 l-40 -63 -207 -12 -207 -11 -165 169
-166 169 -191 -123 c-105 -67 -215 -144 -246 -172 l-55 -50 -11 -314 c-6 -173
-9 -316 -6 -319 16 -16 21 37 30 314 l10 304 47 46 c25 26 129 100 230 165
l183 118 163 -165 163 -165 206 11 c113 6 207 9 210 6 3 -3 -18 -53 -46 -113
-29 -59 -55 -128 -58 -153 -6 -48 -70 -191 -105 -235 -16 -20 -18 -29 -9 -35
17 -10 -4 -18 -71 -25 -29 -4 -88 -18 -130 -32 -90 -29 -134 -69 -144 -133
l-7 -40 -62 0 c-76 0 -103 20 -55 40 32 13 34 20 45 142 4 50 2 76 -9 97 -23
44 -95 101 -128 101 l-28 0 0 -90 c0 -89 0 -90 -25 -90 -25 0 -25 1 -25 85 l0
85 -34 0 c-30 0 -40 -8 -90 -69 -55 -68 -56 -71 -56 -133 l0 -64 55 -54 c40
-40 55 -62 55 -82 l0 -28 -85 0 -84 0 -3 88 -3 87 -77 3 -78 3 -2 -203 -2
-203 -3 175 c-3 173 -4 175 -30 202 -22 23 -35 28 -75 28 -43 0 -49 -3 -63
-30 -10 -19 -15 -57 -15 -115 l0 -85 -95 0 c-57 0 -95 -4 -95 -10 0 -6 38 -10
95 -10 l95 0 0 -75 c0 -68 -2 -75 -20 -75 -19 0 -20 -7 -20 -140 0 -77 -1
-140 -2 -140 -78 -5 -589 -30 -625 -30 l-53 0 0 204 0 203 183 7 c100 3 217 9
260 13 l77 6 0 210 0 210 30 48 c17 26 67 81 110 123 l80 76 0 173 0 173 -47
46 c-27 25 -87 71 -135 102 -53 35 -114 86 -157 133 l-71 77 0 324 0 325 57
65 c72 81 229 199 345 258 l88 44 192 0 c176 0 203 2 304 27 l112 27 38 79
c55 113 85 132 211 132 124 0 123 19 -2 23 -92 3 -97 2 -140 -28 -35 -24 -54
-49 -85 -109 l-39 -78 -105 -27 c-96 -24 -123 -26 -301 -26 l-196 0 -76 -36
c-100 -48 -283 -184 -361 -269 l-62 -68 0 -340 0 -340 72 -76 c41 -43 112
-101 163 -135 49 -32 109 -77 133 -99 l42 -41 0 -162 0 -162 -71 -66 c-39 -36
-89 -91 -110 -121 l-39 -56 0 -209 0 -210 -23 0 c-13 0 -129 -5 -256 -11 -230
-11 -233 -10 -255 10 -20 18 -40 22 -149 28 -69 3 -125 9 -123 12 2 3 -7 148
-20 321 -35 467 -65 987 -58 1014 4 17 22 32 62 51 84 40 149 99 183 166 29
58 29 59 29 236 0 98 -3 201 -6 229 -6 46 -10 53 -49 76 -63 38 -105 104 -105
166 0 77 17 111 111 211 98 105 173 160 233 173 23 4 61 17 86 27 25 11 101
32 170 47 175 37 385 126 539 229 76 51 228 140 352 208 69 38 207 129 370
244 53 37 116 82 139 98 66 47 167 143 229 220 64 79 123 179 113 190 -12 13
21 -7 58 -35z m208 -106 l45 -26 -79 -42 c-44 -22 -107 -62 -141 -88 -76 -59
-269 -261 -293 -308 -10 -19 -32 -48 -48 -63 l-30 -29 -41 24 c-22 12 -41 26
-41 30 0 3 88 109 195 235 l195 228 88 32 c48 17 91 32 96 32 5 1 29 -11 54
-25z m-3823 -292 c-19 -74 -19 -181 -1 -247 8 -27 37 -102 66 -165 70 -156
126 -211 307 -303 71 -36 162 -75 201 -86 64 -18 155 -67 174 -95 5 -6 33 -54
63 -106 48 -81 55 -101 55 -146 0 -42 -7 -63 -31 -103 -18 -28 -35 -51 -39
-51 -4 0 -34 -20 -65 -45 -32 -24 -65 -47 -75 -50 -9 -3 -24 -21 -33 -40 -14
-30 -17 -70 -17 -245 l0 -209 70 -88 c39 -48 86 -96 105 -107 22 -13 35 -28
35 -40 1 -163 100 -1237 124 -1338 3 -14 -12 -16 -125 -20 -71 -1 -232 2 -357
7 l-227 10 -9 57 c-6 41 -13 59 -26 63 -15 5 -16 17 -12 103 4 93 3 100 -28
167 -30 65 -64 175 -56 183 2 1 42 -39 90 -90 l86 -93 0 -92 c0 -82 2 -93 20
-103 17 -9 20 -21 20 -85 0 -43 4 -75 10 -75 6 0 10 35 10 84 0 76 -2 85 -20
91 -18 6 -20 15 -20 102 l0 96 -105 108 -105 108 0 198 0 198 106 140 106 140
-6 85 c-3 47 -11 202 -17 345 l-11 260 -76 115 c-41 63 -95 145 -119 183 l-44
67 -159 0 -159 0 -5 53 c-4 28 -10 81 -14 117 l-7 65 -77 0 c-43 0 -78 -2 -78
-5 0 -3 4 -20 9 -38 6 -18 11 -66 12 -105 1 -40 8 -97 14 -127 7 -30 15 -105
19 -167 7 -126 20 -166 75 -226 21 -23 64 -79 95 -125 80 -114 194 -233 285
-295 42 -29 77 -59 79 -68 3 -16 -97 -123 -107 -113 -3 3 -51 47 -105 97 -55
51 -133 123 -173 161 -73 70 -110 85 -57 24 340 -389 358 -409 369 -396 6 7
44 50 84 95 l72 82 -6 248 -7 248 -96 183 -96 182 -183 0 -183 0 0 105 c0 104
0 105 -24 105 -21 0 -26 7 -35 50 -6 28 -11 53 -11 55 0 3 24 5 54 5 l54 0 6
-77 c4 -43 9 -95 12 -115 l6 -38 161 0 162 0 114 -173 114 -172 7 -150 c5 -82
11 -222 15 -310 3 -88 8 -174 10 -190 4 -26 -10 -50 -100 -169 l-105 -139 -2
-121 c-2 -119 -2 -119 -5 -26 -3 82 -7 98 -27 120 -13 14 -33 47 -46 73 -22
48 -94 139 -182 232 -27 28 -53 66 -58 87 -7 24 -21 43 -43 57 -29 18 -35 30
-56 113 -13 51 -25 99 -28 106 -3 8 1 10 11 6 25 -10 19 8 -15 46 -26 27 -33
48 -44 114 -7 45 -25 138 -40 206 -14 69 -30 165 -36 215 -19 184 -22 200 -32
213 -6 7 -12 64 -14 125 -7 190 -20 243 -48 191 -6 -11 -24 -41 -40 -69 -17
-27 -37 -61 -45 -75 -56 -94 -79 -128 -107 -159 -30 -34 -33 -35 -49 -19 -24
24 -35 185 -16 257 33 132 177 378 287 491 46 47 99 107 119 133 75 101 152
180 198 203 26 13 49 24 52 24 2 0 -12 -39 -32 -87 -26 -66 -38 -113 -46 -189
-11 -100 -12 -102 -55 -149 l-43 -47 4 -144 c4 -167 4 -168 87 -159 43 4 52 3
48 -8 -3 -8 -7 -86 -8 -173 l-3 -159 175 4 174 4 118 -166 117 -166 0 -374 0
-374 175 -186 175 -186 0 -232 0 -233 -40 39 -40 39 0 156 0 155 -106 117
c-59 65 -111 115 -116 112 -10 -7 -12 -5 115 -145 l87 -96 0 -154 0 -155 60
-59 60 -59 0 264 -1 265 -76 80 c-41 44 -118 126 -169 181 l-94 101 0 370 0
370 -127 178 -128 178 -159 -2 c-88 -1 -163 -4 -168 -7 -10 -6 -9 210 1 290 6
46 9 50 39 58 18 5 55 25 82 44 l48 35 -1 -152 -2 -151 109 4 108 3 165 -207
164 -208 -6 -102 c-11 -197 -25 -544 -25 -623 l0 -80 110 -98 c83 -74 110
-105 110 -123 0 -13 5 -24 10 -24 6 0 10 13 10 29 0 23 -11 40 -47 73 -26 24
-75 70 -111 103 l-64 60 17 397 17 397 -168 215 -169 215 -103 -6 -104 -6 4
317 c3 352 6 336 -64 336 l-38 0 0 59 c0 103 66 295 114 333 l21 17 3 -79 c2
-48 -3 -102 -13 -138z m184 -32 c45 -52 99 -118 121 -146 21 -28 60 -65 87
-81 85 -53 113 -86 113 -131 0 -23 -4 -44 -10 -47 -44 -27 -273 183 -375 344
-32 50 -64 91 -71 91 -11 0 -14 22 -14 103 l1 102 34 -70 c19 -40 68 -111 114
-165z m-264 171 c-30 -59 -65 -203 -65 -270 l0 -67 -52 -24 c-29 -13 -57 -26
-61 -28 -11 -5 1 131 15 178 6 19 26 71 45 116 34 82 46 92 131 123 1 1 -4
-12 -13 -28z m4225 -12 c69 -33 170 -135 170 -173 l0 -26 -50 25 c-66 33 -163
35 -241 3 -69 -27 -67 -26 -225 -199 -156 -171 -224 -282 -275 -449 -17 -57
-48 -140 -69 -185 -69 -151 -109 -372 -109 -608 -1 -243 19 -341 102 -500 45
-87 60 -106 127 -162 41 -34 95 -72 120 -85 49 -24 86 -55 101 -83 11 -20 15
-20 -124 14 -63 16 -97 32 -168 81 -82 57 -94 70 -146 156 -99 161 -103 171
-103 226 0 28 -5 67 -10 86 -15 51 -12 358 5 470 8 52 26 131 40 175 14 44 48
165 76 270 56 213 132 408 189 487 20 29 50 78 65 108 35 70 127 183 171 210
18 12 52 44 74 73 37 46 51 55 128 84 48 17 89 31 92 29 3 -1 30 -13 60 -27z
m122 -200 c46 -23 63 -28 68 -18 6 8 19 -5 40 -40 21 -33 46 -59 70 -71 21
-11 42 -29 45 -40 4 -12 19 -36 34 -53 15 -18 49 -68 75 -112 27 -44 63 -98
81 -120 21 -26 47 -84 75 -165 23 -69 50 -138 60 -155 19 -32 27 -65 40 -160
4 -33 11 -67 14 -75 14 -35 -85 -65 -251 -77 -87 -6 -274 36 -411 93 -120 49
-247 123 -266 155 -9 14 -42 52 -74 83 -102 99 -192 273 -192 372 0 40 6 49
142 200 123 136 150 161 203 185 86 40 164 40 247 -2z m-1109 -128 c15 -6 27
-16 27 -23 0 -8 20 -25 45 -38 25 -14 53 -35 61 -48 23 -35 -4 -110 -61 -174
-25 -27 -45 -54 -45 -59 0 -22 -72 -7 -127 26 -32 19 -63 35 -69 35 -5 0 -31
13 -57 30 -42 26 -47 34 -47 66 0 32 8 44 76 107 110 103 120 107 197 78z
m-3203 -30 c11 -21 14 -219 4 -270 -10 -50 -92 -105 -198 -133 -93 -25 -100
-23 -111 30 l-7 32 57 0 c46 0 74 8 140 39 45 22 85 47 89 56 3 9 6 63 6 119
0 107 -8 130 -45 139 -11 3 -4 5 17 6 27 1 40 -4 48 -18z m-46 -27 c9 -22 7
-197 -2 -210 -4 -6 -41 -28 -84 -48 -73 -35 -138 -46 -164 -28 -6 4 -12 41
-13 85 -3 86 10 114 75 164 56 42 177 66 188 37z m1616 -253 c0 -157 -7 -194
-37 -205 -9 -4 -157 -10 -328 -13 l-310 -6 -61 31 -61 31 -11 70 c-7 38 -12
106 -12 150 l0 80 78 4 c42 1 227 4 410 5 l332 2 0 -149z m1796 23 c-3 -12
-38 -56 -78 -98 -92 -96 -101 -97 -243 -21 -155 83 -211 159 -155 210 20 18
20 17 20 -8 0 -20 11 -35 42 -57 22 -16 46 -30 52 -30 6 0 42 -18 80 -40 85
-50 141 -56 165 -19 9 13 35 45 58 71 25 28 45 63 50 85 8 38 8 38 11 -16 2
-30 1 -65 -2 -77z m398 -177 c47 -84 98 -152 150 -198 23 -20 48 -48 55 -63
34 -62 282 -177 500 -231 159 -38 213 -43 268 -20 19 8 52 15 73 15 20 0 58
11 84 24 l47 24 14 -21 c8 -12 15 -38 15 -58 0 -33 -5 -40 -43 -62 -24 -14
-90 -38 -148 -52 -92 -24 -115 -26 -203 -20 -120 8 -192 30 -380 120 -144 69
-243 129 -286 174 -14 14 -45 44 -70 65 -41 36 -63 66 -119 168 -12 20 -25 39
-30 43 -5 3 -24 34 -42 69 -36 71 -35 83 12 166 l32 54 17 -66 c9 -36 34 -95
54 -131z m-143 -19 c15 -35 34 -66 51 -85 9 -10 23 -34 33 -53 10 -18 24 -40
31 -48 8 -7 14 -20 14 -28 0 -20 155 -167 228 -217 71 -49 322 -170 421 -203
50 -17 106 -26 180 -31 94 -5 117 -3 209 21 57 15 120 36 140 46 47 25 52 25
52 -2 0 -13 11 -42 24 -65 13 -23 34 -67 45 -99 12 -31 42 -88 66 -126 25 -38
61 -101 81 -141 20 -40 72 -126 115 -193 127 -194 155 -297 174 -639 10 -182
-20 -458 -59 -533 -18 -34 -56 -194 -56 -233 0 -16 -9 -52 -20 -81 -11 -29
-27 -84 -36 -123 -30 -136 -69 -215 -105 -215 -22 0 -23 1 -7 35 17 38 3 41
-41 11 -22 -16 -45 -25 -50 -21 -6 3 -11 26 -11 51 0 47 -16 58 -40 29 -27
-32 -47 -18 -65 48 -20 73 -60 142 -91 156 -22 10 -22 9 -17 -42 4 -43 2 -56
-16 -77 -20 -25 -20 -25 -21 -3 0 12 -5 25 -11 29 -17 10 -49 86 -49 117 0 15
-4 27 -8 27 -18 0 -43 -39 -49 -74 -3 -20 -8 -36 -11 -36 -8 0 -30 31 -63 88
-17 28 -35 52 -39 52 -5 0 -19 -19 -32 -42 -13 -22 -32 -44 -44 -49 -20 -7
-21 -5 -16 42 4 44 3 49 -16 49 -12 0 -25 -6 -29 -14 -12 -21 -74 -70 -68 -54
3 8 1 26 -4 41 l-10 26 -83 -50 -83 -49 -5 107 c-4 94 -8 114 -32 154 -15 25
-32 68 -39 95 -7 27 -30 90 -52 139 -53 121 -67 188 -67 332 l0 121 -85 77
c-47 43 -85 83 -85 91 0 19 -58 82 -91 100 -21 10 -29 22 -29 41 0 27 -48 107
-110 183 -34 40 -58 101 -75 183 -9 43 -28 33 -21 -10 14 -77 39 -139 75 -183
57 -68 112 -160 109 -178 -2 -12 -26 4 -88 59 -77 67 -90 85 -138 179 -77 153
-85 205 -79 508 4 237 5 252 35 367 17 66 49 161 70 210 22 50 47 116 56 148
9 31 19 57 22 57 2 0 9 -10 15 -22z m-4180 -107 c-13 -25 -35 -59 -46 -76 -12
-16 -33 -52 -46 -80 -36 -75 -188 -215 -233 -215 -24 0 -20 48 13 180 23 89
30 106 30 75 1 -51 17 -106 33 -117 38 -23 64 -6 114 74 14 24 41 66 59 93 18
28 45 72 60 100 23 41 29 46 35 30 4 -12 -3 -36 -19 -64z m1923 -3 c-27 -29
-85 -89 -131 -133 -88 -86 -115 -132 -148 -257 -14 -53 -22 -68 -36 -68 -18 0
-19 10 -19 126 0 138 6 120 -77 224 -17 22 -35 50 -39 63 -3 12 -12 29 -19 37
-38 44 -34 45 230 50 138 3 258 7 269 8 14 1 6 -12 -30 -50z m-1895 -82 c0
-47 5 -95 10 -108 10 -29 -28 -85 -121 -178 -94 -94 -140 -128 -192 -142 -57
-15 -65 -8 -70 60 -4 43 -2 52 11 52 29 0 142 81 192 137 26 29 58 74 71 101
13 26 38 69 57 96 18 26 33 52 33 57 0 5 2 9 3 9 2 0 5 -38 6 -84z m3724 -153
c-13 -2 -33 -2 -45 0 -13 2 -3 4 22 4 25 0 35 -2 23 -4z m-3543 -108 l0 -105
186 -2 186 -3 93 -175 93 -175 3 -239 4 -239 -69 -79 c-38 -43 -72 -78 -76
-76 -4 2 -40 41 -81 87 -40 46 -64 79 -52 73 12 -7 35 -29 52 -49 17 -20 41
-43 53 -49 21 -12 28 -8 90 53 l67 66 -20 28 c-11 16 -55 53 -98 83 -84 60
-198 180 -276 291 -27 39 -65 90 -85 115 -60 73 -67 94 -80 250 -7 80 -14 169
-17 198 -4 43 -2 52 11 52 14 0 16 -16 16 -105z m-140 -25 c6 -52 22 -153 37
-225 25 -122 27 -161 24 -350 -2 -66 -12 -126 -21 -120 -4 3 -11 -11 -15 -31
-10 -53 -25 -81 -50 -92 -13 -6 -34 -25 -46 -41 -13 -17 -32 -31 -43 -31 -11
0 -32 -12 -48 -27 -25 -24 -30 -25 -55 -13 -26 12 -153 24 -153 14 0 -2 21
-24 46 -48 25 -25 43 -49 39 -55 -3 -6 -2 -11 4 -11 22 0 45 -69 62 -185 23
-152 24 -235 5 -235 -15 0 -23 37 -28 125 l-3 40 -22 -38 c-16 -26 -23 -54
-23 -88 0 -27 -7 -66 -15 -86 -8 -19 -15 -64 -15 -99 0 -66 -16 -117 -34 -111
-6 2 -12 19 -14 38 -9 93 -52 26 -52 -80 0 -49 -6 -83 -20 -113 -11 -24 -24
-62 -30 -84 -7 -30 -16 -43 -32 -48 -17 -4 -20 -8 -11 -17 25 -25 47 -5 64 56
9 33 26 79 38 102 12 24 21 61 21 87 0 43 1 44 32 42 43 -1 58 30 70 143 5 47
12 115 16 151 l8 65 8 -52 c8 -52 8 -53 43 -53 l36 0 -6 108 c-7 123 -22 249
-32 274 -6 15 -3 16 25 5 21 -8 44 -30 65 -63 23 -36 44 -56 71 -66 22 -9 60
-34 85 -57 48 -42 46 -36 64 -171 6 -41 5 -43 -7 -23 l-13 22 -28 -34 c-24
-31 -27 -41 -23 -87 3 -33 2 -41 -2 -21 -6 27 -57 83 -66 72 -11 -16 -26 -96
-26 -141 0 -32 -6 -62 -15 -74 -8 -10 -15 -35 -15 -55 0 -58 -34 -80 -45 -29
-14 64 -55 16 -55 -65 0 -23 -12 -76 -26 -117 -15 -40 -29 -90 -31 -111 -5
-34 -7 -37 -22 -24 -27 24 -45 25 -71 6 -26 -17 -26 -17 -39 12 -7 17 -24 37
-37 46 -21 14 -29 14 -52 2 -15 -7 -30 -15 -34 -17 -5 -2 -8 10 -8 27 0 21 -5
31 -15 31 -16 0 -29 -11 -93 -84 l-42 -49 0 42 c0 23 5 51 11 63 6 11 8 22 6
25 -11 10 -69 -30 -78 -55 -6 -15 -18 -35 -27 -45 -9 -11 -22 -35 -28 -56 -12
-35 -12 -34 -13 33 l-1 69 -21 -19 c-12 -10 -28 -33 -35 -51 -8 -17 -18 -34
-24 -38 -5 -3 -10 -16 -10 -28 -1 -20 -1 -21 -11 -4 -10 17 -12 17 -29 2 -16
-15 -18 -13 -22 39 -11 131 10 512 42 751 33 252 43 301 91 454 33 104 39 114
149 251 42 53 83 107 90 120 7 14 28 44 46 67 53 64 124 254 124 331 0 29 3
32 29 32 44 0 92 20 146 61 28 21 55 43 60 49 6 6 33 34 61 63 28 29 59 65 69
80 10 15 22 24 26 20 5 -5 13 -51 19 -103z m3480 -40 c-21 -26 -39 -40 -53
-39 l-22 2 22 4 c12 2 33 20 48 39 14 19 28 34 31 34 3 0 -9 -18 -26 -40z
m280 -91 c-5 -35 -10 -128 -10 -207 0 -93 -4 -141 -10 -137 -8 5 -360 -227
-839 -552 -51 -36 -99 -62 -105 -60 -7 3 -45 26 -85 52 l-73 47 114 38 c116
38 285 118 405 191 81 50 344 271 393 331 41 50 198 313 207 346 11 45 14 13
3 -49z m-844 52 c-31 -5 -75 -38 -242 -181 l-204 -175 2 -242 c2 -132 0 -239
-4 -236 -5 2 -8 111 -8 242 l0 238 208 181 c197 173 209 182 247 180 l40 -1
-39 -6z m505 -91 c47 -26 11 -30 -242 -30 l-261 0 -71 -67 -70 -68 47 60 c79
100 65 95 260 96 94 1 182 5 196 9 37 12 118 12 141 0z m-736 -255 c-27 -22
-29 -28 -27 -84 1 -33 -2 -62 -7 -65 -5 -4 -22 -2 -36 4 -25 10 -27 14 -22 53
3 23 10 43 16 45 5 2 29 19 53 38 24 18 45 34 48 34 3 -1 -8 -12 -25 -25z
m1053 -87 c-7 -21 -921 -648 -933 -640 -30 18 -315 224 -315 228 0 2 53 -30
118 -72 64 -42 133 -87 153 -100 l37 -23 53 33 c30 18 238 157 463 309 225
152 414 277 419 277 5 0 7 -6 5 -12z m-3577 -233 l29 -109 -25 -36 c-14 -20
-25 -43 -25 -51 0 -26 -72 -87 -110 -91 -19 -3 -57 -11 -83 -19 -43 -12 -52
-12 -79 4 -16 9 -49 17 -72 17 -36 0 -44 4 -59 30 -10 16 -25 36 -33 45 -14
13 -12 15 15 15 17 0 47 -8 67 -17 l36 -18 20 28 c12 16 29 27 43 27 15 0 36
14 57 39 18 21 43 43 55 50 12 6 27 27 34 46 10 27 16 32 26 23 18 -14 27 -4
15 17 -6 11 -4 37 4 73 7 31 11 76 8 101 l-4 46 26 -55 c14 -30 39 -104 55
-165z m98 -173 c7 -25 37 -68 87 -123 92 -101 148 -174 167 -220 8 -19 21 -40
30 -48 13 -10 17 -31 17 -85 0 -40 4 -97 9 -127 6 -30 12 -79 14 -109 5 -68
45 -202 87 -295 29 -64 32 -77 28 -148 -3 -42 -7 -79 -10 -82 -6 -6 -165 72
-173 84 -2 4 -7 61 -10 127 -4 73 -16 154 -30 209 -13 50 -28 126 -34 169 -8
59 -16 83 -31 93 -11 8 -28 42 -39 76 -11 34 -31 91 -44 127 -14 36 -30 101
-37 145 -7 44 -21 107 -31 140 -18 57 -24 105 -14 105 2 0 9 -17 14 -38z
m3905 -965 c3 -12 6 -39 6 -59 l0 -38 -72 0 c-96 0 -110 9 -80 49 12 17 22 35
22 40 0 6 7 26 16 44 l16 34 43 -24 c24 -13 45 -33 49 -46z m-702 1 c55 -45
66 -71 61 -148 -6 -98 -10 -109 -48 -127 l-35 -17 0 -133 0 -133 45 0 45 0 0
-119 c0 -99 -3 -120 -16 -125 -9 -3 -72 -6 -140 -6 l-124 0 0 124 c0 115 1
124 20 129 18 5 20 14 20 114 l0 109 -60 59 c-58 57 -60 61 -60 111 0 46 5 57
52 117 29 37 61 67 70 67 16 0 18 -11 18 -90 l0 -90 50 0 50 0 0 95 c0 52 3
95 6 95 3 0 23 -15 46 -32z m-2982 -131 c0 -29 6 -60 13 -69 6 -9 56 -37 109
-64 l97 -48 -15 -28 c-14 -27 -18 -28 -88 -28 l-74 0 -23 -37 c-18 -30 -22
-51 -21 -103 1 -36 -4 -87 -12 -115 l-13 -50 -44 1 c-68 3 -124 21 -159 54
l-33 30 7 93 c12 169 18 207 31 207 16 0 25 22 25 60 0 42 20 81 60 117 30 27
43 32 88 33 l52 0 0 -53z m3715 -20 c30 -47 45 -143 45 -283 l0 -139 -53 -30
c-66 -38 -166 -57 -220 -41 -33 9 -42 18 -58 56 -10 25 -18 68 -18 95 -1 61
-24 182 -40 213 -11 20 -19 22 -101 22 -50 0 -90 4 -90 8 0 32 154 101 228
102 15 1 53 6 84 13 32 7 92 11 133 9 65 -3 78 -7 90 -25z m-4735 -56 c0 -39
20 -67 28 -41 3 8 16 25 29 38 l25 25 28 -29 c16 -16 31 -41 32 -56 6 -40 12
-41 41 -8 15 16 33 30 40 30 17 0 97 -82 97 -99 0 -8 6 -11 15 -7 13 5 15 0 9
-29 -6 -35 -6 -35 20 -25 25 9 26 8 28 -33 4 -90 6 -103 13 -142 5 -22 21 -62
36 -90 64 -112 93 -181 92 -220 0 -130 -99 -196 -191 -128 -63 46 -142 126
-162 164 -12 23 -43 52 -84 79 -36 23 -66 46 -66 51 0 5 -4 9 -10 9 -22 0 -8
-29 25 -54 19 -15 35 -30 35 -34 -1 -20 -21 -33 -64 -41 -57 -10 -67 -18 -43
-36 14 -10 25 -10 47 -2 37 14 44 7 36 -38 -8 -41 -18 -44 -34 -10 -6 14 -20
26 -29 26 -10 1 -34 2 -53 3 -44 1 -48 20 -26 120 8 39 18 88 21 109 5 33 9
37 35 37 18 0 46 -14 79 -40 28 -22 53 -40 56 -40 3 0 19 -10 35 -21 37 -28
71 -20 106 27 28 36 28 36 16 115 -12 85 -66 200 -103 219 -10 6 -28 29 -39
51 -25 48 -37 54 -83 41 -30 -8 -38 -7 -53 9 -19 22 -44 25 -44 7 0 -24 -77
-95 -115 -108 -20 -7 -54 -10 -75 -7 -68 9 -65 20 -64 -301 1 -308 5 -337 49
-366 12 -8 59 -24 104 -35 45 -11 92 -27 104 -36 30 -21 83 -19 107 5 14 14
20 33 20 65 0 25 4 45 10 45 13 0 36 56 45 109 4 25 12 41 21 41 8 0 14 -4 14
-10 0 -5 29 -42 65 -82 51 -56 65 -79 65 -102 -1 -49 -34 -110 -82 -149 -43
-36 -48 -37 -123 -37 -62 0 -85 4 -114 22 -20 12 -40 28 -44 35 -9 14 -47 18
-47 5 0 -4 25 -24 56 -44 45 -29 69 -37 126 -42 68 -7 69 -8 52 -27 -24 -26
-67 -24 -166 8 -108 35 -205 97 -262 169 -39 51 -46 66 -60 148 -16 94 -28
596 -14 596 4 0 11 -7 16 -16 8 -14 11 -14 26 7 9 13 16 31 16 41 0 9 5 20 11
23 5 4 15 19 22 33 l11 27 3 -30 c9 -83 14 -97 29 -85 7 7 19 31 26 54 6 22
22 54 35 69 13 16 23 35 23 43 0 8 4 14 10 14 5 0 10 -35 12 -77 l3 -78 31 48
c37 55 96 125 107 126 4 1 7 -17 7 -38z m3422 -48 c16 -14 18 -34 18 -185 l0
-168 -70 0 -70 0 0 166 c0 95 4 174 10 185 14 25 85 26 112 2z m178 -68 l0
-85 100 0 100 0 0 -65 c0 -51 -3 -65 -15 -65 -13 0 -15 -23 -15 -151 l0 -150
-31 3 -32 3 2 113 2 112 -110 0 -111 0 0 185 0 185 55 0 55 0 0 -85z m706 -25
c7 -36 13 -97 13 -136 1 -38 10 -119 21 -179 11 -60 20 -127 20 -149 0 -23 11
-81 23 -131 l23 -90 115 -5 114 -5 -146 -28 c-172 -33 -181 -31 -233 47 -33
49 -34 55 -45 196 -21 289 -33 529 -26 540 4 6 28 10 58 8 l51 -3 12 -65z m74
38 c6 -18 15 -78 19 -133 5 -61 17 -122 30 -157 21 -54 24 -57 70 -68 70 -16
170 3 243 47 l57 34 4 87 c1 48 4 -19 5 -149 3 -294 2 -296 -95 -333 -59 -22
-84 -26 -179 -26 l-112 0 -21 85 c-11 46 -21 104 -21 127 0 24 -7 78 -15 121
-8 43 -15 113 -15 155 -1 43 -7 106 -15 142 -20 91 -19 100 9 100 18 0 27 -8
36 -32z m-4360 -9 c47 26 59 23 80 -18 11 -23 31 -48 45 -57 13 -9 27 -25 31
-37 4 -12 17 -38 29 -57 13 -19 28 -66 34 -103 11 -63 10 -71 -9 -102 -25 -41
-50 -48 -81 -24 -13 10 -29 19 -36 19 -6 0 -18 8 -25 18 -19 27 -101 72 -130
72 -29 0 -48 -33 -48 -84 0 -19 -6 -49 -14 -67 -8 -19 -17 -59 -21 -90 -6 -52
-5 -56 19 -72 18 -12 37 -16 63 -12 38 6 38 6 66 -52 29 -63 34 -92 15 -111
-15 -15 -59 -15 -92 -1 -14 7 -62 21 -107 33 -63 16 -87 27 -102 47 -29 39
-39 113 -26 181 11 54 8 198 -7 364 l-6 61 59 -1 c72 0 125 26 172 84 l33 41
22 -20 c14 -13 26 -17 36 -12z m1252 -46 c10 -77 -3 -688 -15 -711 -10 -22
-16 -23 -82 -19 -189 12 -291 43 -337 104 -28 36 -28 39 -28 181 0 119 2 143
14 139 32 -13 134 -28 161 -25 25 3 30 9 43 53 7 28 13 82 12 120 0 49 5 80
17 103 17 32 18 32 91 32 71 0 73 1 90 30 22 39 29 38 34 -7z m2819 12 c33 -2
61 -4 63 -6 5 -6 26 -278 26 -340 l0 -56 -39 -11 c-21 -7 -41 -12 -45 -12 -3
0 -6 48 -6 106 0 115 -6 130 -56 136 l-29 3 -3 104 c-2 93 -1 103 13 91 8 -7
43 -14 76 -15z m1434 -34 c-15 -29 -19 -31 -72 -31 -97 0 -145 -26 -290 -158
-34 -32 -85 -77 -113 -101 -38 -34 -54 -57 -65 -95 -19 -64 -19 -136 0 -163
32 -46 130 -5 230 96 79 81 111 80 159 -5 22 -40 26 -59 26 -131 l0 -84 -45
-20 c-27 -12 -55 -34 -68 -54 -20 -31 -27 -34 -77 -37 l-55 -3 -3 -37 c-2 -29
3 -43 29 -72 30 -35 34 -36 77 -30 24 4 68 15 96 26 28 11 76 29 106 40 71 26
214 112 239 144 25 32 77 186 96 286 8 43 21 94 30 114 25 60 20 111 -14 145
-16 16 -37 29 -46 29 -28 0 -83 50 -95 86 -13 39 -13 39 -50 18 -16 -10 -35
-14 -46 -10 -15 6 -13 10 14 26 18 11 38 31 44 45 15 33 20 32 43 -12 11 -20
35 -52 52 -72 27 -30 35 -33 43 -21 5 8 10 25 10 37 0 55 13 54 42 -4 16 -32
35 -78 42 -103 l12 -45 29 44 c15 25 32 60 37 79 l10 35 19 -29 c10 -16 19
-33 19 -37 0 -5 9 -40 21 -77 l20 -68 35 14 c33 14 34 13 34 -8 0 -46 57 -75
89 -45 11 10 12 9 6 -2 -9 -16 11 -31 43 -31 27 0 28 -10 2 -43 -16 -20 -22
-50 -30 -144 -5 -65 -16 -145 -24 -178 -19 -79 -70 -219 -91 -252 -61 -93
-206 -182 -308 -190 l-62 -4 33 17 c18 9 59 40 92 68 32 28 77 64 100 79 30
20 39 32 32 39 -11 11 -28 0 -139 -96 -77 -67 -182 -113 -277 -122 -85 -8
-166 2 -166 19 0 20 60 77 80 77 10 0 21 4 25 9 3 5 28 17 56 26 57 19 159 75
159 87 0 14 -18 9 -67 -20 -26 -16 -68 -36 -93 -45 -108 -39 -123 -45 -141
-61 -28 -23 -129 -22 -177 3 -41 22 -86 66 -126 126 -34 51 -35 116 -3 165 12
19 38 64 57 100 22 40 46 70 63 78 15 7 28 18 28 25 1 7 5 -13 9 -43 5 -41 3
-61 -8 -78 -22 -34 -6 -39 23 -8 26 28 33 56 14 56 -8 0 -10 23 -5 80 4 44 6
80 3 80 -2 0 -18 -20 -35 -44 -18 -25 -41 -47 -51 -51 -10 -3 -37 -41 -61 -85
-49 -92 -99 -150 -129 -150 -28 0 -85 52 -106 97 -15 31 -17 53 -12 131 6 84
12 105 47 179 47 96 132 193 241 274 40 29 69 58 69 68 0 11 16 25 43 37 23
10 44 21 47 24 8 8 59 40 65 40 12 0 3 -25 -17 -47 l-21 -23 34 0 c25 1 46 11
79 40 49 42 63 34 35 -19z m21 -62 c4 -7 24 -9 55 -6 41 5 49 3 54 -13 7 -23
77 -80 97 -80 7 0 24 -7 36 -16 18 -12 22 -25 22 -63 0 -27 -6 -67 -14 -89 -8
-22 -18 -62 -21 -89 -13 -91 -75 -265 -105 -293 -32 -30 -154 -104 -190 -115
-14 -4 -63 -23 -109 -41 -105 -43 -138 -43 -175 -5 -42 44 -32 65 31 69 46 3
55 7 70 34 11 18 41 41 76 59 l57 29 0 84 c0 76 -3 91 -32 144 -32 62 -58 82
-106 82 -21 0 -44 -16 -91 -64 -67 -67 -137 -109 -173 -104 -34 5 -44 45 -28
118 11 54 20 69 58 104 132 119 209 189 222 200 47 40 77 51 159 57 47 3 89 7
93 7 4 1 10 -3 14 -9z m-3868 -15 l72 -6 0 -214 0 -214 -43 0 c-47 0 -256 24
-354 41 l-63 11 0 72 c0 39 3 129 7 200 l6 128 151 -6 c83 -4 184 -9 224 -12z
m832 -23 l25 -18 3 -211 2 -211 -32 -9 c-24 -6 -34 -15 -36 -31 l-4 -23 -301
7 -301 7 -48 42 -48 41 0 207 c0 186 2 208 18 218 12 8 117 9 357 5 308 -5
342 -7 365 -24z m1174 -358 c-3 -115 -7 -218 -10 -230 -2 -12 -19 -31 -38 -42
-30 -19 -49 -21 -174 -21 -129 0 -142 2 -152 19 -5 11 -10 67 -10 125 0 99 -1
106 -20 106 -19 0 -20 7 -20 125 l0 125 214 0 215 0 -5 -207z m511 -57 c7 -84
10 -93 46 -142 59 -78 76 -82 227 -54 70 12 132 25 138 27 15 6 38 -112 38
-202 1 -38 -5 -92 -13 -118 -11 -38 -11 -56 -2 -88 7 -21 14 -94 16 -162 4
-148 4 -794 -1 -1042 -2 -156 0 -188 17 -244 12 -41 19 -92 19 -148 l0 -85
-34 48 c-19 27 -50 72 -69 100 -46 67 -74 88 -141 103 -39 9 -57 18 -61 32 -9
26 -27 24 -24 -3 2 -31 -20 -88 -35 -88 -22 0 -56 31 -56 51 0 25 -14 24 -32
-3 l-15 -23 -49 26 c-27 15 -55 24 -63 22 -7 -3 -17 0 -21 7 -6 10 -16 7 -40
-14 l-33 -27 -23 38 -23 38 -1 -37 c0 -30 -7 -42 -37 -68 l-38 -31 -11 48 -11
48 -22 -47 c-26 -57 -37 -65 -61 -43 -20 18 -23 15 -35 -30 l-9 -30 -5 39 c-3
22 -11 41 -17 43 -13 4 -34 -39 -34 -70 0 -12 -9 -40 -19 -62 l-18 -40 -1 85
c-1 130 6 180 27 180 31 0 62 50 92 146 18 59 22 64 47 64 16 0 37 6 47 14 17
12 23 12 47 -6 37 -26 64 -16 79 30 l12 37 10 -30 c11 -35 35 -65 52 -65 6 0
42 -21 80 -46 79 -51 224 -129 230 -123 9 10 -14 28 -71 57 -34 17 -97 54
-140 81 -43 28 -85 51 -92 51 -11 0 -32 37 -46 82 -9 28 -32 21 -46 -14 -21
-52 -29 -59 -51 -45 -10 6 -19 17 -19 24 0 19 -30 16 -53 -5 -10 -9 -33 -17
-50 -17 -29 0 -31 -4 -54 -70 -36 -108 -50 -132 -83 -144 -17 -5 -30 -14 -30
-19 0 -6 -14 3 -30 18 -38 36 -93 155 -110 238 -7 35 -23 78 -36 95 -13 18
-35 52 -50 77 -64 108 -96 150 -133 181 -46 37 -122 135 -177 229 -60 104
-133 209 -152 219 -9 5 -109 11 -222 13 -223 5 -301 18 -394 65 -28 14 -81 36
-117 48 -36 13 -85 37 -110 54 -24 18 -86 60 -138 95 -59 39 -95 70 -97 82 -1
10 -14 52 -29 92 -14 40 -25 78 -23 82 2 5 24 -17 51 -50 39 -50 61 -66 131
-99 46 -22 86 -47 90 -56 11 -31 28 -16 22 20 -9 44 1 44 53 1 81 -68 147 -98
162 -75 5 9 -1 23 -18 41 -19 20 -24 31 -16 39 7 7 37 -3 101 -35 50 -25 111
-50 135 -56 24 -5 51 -12 60 -16 14 -5 17 1 17 36 l0 42 49 -41 c27 -23 54
-41 60 -41 7 0 11 18 10 49 -2 36 4 57 19 79 12 16 22 35 22 42 0 22 18 0 25
-30 4 -17 9 -30 12 -30 4 0 21 11 40 26 l33 25 0 -48 1 -48 50 55 c28 30 71
85 96 123 50 71 63 73 63 6 0 -45 18 -70 45 -63 25 6 66 117 68 184 1 25 8 71
16 103 l14 57 -28 30 -29 30 -177 0 c-155 0 -185 -3 -233 -20 -30 -12 -60 -27
-66 -35 -17 -20 -122 -50 -250 -71 -100 -17 -113 -17 -245 0 -77 9 -159 21
-183 26 -23 6 -56 10 -73 10 -46 0 -129 39 -174 82 l-41 38 -114 0 c-71 1
-126 6 -145 14 -36 16 -71 4 -79 -28 -3 -11 -6 -74 -6 -138 l0 -117 -44 -35
c-23 -20 -54 -37 -67 -38 -34 -2 -130 31 -156 54 -11 11 -38 26 -60 33 -36 12
-38 16 -41 59 -3 43 -1 46 21 46 14 0 44 -7 67 -15 23 -8 66 -15 96 -15 45 0
56 4 73 26 18 23 21 41 21 131 0 95 2 104 18 99 75 -22 430 -57 439 -43 3 5
27 -13 54 -39 l48 -47 321 -5 320 -5 0 22 c0 14 9 25 28 32 15 6 158 17 317
24 160 8 325 16 368 19 l77 5 0 -102 c0 -151 -5 -147 181 -147 154 0 174 4
217 43 20 19 22 29 22 139 l0 118 45 0 c25 0 45 5 45 10 0 6 20 10 45 10 l45
0 0 -232 c0 -223 1 -235 23 -271 12 -22 34 -46 49 -55 27 -16 30 -15 72 8 66
35 71 61 63 346 l-7 233 47 14 c58 17 57 19 68 -107z m-4073 78 c3 -3 -3 -23
-13 -44 -11 -21 -19 -47 -19 -57 0 -30 -12 -63 -20 -58 -5 3 -2 24 5 48 8 27
10 49 4 59 -6 11 -4 18 6 22 8 3 15 12 15 21 0 15 12 20 22 9z m3942 -231 c8
-256 4 -280 -49 -313 -32 -20 -36 -20 -59 -5 -48 32 -56 75 -56 315 l0 219 73
4 c39 1 75 4 78 5 3 1 9 -100 13 -225z m-2590 76 c22 -26 26 -41 28 -102 2
-109 3 -118 27 -177 35 -87 79 -160 136 -225 98 -113 105 -127 105 -222 0 -71
-5 -96 -32 -166 l-33 -82 -3 63 c-2 41 -7 62 -15 62 -41 0 -135 -147 -177
-276 -23 -71 -44 -83 -54 -30 -12 64 -37 136 -46 136 -6 0 -10 -17 -10 -37 0
-42 -24 -150 -35 -161 -3 -4 -13 2 -21 13 -12 16 -18 17 -33 8 -16 -10 -21 -6
-39 26 -30 53 -95 131 -109 131 -6 0 -18 -9 -26 -20 -14 -20 -15 -20 -21 11
-3 17 -6 46 -6 63 0 32 -4 42 -78 176 l-41 75 15 85 c18 97 23 280 10 358 -8
48 -7 52 11 52 10 0 37 -13 59 -28 35 -26 102 -54 161 -69 36 -8 65 4 111 46
l42 40 0 121 c0 162 19 195 74 129z m261 -18 c38 -40 128 -83 195 -92 30 -5
102 -15 160 -24 198 -29 281 -29 418 -1 67 13 139 34 160 45 128 69 113 66
307 69 l180 4 23 -25 c24 -25 24 -26 8 -80 -9 -30 -16 -76 -16 -101 0 -32 -4
-46 -14 -46 -7 0 -19 -20 -26 -45 -15 -55 -30 -58 -30 -7 0 71 -43 83 -77 22
-29 -49 -123 -163 -130 -156 -3 3 0 19 6 37 6 18 9 34 7 37 -3 2 -23 -10 -44
-27 -22 -17 -44 -31 -48 -31 -5 1 -18 19 -29 42 -26 55 -45 61 -45 13 0 -21
-9 -48 -22 -65 -12 -16 -22 -45 -22 -65 -1 -19 -3 -35 -5 -35 -12 0 -91 73
-96 90 -4 11 -11 20 -17 20 -7 0 -9 -20 -5 -60 4 -33 5 -60 3 -60 -22 0 -146
48 -204 79 l-73 39 -27 -23 -27 -23 24 -26 c14 -14 21 -26 17 -26 -13 0 -164
106 -203 142 l-21 20 8 -38 c5 -21 7 -40 6 -42 -2 -2 -32 10 -67 26 -61 28
-122 82 -175 156 -30 41 -48 26 -42 -35 3 -27 4 -49 2 -49 -1 0 -25 30 -52 68
-28 37 -65 81 -82 97 -18 17 -42 50 -55 76 -13 25 -34 50 -47 56 -12 6 -31 25
-41 42 l-18 31 104 0 c101 0 104 -1 132 -29z m-1342 -98 c9 -9 17 -22 17 -29
0 -7 -34 -44 -75 -82 -66 -61 -83 -72 -131 -82 -31 -7 -58 -10 -60 -7 -3 2 27
32 65 66 69 62 101 114 104 174 l2 25 30 -24 c17 -13 38 -32 48 -41z m1169 20
c9 -10 23 -31 31 -48 9 -16 45 -63 81 -103 89 -101 137 -173 141 -213 5 -53
22 -86 52 -105 15 -10 53 -41 83 -69 30 -28 67 -60 83 -69 34 -23 87 -100 87
-127 0 -11 -19 -46 -43 -77 -56 -74 -77 -108 -77 -124 0 -27 -72 -128 -93
-132 -12 -3 -39 -8 -60 -11 -26 -4 -55 -21 -90 -53 -29 -26 -67 -58 -86 -72
-29 -22 -35 -37 -57 -125 l-24 -99 25 -38 c31 -47 24 -48 -26 -3 -32 28 -43
33 -61 26 -23 -9 -25 -13 -13 -43 14 -35 -7 -24 -155 82 -46 33 -94 60 -105
60 -15 0 -25 12 -38 49 -10 28 -39 74 -65 103 -95 106 -126 158 -135 228 -3
25 -18 74 -33 110 l-26 65 5 280 c3 154 10 296 15 315 9 35 9 35 18 -25 11
-73 7 -209 -7 -290 -23 -124 -23 -128 11 -195 18 -35 43 -80 56 -99 17 -26 26
-62 34 -131 7 -52 16 -99 20 -104 5 -5 16 7 26 28 10 20 21 36 25 36 11 0 71
-79 109 -143 19 -32 36 -52 38 -45 11 41 12 41 37 18 14 -13 26 -22 28 -19 13
15 37 95 37 120 0 18 4 28 10 24 6 -3 10 -17 10 -31 0 -27 26 -84 38 -84 5 0
23 15 41 34 22 23 31 40 27 53 -8 25 75 199 114 237 l30 31 0 -53 c0 -29 7
-67 16 -84 l16 -31 36 99 c30 85 36 115 39 207 l4 108 -44 62 c-25 34 -57 73
-72 87 -63 59 -138 219 -150 322 -9 77 5 98 37 61z m3138 -323 c0 -14 19 -50
42 -80 23 -30 66 -93 95 -139 79 -127 168 -219 304 -317 131 -94 158 -105 294
-123 50 -7 113 -22 140 -33 28 -12 61 -21 75 -22 16 -1 29 -9 35 -23 7 -17 15
-21 30 -17 16 5 15 1 -9 -25 l-30 -31 27 0 c32 0 32 -3 11 -39 -16 -28 -18
-28 -143 -34 -169 -9 -284 9 -421 63 -173 68 -220 99 -342 223 -60 61 -116
121 -124 132 -9 14 -15 74 -20 195 -10 254 -10 292 0 325 l9 30 13 -30 c7 -16
13 -41 14 -55z m1871 -76 c-26 -43 -26 -47 -3 -40 17 6 18 2 10 -46 -5 -29
-13 -82 -17 -118 -4 -36 -17 -85 -28 -110 -11 -25 -33 -78 -48 -117 -15 -40
-32 -76 -39 -80 -7 -5 -18 -18 -25 -30 -15 -29 -86 -76 -136 -91 -43 -12 -83
-37 -75 -45 7 -8 182 30 226 48 l36 15 -50 -48 c-28 -26 -66 -56 -84 -66 -18
-10 -55 -34 -83 -52 -34 -23 -84 -43 -157 -61 -93 -24 -111 -26 -140 -15 -19
6 -59 12 -89 13 -61 1 -85 7 -117 30 -20 15 -21 19 -11 43 7 14 16 26 21 26 4
0 8 7 8 15 0 8 -7 15 -16 15 -11 0 -9 8 12 35 31 41 27 51 -13 38 -23 -8 -35
-5 -65 14 -20 14 -42 24 -50 22 -33 -4 -34 3 -7 30 16 16 29 36 29 44 0 43 90
157 172 218 75 56 171 109 197 109 9 0 22 5 28 11 7 7 35 19 63 29 l51 17 -19
-21 c-11 -11 -22 -33 -26 -48 -3 -14 -9 -34 -12 -43 -6 -15 -2 -16 27 -10 50
11 164 60 228 99 63 39 118 89 174 159 45 56 57 61 28 11z m-4526 -144 c4 0
24 -14 46 -30 21 -17 69 -41 106 -54 37 -13 97 -37 131 -54 35 -17 96 -36 135
-43 40 -7 76 -15 80 -19 20 -18 -78 -160 -154 -225 -29 -25 -58 -53 -64 -63
-5 -9 -10 -96 -10 -192 -1 -169 -2 -176 -27 -220 -37 -65 -98 -314 -98 -402
l0 -70 -27 7 c-16 3 -35 13 -43 20 -21 18 -90 46 -121 49 -14 1 -49 17 -77 35
l-52 33 5 102 c4 55 8 113 10 128 3 15 2 34 -1 43 -10 25 -67 52 -124 59 -30
3 -66 9 -79 13 l-24 6 30 -56 c39 -72 19 -78 -32 -9 -40 55 -41 62 -16 164 14
62 24 83 47 100 16 13 49 42 75 65 31 29 60 45 95 54 27 6 60 16 73 22 23 12
106 136 96 145 -4 5 36 67 93 141 37 49 37 72 1 122 -10 15 -19 31 -19 36 0 5
-20 24 -44 41 -25 18 -60 48 -78 68 -18 19 -54 48 -80 64 -27 17 -48 34 -48
39 0 5 42 -19 94 -55 52 -35 97 -64 101 -64z m-674 -895 c90 -65 143 -96 188
-110 l24 -7 -27 46 c-32 54 -16 63 29 16 31 -32 103 -63 175 -75 l45 -7 -54
56 c-29 32 -52 59 -50 60 5 5 120 -18 143 -29 17 -7 18 -18 11 -155 -6 -130
-5 -148 9 -153 11 -4 16 -19 16 -42 l0 -36 -31 18 c-39 23 -106 102 -120 142
-11 32 -29 33 -29 2 0 -9 -11 -32 -24 -49 l-24 -33 -21 41 c-11 22 -21 49 -21
58 0 10 -6 27 -14 37 -13 18 -14 18 -48 -3 -46 -28 -48 -28 -49 11 0 17 -4 40
-8 51 -6 16 -11 14 -42 -22 -44 -52 -74 -62 -83 -28 -3 14 -11 37 -16 51 l-10
26 -37 -30 -38 -31 -7 26 c-4 14 -11 31 -16 37 -6 7 -7 32 -2 62 5 28 9 69 9
93 1 31 5 42 16 42 9 0 56 -29 106 -65z m-131 -196 c0 -40 14 -43 51 -10 18
17 36 28 40 25 5 -3 11 -20 15 -39 5 -31 10 -35 36 -35 20 0 40 10 60 30 16
17 32 30 35 30 3 0 3 -18 -1 -40 -7 -48 3 -51 65 -20 29 15 40 17 43 8 1 -7 9
-29 16 -48 7 -19 15 -47 17 -62 7 -39 35 -36 70 8 l29 36 38 -50 c40 -52 127
-109 147 -96 6 3 9 21 7 40 l-4 33 43 -24 c24 -13 50 -22 57 -19 16 6 106 -32
106 -46 0 -5 18 -13 40 -16 40 -7 41 -8 34 -38 -3 -17 -14 -51 -23 -76 -14
-39 -23 -49 -71 -72 -62 -30 -228 -51 -535 -68 -321 -18 -478 -10 -492 26 -3
7 4 29 16 47 11 19 27 53 35 75 22 62 158 229 213 262 48 28 134 26 171 -5 2
-2 -10 -29 -26 -61 -16 -33 -37 -84 -47 -114 -10 -30 -29 -68 -41 -83 -13 -16
-24 -37 -24 -47 0 -10 -5 -31 -10 -45 -9 -23 -13 -25 -25 -15 -12 10 -29 9
-85 -4 -50 -11 -78 -13 -96 -6 -32 12 -44 13 -44 1 0 -21 68 -32 125 -22 31 6
61 13 66 17 5 3 16 0 24 -6 31 -25 64 8 65 63 0 10 11 33 24 50 13 18 32 57
41 87 10 30 33 86 52 125 l33 70 -42 22 c-61 32 -117 30 -170 -6 -62 -42 -196
-199 -218 -257 -7 -16 -24 -53 -39 -81 -29 -60 -36 -62 -118 -36 -51 16 -53
18 -53 53 0 21 8 48 19 61 10 13 26 40 36 59 10 19 48 71 85 115 36 44 81 107
100 140 18 33 44 75 58 93 24 32 27 33 39 16 7 -10 13 -30 13 -45z m2961 -269
c11 -14 42 -59 69 -100 44 -66 51 -87 66 -170 8 -52 18 -119 21 -147 3 -29 9
-53 15 -53 10 0 7 65 -11 185 -13 93 -25 131 -54 169 -50 67 -86 135 -76 142
6 4 14 2 18 -3 10 -16 48 -33 71 -33 15 0 25 11 36 36 14 33 17 35 47 28 76
-16 102 -30 132 -71 121 -167 133 -190 141 -267 7 -71 -5 -123 -42 -172 -22
-30 -27 -31 -111 -38 -48 -3 -103 -9 -122 -12 -24 -5 -32 -3 -27 5 11 18 -15
13 -29 -6 -11 -15 -14 -15 -36 0 -13 10 -33 17 -45 17 -20 0 -21 6 -27 123 -4
90 -12 140 -30 192 -27 79 -27 79 -72 -38 -22 -59 -22 -65 -9 -137 7 -41 13
-90 13 -107 l1 -33 -92 0 -93 1 -39 45 -39 46 6 80 c4 44 11 86 16 92 5 6 16
37 25 68 13 46 31 74 88 136 l71 79 50 -16 c27 -9 58 -27 68 -41z m-208 28 c3
-10 8 -9 23 2 10 8 -5 -12 -33 -44 -29 -33 -60 -80 -69 -105 -9 -25 -23 -62
-31 -81 -9 -19 -18 -75 -21 -123 l-5 -88 33 -34 c19 -19 31 -37 28 -40 -3 -3
-50 4 -104 17 -92 21 -103 26 -151 71 -49 46 -51 50 -41 80 5 18 20 66 33 107
12 41 28 89 34 105 11 26 14 28 22 13 15 -27 28 -22 45 21 12 31 19 37 38 34
17 -4 29 3 45 22 l21 28 0 -32 0 -32 31 18 c17 10 43 30 57 45 30 31 38 34 45
16z"/>
<path d="M2115 8760 l-320 -5 -55 -27 c-78 -39 -172 -112 -192 -150 -15 -28
-18 -60 -18 -209 0 -199 11 -257 63 -326 57 -74 70 -77 341 -81 164 -2 247 0
266 8 16 7 47 38 70 71 63 89 261 284 319 314 47 23 60 25 198 25 l148 0 65
-63 c36 -34 97 -105 136 -157 40 -52 93 -115 118 -140 l47 -45 267 0 c302 0
346 7 418 69 58 50 64 79 64 328 0 214 0 214 -27 269 -24 47 -36 58 -88 84
-70 34 -77 34 -536 21 -277 -9 -346 -6 -334 14 6 10 -345 10 -950 0z m875 -22
c-1 -7 -19 -33 -40 -58 l-40 -45 -179 -3 -180 -3 -55 54 c-30 31 -52 58 -49
61 4 3 127 6 275 6 208 0 268 -3 268 -12z m193 -18 l102 -1 -39 -32 c-49 -39
-66 -50 -138 -84 -57 -26 -58 -27 -58 -69 0 -37 5 -47 42 -78 38 -33 47 -36
104 -36 l63 0 -16 -37 c-23 -56 -14 -150 18 -200 45 -66 98 -95 185 -101 108
-7 234 21 295 65 141 101 100 356 -65 403 -46 13 -176 10 -221 -6 -26 -8 31
39 104 88 31 20 75 51 98 68 39 28 48 30 127 30 69 0 96 -5 141 -25 49 -21 58
-30 80 -77 24 -51 25 -61 25 -259 0 -122 -4 -220 -11 -240 -15 -48 -73 -97
-139 -117 -46 -14 -97 -17 -307 -17 l-252 0 -62 60 c-33 33 -86 94 -117 135
-31 41 -88 105 -127 142 l-70 68 -158 0 c-150 0 -160 -1 -210 -26 -29 -14 -75
-49 -103 -76 l-52 -50 -27 61 c-15 33 -34 66 -41 72 -23 19 -16 28 14 17 66
-25 113 17 116 104 l1 51 -65 16 c-80 20 -106 37 -165 107 l-47 54 105 0 105
0 61 -61 61 -60 191 3 191 3 25 30 c77 92 82 95 109 85 14 -6 71 -10 127 -10z
m-964 -37 c22 -27 50 -58 61 -69 27 -29 96 -62 143 -69 46 -7 52 -20 37 -74
-14 -52 -47 -69 -94 -49 -17 7 -35 13 -41 13 -16 1 -189 122 -227 160 l-35 36
-114 -3 -114 -3 -5 -250 c-5 -244 -6 -251 -31 -306 -34 -73 -70 -89 -130 -59
l-39 20 0 253 c0 141 5 268 10 289 14 49 73 119 118 140 30 13 72 17 228 17
l191 1 42 -47z m1416 27 c-17 -11 -61 -41 -100 -67 -38 -25 -94 -66 -122 -90
-111 -94 -147 -113 -210 -113 -50 0 -64 4 -96 31 -27 22 -37 38 -37 60 0 26 7
32 53 54 28 14 64 33 78 42 14 10 39 27 55 37 16 11 38 28 49 37 16 15 42 19
125 22 58 1 134 4 170 5 l65 2 -30 -20z m-2010 -113 c-12 -29 -15 -86 -15
-284 0 -213 -2 -245 -14 -233 -32 34 -46 120 -46 286 0 90 4 174 9 187 9 23
72 90 78 83 2 -2 -4 -19 -12 -39z m442 -1 c4 -8 35 -36 69 -63 l61 -48 -74
-23 c-93 -29 -134 -64 -156 -135 -27 -87 -23 -139 19 -217 29 -53 47 -74 88
-99 l51 -31 -185 0 c-166 0 -182 1 -163 15 12 8 33 45 47 83 25 66 26 74 26
300 l0 232 105 0 c79 0 106 -3 112 -14z m1640 -83 c44 -21 78 -73 94 -145 11
-52 10 -62 -10 -116 -30 -80 -76 -112 -193 -137 -169 -35 -272 -5 -325 96 -39
72 -22 181 36 233 15 13 13 6 -7 -35 -58 -117 2 -274 114 -295 48 -9 150 12
200 42 49 28 64 62 64 143 -1 121 -79 186 -223 186 l-79 0 49 22 c62 29 224
33 280 6z m-187 -52 c23 -6 25 -13 28 -69 3 -58 1 -64 -26 -92 -46 -46 -140
-34 -188 23 -31 36 -30 58 2 96 37 44 114 62 184 42z m-1261 -15 c9 -11 3 -14
-32 -18 -24 -3 -61 -17 -82 -31 -64 -44 -91 -106 -79 -185 5 -37 16 -55 55
-94 28 -28 61 -51 79 -54 16 -4 30 -9 30 -12 0 -16 -47 -52 -68 -52 -78 0
-192 129 -192 218 0 60 28 147 56 173 29 27 139 68 185 68 20 1 42 -5 48 -13z
m1345 -21 c37 -28 56 -68 56 -121 0 -102 -34 -140 -152 -164 -116 -23 -184 24
-203 140 l-7 45 28 -26 c35 -32 83 -49 139 -49 37 0 48 5 74 35 27 31 31 43
31 95 0 63 4 68 34 45z m-1260 -68 c49 -71 63 -122 41 -147 -23 -25 -158 -23
-198 3 -30 19 -50 76 -45 126 4 43 51 71 119 71 45 0 48 -2 83 -53z m-200
-129 c21 -44 30 -48 123 -55 l72 -6 -36 -43 c-30 -38 -41 -44 -74 -44 -32 0
-46 8 -87 48 -65 63 -75 115 -39 191 12 23 12 23 18 -15 3 -21 13 -56 23 -76z"/>
<path d="M1660 8560 c0 -6 32 -10 76 -10 47 0 73 4 69 10 -3 6 -37 10 -76 10
-39 0 -69 -4 -69 -10z"/>
<path d="M1660 8490 c0 -6 32 -10 75 -10 43 0 75 4 75 10 0 6 -32 10 -75 10
-43 0 -75 -4 -75 -10z"/>
<path d="M1660 8420 c0 -6 28 -10 65 -10 37 0 65 4 65 10 0 6 -28 10 -65 10
-37 0 -65 -4 -65 -10z"/>
<path d="M1660 8360 c0 -6 28 -10 65 -10 37 0 65 4 65 10 0 6 -28 10 -65 10
-37 0 -65 -4 -65 -10z"/>
<path d="M1660 8280 c0 -6 28 -10 65 -10 37 0 65 4 65 10 0 6 -28 10 -65 10
-37 0 -65 -4 -65 -10z"/>
<path d="M1670 8220 c0 -5 25 -10 55 -10 30 0 55 5 55 10 0 6 -25 10 -55 10
-30 0 -55 -4 -55 -10z"/>
<path d="M1670 8160 c0 -5 25 -10 55 -10 30 0 55 5 55 10 0 6 -25 10 -55 10
-30 0 -55 -4 -55 -10z"/>
<path d="M1670 8090 c0 -5 23 -10 50 -10 28 0 50 5 50 10 0 6 -22 10 -50 10
-27 0 -50 -4 -50 -10z"/>
<path d="M2941 7692 c-19 -9 -52 -43 -75 -76 -40 -57 -41 -61 -44 -151 l-4
-93 37 -12 c120 -39 246 53 272 199 16 94 16 122 -4 137 -27 20 -141 18 -182
-4z m118 -39 c14 -49 14 -79 0 -106 -38 -71 -108 -117 -180 -117 l-39 0 0 53
c0 47 6 62 42 117 45 66 79 89 135 90 29 0 33 -4 42 -37z m51 22 c19 -23 -6
-150 -41 -205 -48 -76 -136 -116 -201 -91 -42 16 -34 31 16 31 24 0 63 9 86
19 45 20 106 88 116 128 7 26 1 89 -10 116 -10 22 16 24 34 2z"/>
<path d="M2074 7655 c-18 -43 -18 -62 1 -115 8 -23 15 -52 15 -64 0 -37 72
-86 145 -99 35 -6 67 -8 70 -5 7 7 -42 152 -64 188 -36 60 -76 102 -108 115
-45 19 -42 20 -59 -20z m85 -31 c22 -19 51 -54 64 -77 24 -42 62 -145 56 -152
-2 -2 -26 1 -54 6 -54 10 -115 59 -115 92 0 11 -7 40 -16 66 -13 36 -14 52 -5
74 14 35 23 34 70 -9z"/>
<path d="M2127 7604 c-4 -4 6 -21 22 -39 16 -18 39 -56 52 -83 24 -52 39 -65
39 -36 0 40 -96 174 -113 158z"/>
<path d="M2463 5212 l-93 -88 0 -164 0 -165 112 -82 c151 -111 153 -111 303 1
l112 84 1 175 1 174 -94 77 -94 76 -78 0 -78 -1 -92 -87z m319 0 l83 -68 3
-170 2 -169 -97 -73 c-131 -97 -143 -97 -276 -1 l-97 71 0 74 c-1 41 -1 112
-1 158 l-1 84 84 81 83 80 67 1 67 0 83 -68z"/>
<path d="M2534 5180 l-81 -50 -6 -97 c-4 -54 -7 -123 -7 -153 l0 -55 77 -57
c41 -32 84 -58 95 -58 11 0 64 32 119 71 l99 71 0 148 0 148 -57 41 c-50 35
-65 41 -108 41 -42 -1 -63 -8 -131 -50z m221 -6 l55 -37 0 -137 0 -137 -37
-26 c-21 -14 -64 -44 -97 -66 -32 -23 -62 -41 -66 -41 -3 0 -39 25 -79 57
l-73 56 6 51 c3 28 6 89 6 136 l0 85 78 47 c98 60 131 62 207 12z"/>
<path d="M2568 5103 l-58 -26 0 -117 0 -116 59 -29 59 -28 64 40 63 40 3 104
3 105 -56 27 c-30 15 -61 27 -68 26 -6 0 -38 -12 -69 -26z m122 -18 l50 -25 0
-88 0 -87 -57 -37 -57 -37 -48 25 -48 24 0 100 0 100 53 24 c28 14 53 25 55
25 1 1 25 -10 52 -24z"/>
<path d="M4254 5953 c-48 -65 -89 -121 -93 -125 -3 -3 -91 -11 -195 -18 l-189
-11 -271 -211 c-149 -116 -275 -215 -280 -219 -5 -4 -16 -180 -25 -391 -20
-442 -2 -383 -152 -523 -86 -80 -115 -116 -91 -114 4 0 62 53 129 117 l121
117 6 180 c4 99 8 221 11 270 3 50 7 141 10 204 4 63 8 118 11 122 2 4 125
102 272 217 l268 209 190 12 c121 8 193 16 200 24 42 45 182 247 174 252 -5 3
-48 -47 -96 -112z"/>
<path d="M4463 5835 l-98 -165 -251 0 -252 0 -255 -192 -255 -193 -6 -135 c-4
-74 -8 -173 -11 -220 -2 -47 -8 -159 -11 -249 l-7 -163 -178 -156 -179 -157 0
-288 c0 -239 3 -293 15 -318 l16 -29 89 77 90 77 0 170 0 171 111 111 c72 72
109 116 104 124 -5 8 -45 -25 -121 -101 l-114 -114 -1 -175 0 -175 -72 -62
c-65 -56 -73 -60 -85 -45 -9 12 -12 81 -10 291 l3 275 135 119 c74 66 154 136
177 156 l42 36 16 380 c15 326 19 382 33 396 10 9 121 95 247 190 l231 174
251 -1 c138 -1 255 1 261 5 5 3 17 22 27 41 10 19 53 94 97 167 43 72 78 134
78 137 0 28 -34 -19 -117 -159z"/>
<path d="M3393 4159 c-102 -83 -123 -105 -123 -127 0 -15 -5 -78 -10 -141 -6
-63 -8 -117 -5 -120 14 -14 23 31 30 149 l7 128 113 91 113 91 106 -67 105
-68 1 -106 0 -106 -100 -88 -100 -87 0 -294 c0 -189 4 -294 10 -294 6 0 10
103 10 288 l0 287 100 88 100 88 0 119 0 118 -97 63 c-54 34 -107 68 -118 75
-18 11 -32 3 -142 -87z"/>
<path d="M4396 4100 c-76 -49 -156 -104 -176 -122 l-38 -33 -5 -282 c-4 -224
-2 -283 8 -283 10 0 13 63 17 279 l4 279 24 21 c14 12 88 62 165 112 l140 90
60 -63 c33 -35 88 -93 122 -130 l62 -68 181 0 180 0 -6 -57 c-4 -32 -9 -60
-11 -63 -3 -3 -108 -19 -235 -36 l-231 -32 -153 157 c-84 86 -153 149 -153
141 0 -8 66 -84 147 -169 l147 -153 245 33 c135 18 248 35 252 38 4 3 10 41
14 84 l7 77 -186 0 -186 0 -123 135 c-68 74 -125 135 -128 135 -3 0 -67 -41
-144 -90z"/>
<path d="M1882 4227 l-62 -63 0 -125 0 -125 69 -90 70 -91 7 -127 c7 -122 8
-127 30 -132 22 -6 24 -11 24 -75 0 -55 3 -69 15 -69 12 0 15 -15 15 -75 0
-43 4 -75 10 -75 6 0 10 37 10 90 0 73 -3 90 -15 90 -12 0 -15 14 -15 64 0 55
-3 64 -20 69 -18 5 -20 14 -20 80 0 42 -4 79 -10 82 -5 3 -10 24 -10 46 0 33
-11 54 -70 133 l-70 93 0 114 0 115 54 53 53 53 97 -112 96 -111 0 -99 c0 -60
4 -100 10 -100 6 0 10 42 10 106 l0 105 -102 120 c-56 65 -104 119 -108 119
-3 0 -34 -28 -68 -63z"/>
<path d="M2551 6141 c-6 -11 -8 -47 -4 -84 5 -56 9 -67 30 -76 31 -14 513 -15
514 -1 0 6 0 30 0 55 0 25 0 63 0 85 l-1 40 -265 0 c-249 0 -265 -1 -274 -19z
m519 -81 l0 -70 -65 0 -65 0 15 24 c17 26 17 87 0 93 -6 2 -10 -14 -10 -36 0
-25 -8 -47 -19 -60 -18 -20 -30 -21 -171 -21 -106 0 -156 4 -167 13 -16 12
-32 109 -21 121 4 3 118 6 255 6 l248 0 0 -70z"/>
<path d="M5320 5532 c0 -61 46 -144 109 -199 l26 -22 -50 0 c-27 0 -61 6 -75
14 -45 26 -52 17 -22 -28 17 -23 37 -60 46 -82 10 -22 27 -51 39 -64 l22 -24
-30 21 c-28 21 -125 55 -133 48 -1 -2 10 -23 26 -47 16 -24 44 -72 63 -106 27
-49 41 -65 67 -74 34 -11 102 -69 81 -69 -7 0 -34 14 -61 31 -28 16 -52 28
-54 26 -3 -2 4 -29 15 -58 30 -83 71 -237 71 -265 0 -32 97 -132 159 -163 23
-12 44 -21 46 -19 2 2 -5 23 -16 47 -27 61 -26 81 4 54 12 -11 74 -43 138 -70
93 -40 120 -48 135 -40 20 12 135 36 170 37 18 0 16 -5 -16 -39 -21 -21 -47
-59 -59 -84 -12 -25 -45 -67 -73 -93 -53 -50 -56 -56 -127 -250 -33 -89 -36
-105 -27 -138 l11 -37 43 81 c31 58 49 80 63 80 18 0 17 -4 -10 -58 -38 -76
-54 -159 -41 -220 17 -77 18 -78 45 -52 31 29 31 21 5 -88 -13 -54 -20 -118
-20 -182 0 -90 2 -101 24 -127 19 -21 27 -25 36 -16 9 8 7 14 -9 22 -20 11
-21 20 -21 131 0 83 6 145 20 207 11 48 23 99 26 112 5 23 4 23 -34 -8 l-40
-31 -9 38 c-14 55 6 146 50 225 l37 67 -48 0 c-47 0 -47 0 -76 -55 -16 -31
-31 -54 -33 -51 -2 2 19 66 47 142 48 130 55 143 110 199 33 33 60 65 60 71 0
19 65 101 113 143 l48 41 -29 0 c-40 0 -201 -28 -232 -41 -40 -15 -229 68
-293 130 l-48 46 7 -45 c4 -25 13 -60 20 -78 12 -31 12 -32 -7 -22 -11 6 -44
36 -74 66 -39 39 -55 62 -55 82 -1 15 -16 80 -34 144 l-33 117 28 -14 c15 -8
52 -15 81 -15 52 0 52 0 28 17 -14 9 -38 29 -55 44 -16 15 -46 35 -66 43 -29
12 -45 31 -82 96 -26 46 -40 80 -33 80 7 0 35 -16 62 -35 27 -19 55 -35 61
-35 22 0 14 28 -17 63 -24 28 -70 115 -70 133 0 3 50 2 110 -2 80 -5 110 -4
110 5 0 6 -12 11 -27 11 -60 0 -170 105 -191 183 l-10 37 58 -40 c32 -22 107
-69 167 -104 59 -36 122 -74 138 -85 52 -35 275 -140 313 -147 20 -4 94 -40
164 -80 70 -41 152 -80 180 -89 l53 -15 -60 6 -60 6 48 -50 c27 -27 70 -59 95
-72 44 -21 172 -135 172 -152 0 -4 -12 -8 -27 -8 l-27 0 40 -42 c49 -51 98
-117 93 -123 -11 -11 -85 17 -120 45 -41 33 -115 64 -130 54 -5 -3 29 -50 76
-106 91 -106 109 -131 169 -243 34 -62 35 -67 13 -46 -14 12 -30 20 -35 17
-12 -7 37 -147 61 -173 9 -11 17 -35 17 -53 l0 -33 -25 23 c-13 13 -27 32 -31
42 -5 15 -79 58 -100 58 -5 0 62 -98 98 -143 16 -20 23 -45 26 -92 3 -40 0
-65 -6 -65 -5 0 -33 25 -61 56 -65 71 -75 54 -26 -47 28 -58 35 -86 36 -134 0
-58 9 -123 24 -175 7 -23 4 -22 -32 13 -21 20 -42 37 -46 37 -4 0 -7 -101 -7
-225 0 -124 4 -225 9 -225 12 0 21 106 21 263 0 123 2 138 15 127 8 -7 22 -37
31 -66 8 -30 17 -54 19 -54 2 0 9 24 15 54 9 44 8 61 -3 88 -8 19 -18 78 -22
133 -4 54 -13 117 -21 139 -12 38 -12 39 3 19 10 -15 26 -23 44 -23 29 0 29 0
29 63 0 34 -4 77 -9 94 l-9 32 24 -15 24 -16 0 58 c0 42 -5 63 -19 78 -17 20
-41 77 -41 99 0 5 15 -2 34 -17 34 -26 56 -33 56 -18 0 4 -18 34 -41 67 -22
33 -56 89 -75 125 -19 37 -68 106 -109 155 -74 91 -87 117 -37 77 55 -45 70
-53 126 -67 31 -8 59 -15 61 -15 23 0 -32 106 -75 145 -26 23 -25 33 2 37 18
3 11 14 -57 86 -43 46 -99 94 -124 107 -47 25 -91 58 -91 69 0 4 17 4 38 0 24
-3 43 -1 56 9 19 14 19 14 0 25 -10 5 -48 18 -82 27 -35 10 -119 50 -185 88
-67 38 -145 76 -173 83 -61 16 -261 108 -289 133 -11 10 -51 34 -89 55 -37 20
-121 72 -185 114 -64 42 -122 81 -128 85 -9 6 -13 0 -13 -21z m1350 -1503 c15
-28 5 -23 -15 7 -9 15 -12 23 -6 20 6 -4 16 -16 21 -27z"/>
<path d="M1260 5245 c0 -13 23 -15 149 -15 l149 0 86 -116 c47 -64 86 -120 86
-125 0 -6 -11 -27 -25 -47 -27 -39 -31 -52 -16 -52 17 0 73 98 64 113 -4 7
-48 68 -98 135 l-90 122 -152 0 c-129 0 -153 -2 -153 -15z"/>
<path d="M1377 3072 c-24 -26 -22 -79 2 -92 35 -18 78 -12 100 16 l20 25 -21
35 c-11 20 -28 34 -39 34 -25 0 -24 -4 6 -34 21 -21 24 -29 15 -46 -12 -22
-49 -27 -68 -8 -16 16 -15 43 3 58 16 14 20 30 7 30 -5 0 -16 -8 -25 -18z"/>
<path d="M5182 3147 c-17 -18 -22 -36 -22 -79 0 -55 0 -55 38 -67 58 -19 104
3 120 58 11 36 11 45 -5 71 -9 17 -21 30 -25 30 -12 0 -9 -23 6 -43 11 -14 11
-26 3 -52 -12 -41 -54 -61 -92 -43 -21 9 -25 18 -25 53 0 50 13 65 57 65 23 0
33 5 33 15 0 25 -63 19 -88 -8z"/>
<path d="M2491 2984 c-19 -24 -21 -40 -21 -159 l0 -133 31 -11 c19 -6 104 -11
200 -11 l167 0 26 31 c25 30 26 35 26 165 0 112 -2 134 -15 134 -13 0 -15 -21
-15 -133 0 -186 10 -177 -188 -177 -86 0 -167 3 -179 6 -22 6 -23 10 -23 131
0 68 5 133 10 144 10 18 23 19 190 19 113 0 180 4 180 10 0 6 -68 10 -184 10
l-185 0 -20 -26z"/>
<path d="M3875 2267 c-61 -63 -119 -133 -131 -157 -48 -100 -65 -223 -41 -298
8 -26 18 -63 22 -82 10 -49 26 -77 79 -138 36 -42 48 -65 57 -112 10 -51 32
-92 43 -79 8 10 -33 143 -53 167 -63 79 -82 109 -92 146 -6 23 -17 64 -25 92
-18 66 -18 134 2 203 32 111 57 154 144 246 85 89 116 125 109 125 -2 0 -53
-51 -114 -113z"/>
<path d="M4064 2333 c-20 -61 -27 -74 -35 -61 -5 7 -9 9 -9 3 0 -5 5 -17 10
-25 8 -13 11 -12 24 5 9 11 21 34 28 52 6 18 19 34 27 36 9 3 3 5 -12 6 -18 1
-30 -5 -33 -16z"/>
<path d="M4298 2265 c-3 -3 1 -22 8 -43 7 -20 13 -51 14 -67 0 -30 15 -55 32
-55 20 0 -3 148 -25 162 -14 9 -22 10 -29 3z"/>
<path d="M4720 1993 c19 -15 61 -53 93 -84 31 -31 57 -53 57 -49 0 11 -111
113 -150 139 l-35 22 35 -28z"/>
<path d="M4630 1896 c0 -4 16 -31 37 -60 24 -35 53 -62 87 -80 59 -31 176
-122 176 -136 0 -8 -36 3 -112 35 -14 5 -18 2 -18 -15 0 -11 4 -18 10 -15 5 3
31 -1 56 -10 82 -28 98 -2 37 57 -44 42 -155 118 -172 118 -13 0 -71 59 -71
72 0 5 11 8 24 8 15 0 55 -27 112 -75 78 -68 107 -85 105 -62 -1 4 -1 14 -1
23 0 8 -4 13 -8 10 -5 -3 -41 24 -80 60 -66 60 -76 66 -127 71 -30 3 -55 3
-55 -1z"/>
<path d="M3891 1606 l-23 -25 32 -95 c17 -53 36 -96 41 -96 14 0 11 11 -22
105 -44 124 -24 127 41 6 46 -86 65 -110 139 -176 83 -75 84 -75 17 -10 -55
54 -80 90 -133 191 -35 68 -66 124 -67 124 -1 0 -13 -11 -25 -24z"/>
<path d="M4813 1540 c0 -36 2 -50 4 -32 2 17 2 47 0 65 -2 17 -4 3 -4 -33z"/>
<path d="M4747 1574 c-13 -14 -7 -41 31 -128 33 -80 58 -111 56 -71 0 8 -1 32
-2 53 -2 24 -5 32 -11 24 -5 -9 -15 7 -31 50 -25 69 -33 82 -43 72z"/>
<path d="M4190 1434 c0 -23 48 -89 84 -113 24 -17 60 -49 79 -71 36 -42 54
-53 38 -21 -6 10 -39 42 -75 70 -42 34 -69 64 -79 90 -9 21 -23 41 -31 44 -9
4 -16 4 -16 1z"/>
<path d="M4189 1328 c27 -106 36 -128 51 -128 5 0 0 26 -10 58 -10 31 -26 83
-35 115 -8 31 -19 57 -24 57 -5 0 3 -46 18 -102z"/>
<path d="M4723 1370 c0 -30 2 -43 4 -27 2 15 2 39 0 55 -2 15 -4 2 -4 -28z"/>
<path d="M4664 1370 c-11 -11 5 -153 19 -167 19 -19 25 17 15 87 -11 80 -18
96 -34 80z"/>
<path d="M4480 1272 c0 -29 7 -45 27 -63 23 -21 25 -22 18 -4 -4 11 -12 39
-18 63 -13 52 -27 55 -27 4z"/>
<path d="M4601 1222 c-7 -16 -22 -34 -34 -40 -22 -10 -22 -11 -1 -11 14 -1 26
10 38 35 9 20 15 38 13 41 -2 2 -10 -9 -16 -25z"/>
<path d="M4530 2321 c0 -40 1 -41 36 -41 35 0 35 1 32 38 -3 34 -6 37 -35 40
-32 3 -33 2 -33 -37z m40 -6 c0 -8 -4 -15 -10 -15 -5 0 -10 7 -10 15 0 8 5 15
10 15 6 0 10 -7 10 -15z"/>
<path d="M7085 1998 c-11 -6 -29 -21 -40 -34 -28 -31 -187 -110 -262 -129 -34
-9 -88 -15 -120 -13 -54 3 -58 5 -55 26 2 12 1 22 -2 22 -3 0 -59 -30 -123
-66 -137 -76 -197 -135 -226 -222 -10 -30 -15 -58 -10 -63 17 -16 120 7 153
34 17 15 36 27 41 27 5 0 52 18 104 41 53 22 101 39 108 36 7 -2 -33 -34 -88
-70 -55 -36 -113 -77 -130 -92 -26 -23 -27 -26 -8 -22 13 3 24 -1 27 -9 9 -23
36 -16 136 34 68 34 99 55 108 75 10 20 20 27 42 27 16 0 42 11 61 27 l32 28
-7 -30 c-4 -17 -19 -42 -33 -56 -13 -15 -21 -29 -16 -32 13 -8 123 81 133 107
4 12 41 69 82 127 79 113 145 239 125 239 -7 0 -21 -6 -32 -12z m-22 -75 c-8
-21 -18 -40 -22 -43 -12 -9 -151 -218 -151 -228 0 -5 -10 -17 -21 -28 l-22
-19 7 40 c4 22 10 49 13 60 3 13 -12 4 -45 -29 -36 -35 -61 -51 -89 -55 -26
-4 -41 -14 -50 -31 -14 -29 -165 -110 -203 -110 l-25 1 26 22 c15 12 55 39 88
60 62 39 153 112 159 128 10 25 -107 -8 -228 -65 -30 -14 -62 -26 -69 -26 -8
0 -27 -11 -41 -25 -16 -16 -43 -27 -72 -31 l-47 -7 11 44 c16 66 76 125 192
191 82 46 102 54 109 43 11 -21 147 -20 218 1 64 19 226 98 254 125 26 25 26
25 8 -18z"/>
</g>
</svg>
